<?xml version="1.0" standalone="no"?>
<svg version="1.1" id="Layer_1" xmlns="http://www.w3.org/2000/svg" xmlns:xlink="http://www.w3.org/1999/xlink" x="0px" y="0px" width="595.279px" height="595.279px" viewBox="0 0.001 595.279 595.279" enable-background="new 0 0.001 595.279 595.279" xml:space="preserve">
<path id="color_x5F_5" fill="#FFD2BB" d="M366.365,122.987c-0.057,0.081-0.116,0.167-0.173,0.249
	c0.082-0.118,0.165-0.238,0.246-0.355C366.413,122.916,366.39,122.95,366.365,122.987z M387.908,126.761l-9.18,17.203l-3.456,0.041
	c-1.136,3.33-2.695,6.235-4.296,7.898c-3.592,3.731-6.356,0.149-10.027-4.241c-0.45,0.32-0.894,0.558-1.27,0.67
	c-1.679,0.494-1.429-1.653-2.015-3.644c-0.086-0.29-0.138-0.58-0.162-0.868c-0.119-0.119-0.238-0.24-0.362-0.357
	c-1.125-1.083-2.06-2.277-2.811-3.532c1.435-1.989,3.059-4.25,4.731-6.591v0c1.582,2.821,4.191,5.366,6.479,6.127
	c-0.001-0.001-0.001-0.002-0.002-0.004c0.002,0,0.003,0.001,0.004,0.001c-0.334-0.739-0.544-1.528-0.573-2.326
	c-0.01-0.266,0.001-0.532,0.033-0.798c0.238-2.029,1.944-4,4.121-3.953c1.618,0.034,2.684,1.337,2.897,2.877
	c0.102,0.671,0.07,1.337-0.08,1.97c-0.07,0.302-0.168,0.594-0.289,0.876c-0.064,0.151-0.153,0.292-0.231,0.437
	c-0.067,0.126-0.124,0.258-0.201,0.38c0.066-0.035,0.124-0.068,0.188-0.111c0.812-0.471,1.563-1.094,2.241-1.858
	c1.391-1.529,2.473-3.591,3.1-5.982c0.009-0.028,0.018-0.057,0.02-0.082c0.148-0.564,0.272-1.149,0.369-1.749
	c0.038-0.237,0.051-0.485,0.08-0.726c0.044-0.368,0.1-0.732,0.121-1.107c0.033-0.541,0.05-1.084,0.038-1.636v0c0,0,0-0.001,0-0.001
	c-0.001-0.028-0.005-0.062-0.005-0.091L387.908,126.761z M360.575,140.821c-0.506-0.51-1.168-0.671-1.48-0.356
	c-0.31,0.313-0.153,0.987,0.355,1.498c0.507,0.507,1.167,0.672,1.48,0.356C361.239,142.005,361.084,141.332,360.575,140.821z
	 M367.281,121.658c-0.095,0.138-0.191,0.279-0.289,0.42C367.088,121.939,367.188,121.794,367.281,121.658L367.281,121.658z
	 M106.472,309.95c0.077-0.006,0.16-0.014,0.237-0.02C106.629,309.936,106.552,309.943,106.472,309.95
	C106.472,309.95,106.472,309.95,106.472,309.95z M121.888,327.994l-1.754,2.979l-19.49-0.59l4.218-9.726
	c0.012,0.007,0.024,0.015,0.037,0.023c0.014,0.009,0.028,0.019,0.041,0.026c0.441,0.266,0.889,0.502,1.341,0.728
	c0.032,0.016,0.063,0.036,0.096,0.052c0,0,0,0,0.001,0c0,0.001,0,0.001,0.001,0.001c0.222,0.11,0.449,0.193,0.672,0.293
	c0.339,0.152,0.677,0.315,1.019,0.444c0.568,0.215,1.137,0.397,1.701,0.549c0.007,0.003,0.017,0.005,0.024,0.008
	c0.018,0.006,0.035,0.012,0.054,0.017c0.437,0.118,0.868,0.196,1.3,0.277c1.926,0.36,3.785,0.371,5.434,0.007
	c0.999-0.208,1.914-0.551,2.726-1.021c0.069-0.034,0.127-0.067,0.19-0.108c-0.031,0.001-0.061-0.004-0.092-0.003
	c-0.588,0.018-1.171-0.044-1.737-0.213c-0.133-0.039-0.257-0.105-0.387-0.155c-0.479-0.186-0.942-0.423-1.36-0.755
	c-1.23-0.951-1.831-2.522-1.057-3.943c1.042-1.913,3.6-2.413,5.48-1.611c0.987,0.417,1.807,1.146,2.441,2.021
	c0-0.001,0-0.001,0-0.002c0.001,0.001,0.002,0.002,0.002,0.003c0.477-2.364-0.432-5.893-2.095-8.668h0
	c2.864-0.287,5.633-0.573,8.072-0.828c0.715,1.274,1.287,2.68,1.667,4.194c0.04,0.165,0.085,0.329,0.129,0.492
	c0.238,0.165,0.464,0.353,0.673,0.571c1.436,1.499,3.423,2.349,2.159,3.56c-0.284,0.271-0.711,0.536-1.212,0.769
	c1.985,5.369,3.717,9.549-1.306,10.81C128.636,328.756,125.343,328.664,121.888,327.994z M126.433,313.659
	c0.191,0.695,0.697,1.165,1.123,1.053c0.43-0.115,0.616-0.77,0.428-1.462c-0.19-0.695-0.697-1.165-1.123-1.053
	C126.431,312.312,126.241,312.967,126.433,313.659z M109.704,309.673c0.021-0.002,0.042-0.003,0.063-0.005
	c0.021-0.002,0.042-0.004,0.063-0.006C109.788,309.666,109.746,309.669,109.704,309.673z M107.867,309.833
	c0.134-0.012,0.268-0.022,0.403-0.034C108.135,309.81,108.001,309.821,107.867,309.833z M350.787,186.379
	c-7.084,2.177-15.407,5.369-15.407,5.369s-5.23,1.528-9.838,3.498c-0.449,0.191-0.896,0.386-1.327,0.585
	c-0.227-0.801-0.485-1.62-0.775-2.411c-0.886-2.429-2.032-4.617-3.233-5.332c-1.663-0.992-7.32,2.747-7.32,2.747
	s-1.783,0.607-3.107,1.807c-1.087,0.987-1.865,2.375-1.066,4.166c2.7,6.06,10.832,8.011,14.599,6.411
	c1.336,0.357,2.888,0.606,4.588,0.767c0.496,0.047,1.004,0.088,1.526,0.12c0,0,0.001,0,0.001,0c1.3,0.079,2.677,0.106,4.097,0.095
	c8.76-0.063,19.387-1.729,26.583-3.93c0.683-0.207,1.334-0.421,1.95-0.638c1.991-0.702,3.62-1.442,4.716-2.193
	c0.299-0.204,0.546-0.492,0.745-0.84c1.681-4.2-0.887-10.96-6.619-12.055c-0.042-0.008-0.085-0.014-0.128-0.021
	c-0.361-0.063-0.732-0.109-1.118-0.125c-0.634-0.026-1.557,0.099-2.667,0.323c0,0,0-0.001,0-0.001c-0.001,0-0.001,0-0.001,0
	C355.269,185.068,353.094,185.669,350.787,186.379z M197.527,301.162c-4.904,0-8.879,3.976-8.879,8.88
	c0,1.008,0.181,1.969,0.491,2.871c0.017,0.05,0.03,0.101,0.047,0.149c-3.193,2.154-6.039,4.058-6.039,4.058
	s-6.909,5.636-12.319,10.699c-1.763,1.648-3.366,3.236-4.521,4.549c0,0.001-0.001,0.001-0.002,0.002c0,0,0.002,0.001,0.001,0.002
	c-0.746,0.851-1.313,1.591-1.604,2.152c-0.178,0.345-0.324,0.69-0.449,1.037c-0.014,0.038-0.029,0.076-0.042,0.114
	c-1.903,5.518,2.684,11.106,7.163,11.74c0.403,0,0.777-0.071,1.104-0.229c1.197-0.578,2.647-1.621,4.247-3.001
	c0.495-0.425,1.004-0.885,1.524-1.374c5.487-5.149,12.216-13.541,16.627-21.109c0.565-0.97,1.083-1.92,1.565-2.854
	c0.357,0.044,0.718,0.073,1.087,0.073c2.696,0,5.107-1.206,6.735-3.103c1.334-1.554,2.145-3.568,2.145-5.776
	C206.407,305.137,202.431,301.162,197.527,301.162z"></path>
<path id="color_x5F_4" fill="#ffe755" d="M362.61,174.173H105.156c-11.316,0-20.522,10.177-20.522,22.686v14.259h443.192v-14.259
	c0-12.509-9.206-22.686-20.522-22.686H386.523c-6.845,8.832-17.304,21.963-19.012,22.443c0.002-0.005,0.003-0.011,0.005-0.016
	c-0.199,0.349-0.446,0.636-0.745,0.84c-1.096,0.751-2.725,1.491-4.716,2.193c-0.616,0.217-1.268,0.431-1.95,0.638
	c-7.196,2.201-17.823,3.867-26.583,3.93c-1.42,0.011-2.797-0.017-4.097-0.095c0-0.001-0.001,0-0.001,0
	c-0.522-0.032-1.03-0.073-1.526-0.12c-1.7-0.161-3.252-0.41-4.588-0.767c-3.767,1.6-11.898-0.351-14.599-6.411
	c-0.799-1.791-0.021-3.179,1.066-4.166c1.324-1.2,3.107-1.807,3.107-1.807s5.657-3.739,7.32-2.747
	c1.201,0.715,2.348,2.903,3.233,5.332c0.29,0.792,0.549,1.61,0.775,2.411c0.432-0.199,0.878-0.394,1.327-0.585
	c4.607-1.97,9.838-3.498,9.838-3.498s8.323-3.192,15.407-5.369c2.307-0.709,4.482-1.311,6.196-1.66c0,0,0,0,0.001,0
	c-0.001,0-0.001-0.001-0.001-0.001L362.61,174.173z"></path>
<path id="color_x5F_3" fill="#f39200" d="M190.73,167.75h-32.662l0.115-3.307l12.227,0.427c0.297-1.87,0.722-3.698,1.268-5.479
	l-11.177-4.977l3.993-8.954l11.168,4.979c0.97-1.618,2.06-3.156,3.235-4.604l-8.504-8.806l7.051-6.812l8.509,8.806
	c1.489-1.13,3.066-2.154,4.71-3.071l-4.583-11.341l9.089-3.678l4.583,11.348c2.65-0.709,5.407-1.155,8.243-1.312l1.958-12.615
	l9.688,1.509l-1.83,11.784c2.814,0.539,5.53,1.363,8.101,2.462l6.115-10.596l8.487,4.906l-6.12,10.595
	c1.502,1.134,2.92,2.366,4.25,3.693l9.639-7.539l6.041,7.729l-9.644,7.531c0.966,1.598,1.821,3.273,2.562,5.01l11.753-3.368
	l2.703,9.422l-11.762,3.368c0.15,0.954,0.261,1.918,0.341,2.891h-20.568c-1.541-9.39-9.672-16.554-19.49-16.554
	C200.398,151.196,192.269,158.36,190.73,167.75z M469.754,457.977c0,10.912-8.859,19.771-19.774,19.771
	c-10.92,0-19.774-8.859-19.774-19.771c0-1.221,0.122-2.409,0.336-3.567H397.84l-0.238,6.84l12.235,0.43
	c0.164,1.893,0.457,3.747,0.873,5.548l-11.5,4.188l3.358,9.216l11.501-4.182c0.851,1.671,1.821,3.279,2.898,4.816l-9.104,8.187
	l6.568,7.29l9.104-8.197c1.404,1.227,2.906,2.362,4.48,3.39l-5.367,11.003l8.814,4.294l5.362-10.999
	c1.76,0.606,3.571,1.097,5.434,1.458l-0.855,12.205l9.78,0.683l0.856-12.205c1.896-0.095,3.758-0.328,5.583-0.683l3.775,11.636
	l9.324-3.034l-3.78-11.633c1.712-0.795,3.346-1.711,4.916-2.734l7.87,9.38l7.511-6.3l-7.874-9.383
	c1.28-1.37,2.464-2.833,3.541-4.368l10.809,5.752l4.604-8.659l-10.805-5.749c0.669-1.736,1.214-3.526,1.636-5.371l12.179,1.281
	l1.023-9.754l-12.18-1.281c-0.017-1.033-0.092-2.051-0.189-3.063h-20.566C469.631,455.568,469.754,456.757,469.754,457.977z"></path>
<path id="color_x5F_2_1_" fill="#240C0D" d="M117.502,485.913l6.008,10.977c-8.433,3.435-15.92,6.171-19.518,7.458
	c0.001-0.344,0.002-0.688,0.003-1.036l-0.859,0.117L117.502,485.913z M101.725,505.149l1.412-1.721l-12.234,1.664l12.496,21.452
	c0,0,0.008,0.038,0.014,0.026c0.021-0.488,0.534-10.258,0.58-22.224c-1.313,0.47-2.124,0.753-2.25,0.798
	C101.729,505.148,101.725,505.149,101.725,505.149z M103.136,503.428l-1.412,1.721c0,0,0.004-0.001,0.017-0.004
	c0.127-0.045,0.937-0.328,2.25-0.798c0.001-0.344,0.002-0.688,0.003-1.036L103.136,503.428z M61.525,477.467l0.802,0.333
	c-0.177,0.302-0.351,0.595-0.526,0.893c3.755,0.703,11.601,2.116,20.617,3.403l0.347-12.509L61.525,477.467z M59.44,478.24
	l2.085-0.773l-11.4-4.732l-0.031,24.825c0,0-0.012,0.037,0,0.029c0.263-0.41,5.635-8.592,11.708-18.896
	c-1.37-0.256-2.211-0.421-2.344-0.446C59.444,478.242,59.44,478.24,59.44,478.24z M61.525,477.467l-2.085,0.773
	c0,0,0.004,0.002,0.017,0.006c0.132,0.025,0.974,0.19,2.344,0.446c0.176-0.298,0.35-0.591,0.526-0.893L61.525,477.467z
	 M367.36,111.658c1.251,0.499,2.437,1.154,3.529,1.944C369.852,112.806,368.679,112.108,367.36,111.658z M359.094,140.465
	c-0.31,0.313-0.153,0.987,0.355,1.498c0.507,0.507,1.167,0.672,1.48,0.356c0.309-0.314,0.153-0.986-0.355-1.498
	C360.069,140.31,359.407,140.149,359.094,140.465z M371.737,114.771c-0.008,0.016-0.021,0.039-0.029,0.055
	c-0.068,0.136-0.151,0.291-0.256,0.474c-0.017,0.029-0.039,0.066-0.057,0.096c-0.107,0.185-0.226,0.385-0.364,0.61
	c-0.016,0.026-0.036,0.058-0.053,0.084c-0.149,0.243-0.313,0.503-0.495,0.787c-0.01,0.017-0.022,0.035-0.032,0.051
	c-0.193,0.301-0.402,0.623-0.628,0.966c-0.006,0.009-0.012,0.018-0.018,0.027c-0.229,0.348-0.474,0.716-0.732,1.102
	c-0.02,0.029-0.041,0.061-0.061,0.09c-0.244,0.364-0.499,0.74-0.766,1.133c-0.054,0.079-0.11,0.162-0.165,0.242
	c-0.223,0.328-0.449,0.659-0.686,1.004c-0.039,0.057-0.075,0.109-0.114,0.167c-0.094,0.136-0.194,0.281-0.29,0.42
	c-0.183,0.265-0.365,0.53-0.554,0.802c-0.025,0.036-0.048,0.07-0.073,0.106c-0.058,0.083-0.119,0.17-0.177,0.253
	c-0.259,0.373-0.521,0.75-0.789,1.135c-0.001,0.001-0.002,0.003-0.003,0.004c-1.976,2.833-4.188,5.955-6.333,8.958
	c1.58,2.821,4.188,5.362,6.476,6.125c-0.33-0.739-0.54-1.527-0.569-2.324c-0.01-0.266,0-0.533,0.033-0.8
	c0.238-2.029,1.943-4,4.123-3.954c1.618,0.036,2.682,1.339,2.896,2.877c0.103,0.672,0.071,1.338-0.079,1.971
	c-0.071,0.302-0.169,0.595-0.29,0.877c-0.064,0.151-0.153,0.292-0.231,0.437c-0.067,0.126-0.123,0.257-0.2,0.378
	c0.066-0.034,0.125-0.069,0.188-0.11c0.811-0.472,1.563-1.095,2.241-1.858c1.392-1.528,2.473-3.592,3.1-5.982
	c0.011-0.029,0.018-0.057,0.02-0.082c0.148-0.564,0.272-1.148,0.369-1.747c0.038-0.237,0.051-0.485,0.08-0.726
	c0.044-0.368,0.1-0.733,0.121-1.109c0.034-0.54,0.051-1.083,0.038-1.635c0-0.029-0.004-0.063-0.006-0.092h0.001c0,0,0-0.001,0-0.002
	c-0.069-2.097-1.323-6.681-3.97-9.627c-0.454-0.506-0.967-1.025-1.523-1.527c0,0,0,0,0,0.001
	C371.857,114.51,371.808,114.627,371.737,114.771z M365.539,139.463c0.002,0,0.003,0.001,0.004,0.001
	c-0.334-0.739-0.544-1.528-0.573-2.326C364.999,137.935,365.209,138.724,365.539,139.463z M366.188,123.24
	c0.001-0.001,0.003-0.003,0.004-0.005c0.057-0.082,0.116-0.167,0.173-0.249C366.307,123.069,366.246,123.156,366.188,123.24z
	 M365.399,124.375c-0.001,0.001-0.002,0.003-0.003,0.004C365.397,124.378,365.398,124.376,365.399,124.375z M371.421,138.548
	c0.078-0.146,0.167-0.286,0.231-0.437C371.588,138.262,371.499,138.403,371.421,138.548z M377.137,129.147
	c0.038-0.237,0.051-0.485,0.08-0.726C377.188,128.662,377.176,128.909,377.137,129.147z M377.371,125.585L377.371,125.585
	c0.001,0.029,0.005,0.063,0.006,0.091c0,0,0,0.001,0,0.001C377.377,125.648,377.373,125.614,377.371,125.585z M97.757,305.046
	c-0.265,1.367-0.243,2.734-0.067,4.029C97.548,307.733,97.568,306.38,97.757,305.046z M127.555,314.712
	c0.43-0.115,0.616-0.77,0.428-1.462c-0.19-0.695-0.697-1.165-1.123-1.053c-0.43,0.115-0.62,0.77-0.428,1.462
	C126.624,314.354,127.13,314.824,127.555,314.712z M104.899,320.68c0.014,0.009,0.027,0.018,0.04,0.024
	c0.442,0.268,0.891,0.504,1.343,0.729c0.033,0.016,0.064,0.036,0.097,0.052c0.222,0.111,0.449,0.193,0.673,0.294
	c0.339,0.152,0.677,0.315,1.019,0.444c0.567,0.214,1.136,0.396,1.698,0.548c0.008,0.004,0.018,0.006,0.027,0.009
	c0.018,0.006,0.035,0.012,0.055,0.017c0.437,0.118,0.867,0.196,1.298,0.277c1.925,0.359,3.784,0.371,5.432,0.007
	c1-0.209,1.914-0.552,2.727-1.021c0.067-0.034,0.126-0.067,0.189-0.108c-0.03,0.001-0.06-0.004-0.09-0.003
	c-0.587,0.019-1.171-0.044-1.736-0.212c-0.133-0.039-0.258-0.106-0.388-0.156c-0.48-0.185-0.944-0.422-1.362-0.756
	c-1.229-0.95-1.83-2.521-1.056-3.943c1.042-1.913,3.6-2.413,5.48-1.611c0,0,0.001,0.001,0.002,0.001l0,0
	c0.986,0.416,1.807,1.146,2.441,2.02c0.477-2.363-0.433-5.891-2.094-8.665c-3.648,0.365-7.438,0.73-10.86,1.035
	c-0.021,0.002-0.044,0.004-0.065,0.006c-0.021,0.002-0.042,0.003-0.063,0.005c-0.486,0.043-0.965,0.085-1.434,0.126
	c-0.135,0.012-0.269,0.022-0.403,0.034c-0.393,0.033-0.78,0.066-1.158,0.098c-0.077,0.006-0.16,0.014-0.237,0.02
	c-0.161,0.014-0.318,0.025-0.476,0.038c-0.032,0.003-0.064,0.005-0.096,0.008c-0.163,0.013-0.325,0.026-0.484,0.038
	c-0.176,0.015-0.35,0.027-0.521,0.041c-0.038,0.003-0.076,0.006-0.114,0.009c-3.66,0.28-6.297,0.41-6.866,0.261c0,0,0,0,0,0
	c0.157,0.732,0.354,1.435,0.566,2.081c1.241,3.76,4.595,7.127,6.38,8.23c0,0,0.001,0.001,0.001,0.001l0-0.001
	C104.874,320.664,104.886,320.672,104.899,320.68z M106.377,321.486C106.377,321.486,106.377,321.486,106.377,321.486
	c-0.032-0.016-0.063-0.036-0.096-0.052C106.313,321.45,106.344,321.47,106.377,321.486z M120.345,315.272L120.345,315.272
	c0.987,0.417,1.807,1.146,2.441,2.021c0-0.001,0-0.001,0-0.002C122.152,316.419,121.331,315.688,120.345,315.272z M104.862,320.656
	L104.862,320.656c0.012,0.008,0.024,0.016,0.037,0.024C104.886,320.672,104.874,320.664,104.862,320.656z M109.85,322.798
	c0.437,0.118,0.867,0.196,1.298,0.277c-0.432-0.081-0.863-0.159-1.3-0.277c-0.019-0.005-0.036-0.011-0.054-0.017
	C109.813,322.787,109.83,322.793,109.85,322.798z M109.767,309.668c0.021-0.002,0.043-0.004,0.065-0.006c-0.001,0-0.001,0-0.002,0
	C109.809,309.664,109.787,309.666,109.767,309.668z M108.07,322.224c-0.342-0.129-0.679-0.292-1.019-0.444
	C107.39,321.932,107.728,322.095,108.07,322.224z M119.406,321.95c-0.588,0.018-1.171-0.044-1.737-0.213
	c-0.133-0.039-0.257-0.105-0.387-0.155c0.13,0.05,0.255,0.117,0.388,0.156C118.235,321.906,118.819,321.969,119.406,321.95z"></path>
<path id="color_x5F_1" fill="#d0021b" d="M263.321,299.566v16.252h-14.036v18.098h-19.453v-18.098h-25.57
	c1.334-1.554,2.145-3.568,2.145-5.776c0-4.904-3.976-8.88-8.88-8.88c-4.904,0-8.879,3.976-8.879,8.88
	c0,1.008,0.181,1.969,0.491,2.871l-4.596,2.905l-1.127-13.421l40.63-54.666h20.931l-37.675,51.835h23.147v-16.13h18.837v16.13
	H263.321z M269.232,290.824c0-28.441,15.759-44.57,36.936-44.57c21.301,0,36.938,16.129,36.938,44.57
	c0,28.441-15.637,44.569-36.938,44.569C284.991,335.393,269.232,319.265,269.232,290.824z M289.423,290.824
	c0,19.577,6.895,27.702,16.745,27.702c9.974,0,16.868-8.125,16.868-27.702c0-19.577-6.895-27.702-16.868-27.702
	C296.318,263.122,289.423,271.247,289.423,290.824z M398.262,333.916h19.453v-18.098h14.035v-16.252h-14.035v-16.13h-18.838v16.13
	H375.73l37.676-51.835h-20.931l-40.63,54.666v13.421h46.417V333.916z M216.824,387.761h19.588v-7.594h-19.588v-9.161h22.18v-7.836
	H207.12v42.191h32.667v-7.836h-22.963V387.761z M247.566,363.171h18.263c11.271,0,18.323,5.847,18.323,15.31
	c0,6.328-3.195,10.97-8.68,13.32l9.463,13.562h-10.487l-8.137-11.754h-0.482h-8.499v11.754h-9.764V363.171z M257.33,385.834h7.956
	c5.968,0,8.981-2.772,8.981-7.354c0-4.641-3.013-7.354-8.981-7.354h-7.956V385.834z M319.776,391.801l9.463,13.562h-10.487
	l-8.137-11.754h-0.482h-8.499v11.754h-9.764v-42.191h18.263c11.271,0,18.323,5.847,18.323,15.31
	C328.456,384.808,325.26,389.45,319.776,391.801z M318.57,378.48c0-4.641-3.013-7.354-8.98-7.354h-7.956v14.707h7.956
	C315.557,385.834,318.57,383.061,318.57,378.48z M379.691,384.266c0,12.598-9.824,21.818-23.085,21.818
	c-13.32,0-23.084-9.282-23.084-21.818s9.764-21.818,23.084-21.818C369.867,362.448,379.691,371.67,379.691,384.266z
	 M369.805,384.266c0-8.016-5.665-13.501-13.199-13.501s-13.199,5.485-13.199,13.501s5.665,13.501,13.199,13.501
	S369.805,392.282,369.805,384.266z M414.955,391.801l9.463,13.562H413.93l-8.137-11.754h-0.482h-8.499v11.754h-9.764v-42.191h18.263
	c11.271,0,18.322,5.847,18.322,15.31C423.634,384.808,420.439,389.45,414.955,391.801z M413.749,378.48
	c0-4.641-3.014-7.354-8.98-7.354h-7.956v14.707h7.956C410.735,385.834,413.749,383.061,413.749,378.48z M97.846,310.204
	c-0.088,0.062-0.058,0.106,0.068,0.141c0,0,0,0,0,0c0.569,0.149,3.206,0.02,6.866-0.261c0.038-0.003,0.076-0.006,0.114-0.009
	c0.171-0.013,0.346-0.026,0.521-0.041c0.16-0.012,0.32-0.024,0.484-0.038c0.032-0.002,0.064-0.005,0.096-0.008
	c0.157-0.013,0.317-0.025,0.476-0.039c0.08-0.006,0.157-0.013,0.237-0.019c0.379-0.031,0.765-0.064,1.158-0.098
	c0.134-0.012,0.268-0.022,0.403-0.034c0.47-0.041,0.947-0.082,1.434-0.126c0.042-0.004,0.084-0.007,0.126-0.011c0,0,0.001,0,0.002,0
	c3.422-0.305,7.212-0.67,10.86-1.035c0,0,0.001,0,0.001,0h0c2.864-0.287,5.633-0.573,8.072-0.828
	c5.036-0.528,8.648-0.925,8.648-0.925c1.14-0.221,1.926-1.304,1.758-2.417c-0.169-1.113-1.227-1.838-2.367-1.617l-7.683-0.8
	c-0.77-2.176-2.008-4.223-3.731-5.975c-1.914-1.946-4.191-3.313-6.619-4.092c-5.564-1.799-11.9-0.522-16.35,3.852
	c-1.834,1.804-3.153,3.942-3.942,6.223c-0.34,0.978-0.58,1.982-0.723,2.998c-0.19,1.334-0.21,2.688-0.068,4.028
	C97.73,309.452,97.779,309.827,97.846,310.204z M349.157,137.377l-3.126,7.063c-0.76,0.879-0.656,2.158,0.225,2.858
	c0.883,0.699,2.215,0.555,2.972-0.324c0,0,2.141-2.937,5.103-7.044c1.435-1.989,3.059-4.25,4.731-6.591v0
	c0.001,0,0.001-0.001,0.002-0.002c1.189-1.666,2.396-3.364,3.575-5.033c0.102-0.144,0.2-0.284,0.302-0.427
	c0.45-0.639,0.895-1.27,1.332-1.894c0.181-0.258,0.356-0.509,0.535-0.763c0.195-0.279,0.397-0.567,0.589-0.841
	c0.001-0.001,0.002-0.003,0.003-0.004c0.218-0.312,0.429-0.615,0.639-0.919c0.05-0.072,0.104-0.149,0.154-0.221
	c0.082-0.118,0.165-0.238,0.246-0.355c0.188-0.273,0.371-0.538,0.554-0.802c0.098-0.141,0.194-0.282,0.289-0.42
	c0.038-0.055,0.077-0.112,0.115-0.167c0.235-0.343,0.464-0.678,0.686-1.004c0.055-0.08,0.111-0.163,0.165-0.242
	c0.267-0.393,0.521-0.771,0.766-1.133c0.02-0.03,0.041-0.061,0.061-0.09c0.259-0.386,0.503-0.754,0.732-1.102
	c0.006-0.009,0.012-0.018,0.018-0.027c0.226-0.343,0.435-0.664,0.628-0.966c0.01-0.016,0.022-0.034,0.032-0.051
	c0.183-0.284,0.345-0.543,0.495-0.787c0.017-0.026,0.037-0.058,0.053-0.084c0.139-0.226,0.257-0.425,0.364-0.61
	c0.018-0.03,0.04-0.067,0.057-0.096c0.105-0.184,0.188-0.338,0.256-0.474c0.008-0.016,0.021-0.04,0.029-0.055
	c0.071-0.145,0.12-0.261,0.142-0.341c0,0,0,0,0-0.001c0.033-0.126,0.01-0.174-0.089-0.128c-0.291-0.245-0.594-0.475-0.901-0.698
	c-1.092-0.789-2.277-1.445-3.528-1.943c-0.953-0.38-1.944-0.672-2.961-0.863c-2.371-0.449-4.884-0.368-7.359,0.327
	c-6.008,1.685-10.265,6.547-11.471,12.27c-0.53,2.494-0.478,5.149,0.259,7.777C346.492,133.535,347.652,135.627,349.157,137.377z
	 M539.585,434.613c-4.274,4.754-8.519,7.85-13.034,11.031c-4.895,5.403-11.713,8.766-19.248,8.766h-17.318h-20.566h-38.877H397.84
	H154.103c5.159,9.2,8.609,17.812,6.507,21.9c-0.218,0.423-0.504,0.761-0.846,1.021c-5.276,6.045-22.077,13.779-36.253,19.559
	l0-0.001l-6.008-10.977l0-0.001l1.082-1.315c0,0,0.06-0.055,0.165-0.15c-9.031,0.972-23.791-0.563-36.33-2.35v-0.001l0.347-12.509
	v-0.001l1.598-0.589c0,0,14.079-3.04,24.443-4.395c-1.676-3.522-3.219-7.077-4.525-10.217
	c-14.453-0.502-26.069-13.351-26.069-29.083V217.541v-20.682c0-16.051,12.087-29.109,26.945-29.109h52.912h32.662h38.979h20.568
	h115.759l12.691-23.786l9.18-17.203l0.093-0.174c0,0,1.746-3.741,8.72-2.098c3.941,0.929,70.438,36.751,70.438,36.751
	c0.092,0.064,2.949,1.935,6.479,6.51h33.664c14.858,0,26.946,13.058,26.946,29.109v20.682v203.618
	C541.024,422.749,544.76,428.857,539.585,434.613z M527.825,196.859c0-12.509-9.206-22.686-20.522-22.686H386.523
	c-6.845,8.832-17.304,21.963-19.012,22.443c0.002-0.005,0.003-0.011,0.005-0.016c1.048-2.619,0.443-6.234-1.551-8.85
	c-0.01-0.013-0.021-0.026-0.03-0.039c-0.19-0.248-0.395-0.486-0.609-0.714c-0.015-0.015-0.029-0.029-0.043-0.043
	c-0.217-0.225-0.443-0.44-0.684-0.642c-0.016-0.013-0.032-0.024-0.048-0.037c-0.241-0.2-0.492-0.388-0.757-0.56
	c-0.024-0.016-0.05-0.029-0.074-0.044c-0.259-0.165-0.526-0.318-0.807-0.455c-0.057-0.027-0.117-0.048-0.175-0.074
	c-0.256-0.117-0.515-0.229-0.787-0.319c-0.338-0.112-0.688-0.208-1.055-0.277c-0.042-0.008-0.085-0.014-0.128-0.021
	c-0.361-0.063-0.732-0.109-1.118-0.125c-0.634-0.026-1.557,0.099-2.667,0.323c0,0,0-0.001,0-0.001c-0.001,0-0.001-0.001-0.001-0.001
	l5.627-10.545H105.156c-11.316,0-20.522,10.177-20.522,22.686v14.259h443.192V196.859z M395.337,167.75
	c-0.946-0.47-1.888-0.956-2.808-1.477c-0.041,0.075-0.433,0.607-1.087,1.477H395.337z M137.472,468.475
	c-2.541-1.731-5.013-3.518-7.277-5.203c-0.169,4.632-0.6,8.899-1.409,12.324C131.617,473.178,134.679,470.637,137.472,468.475z
	 M497.758,409.856c-2.742,7.251-3.325,15.089-3.862,22.758c-0.359,5.107-0.495,10.267-0.084,15.373h2.499
	c-0.411-5.101-0.245-10.245,0.06-15.373c0.059-0.984,0.123-1.972,0.193-2.962c0.285-3.331,0.668-6.653,1.154-9.962
	c0.548-3.125,1.302-6.205,2.427-9.177C500.711,409.018,498.315,408.378,497.758,409.856z M527.306,430.35
	c-3.036,2.682-5.9,5.56-8.946,8.256c-3.437,3.042-6.875,6.054-10.028,9.352c1.441-0.079,2.843-0.324,4.191-0.717
	c2.079-2.008,4.235-3.942,6.392-5.877c2.362-2.119,4.656-4.354,7.002-6.524C526.515,433.417,526.983,431.914,527.306,430.35z
	 M527.825,217.541H84.633v207.762c0,11.152,7.321,20.444,16.929,22.329c-0.848-2.17-1.351-3.509-1.391-3.523
	c-3.026-6.639-4.969-12.636-6.171-17.973c-2.609-5.901-2.835-9.729-2.847-9.849c0,0,1.984-75.507,3.138-79.388
	c2.042-6.868,6.156-6.522,6.156-6.522l0.197,0.006l19.49,0.59l46.171,1.397c0,0,0.002,0.001,0.001,0.002
	c-0.746,0.851-1.313,1.591-1.604,2.152c-0.178,0.345-0.324,0.69-0.449,1.037c-0.014,0.038-0.029,0.076-0.042,0.114
	c-0.123,0.353-0.213,0.703-0.285,1.052c-0.057,0.285-0.09,0.569-0.116,0.853c-0.005,0.059-0.017,0.118-0.021,0.178
	c-0.021,0.313-0.021,0.624-0.007,0.932c0.001,0.026,0,0.054,0.001,0.08c0.019,0.316,0.056,0.63,0.11,0.94
	c0.003,0.018,0.005,0.036,0.008,0.055c0.056,0.31,0.129,0.615,0.217,0.917c0.005,0.018,0.01,0.036,0.015,0.054
	c0.09,0.302,0.197,0.598,0.317,0.887c0.006,0.015,0.012,0.029,0.018,0.044c1.276,3.031,4.111,5.354,6.905,5.75
	c0.007,0.001,0.014,0.003,0.021,0.004c-1.893,1.86-38.088,6.634-38.765,6.619c-0.065,12.454-0.772,67.682-0.772,67.682
	s10.091,12.794,18.446,26.267h319.037c-6.021-4.322-11.451-7.691-16.936-13.787c-7.096-7.892,2.549-16.453,13.825-13.113
	c5.17,1.53,11.61,7.998,17.073,14.555c0.403,3.984,1.149,7.919,2.092,11.815c-2.502-2.542-5.482-4.634-8.326-6.843
	c-5.735-4.458-11.316-9.39-16.374-14.602c-1.112-1.147-2.861,0.605-1.749,1.75c4.792,4.939,10.111,9.266,15.318,13.748
	c1.391,1.197,2.861,2.296,4.316,3.404c1.024,1.016,2.031,2.049,3.048,3.072h7.149c-1.276-7.941-4.328-30.426,0.482-38.748
	c5.883-10.184,18.773-10.607,19.054,0s-2.522,17.819-3.923,28.427c-0.578,4.371-0.869,7.798-1.013,10.321h3.005
	c0.69-3.935,0.944-7.906,1.353-11.932c5.463-6.556,12.856-13.023,18.027-14.556c0.695-0.206,1.385-0.366,2.064-0.484V217.541z
	 M534.224,426.347c-0.019,0.565-0.05,1.127-0.098,1.685C534.614,427.541,534.558,426.828,534.224,426.347z"></path>
</svg>