<?xml version="1.0" standalone="no"?>
<svg version="1.1" id="Layer_1" xmlns="http://www.w3.org/2000/svg" xmlns:xlink="http://www.w3.org/1999/xlink" x="0px" y="0px" width="595.279px" height="595.279px" viewBox="0 0.001 595.279 595.279" enable-background="new 0 0.001 595.279 595.279" xml:space="preserve">
<path id="color_x5F_6" fill="#f39200" d="M188.823,205.91c-2.815,3.503-3.519,6.678-3.607,11.053
	c-2.262,0.374-4.576,0.573-6.931,0.573c-2.502,0-4.956-0.228-7.352-0.648c-0.096-4.336-0.807-7.494-3.605-10.978
	c-1.269-1.578-1.87-4.202-1.495-6.529c0.27-1.675,1.008-2.982,2.081-3.677c1.21-0.784,2.466-0.312,3.307,0.222
	c0.02,0.013,0.04,0.026,0.06,0.039c-0.813,2.038-0.373,3.659,0.366,4.537c0.536,0.636,1.26,0.915,1.888,0.723
	c0.507-0.153,0.827-0.532,0.9-1.067c0.172-1.258-0.976-3.2-2.526-4.372c0.025-0.051,0.051-0.104,0.076-0.157
	c0.024-0.037,2.44-3.644,6.087-3.609l0.003-0.254l0.003,0.254c3.669-0.027,6.063,3.572,6.073,3.584
	c0.031,0.062,0.06,0.122,0.088,0.183c-1.549,1.172-2.696,3.113-2.524,4.37c0.074,0.536,0.394,0.915,0.901,1.067
	c0.627,0.19,1.351-0.087,1.887-0.723c0.737-0.875,1.177-2.488,0.363-4.536c0.021-0.013,0.042-0.027,0.063-0.04
	c0.841-0.534,2.096-1.006,3.307-0.222c1.073,0.694,1.812,2.001,2.081,3.679C190.692,201.708,190.091,204.332,188.823,205.91z
	 M211.988,180.02c0,14.019-8.522,26.047-20.668,31.187v4.284c-1.818,0.583-3.688,1.042-5.594,1.38
	c0.097-4.21,0.79-7.279,3.492-10.642c1.354-1.685,1.997-4.469,1.601-6.928c-0.293-1.821-1.112-3.25-2.307-4.023
	c-1.12-0.727-2.487-0.648-3.851,0.216c-0.023-0.046-0.046-0.094-0.07-0.142c-0.102-0.158-2.537-3.84-6.448-3.84
	c-0.024,0-0.048,0-0.072,0v0c-3.924-0.046-6.411,3.681-6.527,3.864c-0.02,0.038-0.039,0.078-0.058,0.116
	c-1.362-0.864-2.729-0.94-3.849-0.215c-1.195,0.773-2.014,2.202-2.307,4.022c-0.395,2.46,0.248,5.244,1.601,6.929
	c2.686,3.341,3.387,6.394,3.491,10.564c-1.861-0.35-3.687-0.814-5.462-1.398v-4.188c-12.147-5.14-20.669-17.168-20.669-31.187
	c0-18.694,15.154-33.849,33.849-33.849C196.834,146.172,211.988,161.326,211.988,180.02z M162.576,164.254
	c-6.164,0-6.164,9.558,0,9.558C168.74,173.811,168.74,164.254,162.576,164.254z M177.822,154.296c-3.275,0-3.275,5.08,0,5.08
	C181.097,159.375,181.097,154.296,177.822,154.296z M391.685,153.021c-0.271-1.677-1.009-2.983-2.082-3.678
	c-1.211-0.784-2.466-0.311-3.308,0.223c-0.021,0.013-0.041,0.026-0.063,0.04c0.815,2.046,0.374,3.661-0.363,4.536
	c-0.535,0.636-1.259,0.913-1.887,0.723c-0.507-0.153-0.827-0.532-0.9-1.067c-0.173-1.257,0.976-3.199,2.524-4.371
	c-0.028-0.061-0.058-0.122-0.088-0.183c-0.011-0.012-2.404-3.611-6.073-3.584l-0.005-0.254l-0.003,0.254
	c-3.646-0.035-6.063,3.572-6.087,3.608c-0.026,0.053-0.052,0.106-0.076,0.157c1.55,1.171,2.698,3.113,2.526,4.372
	c-0.073,0.535-0.394,0.915-0.9,1.067c-0.629,0.191-1.353-0.087-1.888-0.723c-0.739-0.878-1.181-2.499-0.367-4.537
	c-0.02-0.013-0.038-0.026-0.059-0.039c-0.84-0.534-2.096-1.006-3.307-0.223c-1.073,0.695-1.813,2.001-2.081,3.677
	c-0.375,2.328,0.226,4.952,1.494,6.53c2.8,3.483,3.509,6.641,3.606,10.978c2.396,0.421,4.851,0.648,7.352,0.648
	c2.354,0,4.669-0.199,6.931-0.573c0.09-4.375,0.792-7.55,3.607-11.053C391.458,157.971,392.059,155.347,391.685,153.021z
	 M413.355,133.659c0,14.019-8.521,26.047-20.669,31.187v4.284c-1.817,0.583-3.687,1.042-5.593,1.38
	c0.096-4.21,0.79-7.28,3.492-10.643c1.354-1.685,1.997-4.468,1.602-6.928c-0.293-1.821-1.113-3.25-2.308-4.023
	c-1.12-0.727-2.488-0.648-3.851,0.216c-0.022-0.046-0.045-0.094-0.069-0.142c-0.104-0.158-2.537-3.841-6.449-3.841
	c-0.023,0-0.049,0-0.072,0v0c-3.924-0.046-6.41,3.681-6.526,3.865c-0.021,0.038-0.039,0.077-0.058,0.116
	c-1.362-0.864-2.729-0.941-3.851-0.215c-1.193,0.773-2.013,2.202-2.306,4.023c-0.396,2.459,0.248,5.244,1.601,6.928
	c2.686,3.341,3.386,6.394,3.491,10.565c-1.861-0.351-3.688-0.815-5.463-1.398v-4.188c-12.147-5.14-20.669-17.168-20.669-31.187
	c0-18.694,15.155-33.849,33.848-33.849C398.202,99.811,413.355,114.965,413.355,133.659z M363.943,117.892
	c-6.163,0-6.163,9.558,0,9.558C370.107,127.45,370.107,117.892,363.943,117.892z M379.189,107.935c-3.275,0-3.275,5.08,0,5.08
	C382.466,113.015,382.466,107.935,379.189,107.935z M441.353,372.521c-0.508-0.152-0.827-0.532-0.9-1.067
	c-0.173-1.256,0.976-3.198,2.524-4.37c-0.029-0.061-0.058-0.122-0.089-0.182c-0.01-0.013-2.404-3.61-6.073-3.585l-0.004-0.254
	l-0.002,0.254c-3.647-0.035-6.064,3.572-6.089,3.608c-0.024,0.053-0.051,0.106-0.074,0.156c1.551,1.172,2.697,3.114,2.525,4.372
	c-0.074,0.535-0.394,0.915-0.901,1.067c-0.628,0.191-1.351-0.087-1.888-0.724c-0.737-0.877-1.179-2.496-0.366-4.535
	c-0.02-0.014-0.039-0.027-0.059-0.039c-0.84-0.534-2.096-1.007-3.308-0.223c-1.072,0.694-1.811,2.001-2.081,3.678
	c-0.374,2.326,0.227,4.95,1.495,6.528c2.8,3.483,3.509,6.642,3.606,10.978c2.396,0.42,4.851,0.649,7.352,0.649
	c2.354,0,4.669-0.2,6.931-0.574c0.09-4.374,0.792-7.549,3.607-11.053c1.267-1.578,1.869-4.202,1.495-6.527
	c-0.271-1.678-1.01-2.984-2.082-3.679c-1.211-0.785-2.465-0.312-3.306,0.223c-0.022,0.012-0.043,0.026-0.064,0.041
	c0.814,2.046,0.374,3.66-0.363,4.533 M470.726,351.317c0,14.02-8.523,26.047-20.67,31.187v4.284
	c-1.818,0.584-3.688,1.041-5.593,1.382c0.097-4.212,0.79-7.282,3.492-10.645c1.354-1.684,1.996-4.467,1.602-6.927
	c-0.293-1.821-1.113-3.251-2.308-4.023c-1.12-0.727-2.488-0.647-3.852,0.216c-0.022-0.046-0.045-0.095-0.069-0.142
	c-0.104-0.158-2.536-3.84-6.448-3.84c-0.024,0-0.049,0-0.071,0l0,0c-3.925-0.045-6.411,3.681-6.527,3.864
	c-0.02,0.039-0.039,0.078-0.058,0.116c-1.362-0.862-2.73-0.941-3.852-0.215c-1.193,0.772-2.012,2.202-2.304,4.022
	c-0.397,2.461,0.246,5.244,1.599,6.928c2.687,3.343,3.387,6.394,3.492,10.566c-1.861-0.352-3.688-0.816-5.464-1.399v-4.188
	c-12.146-5.14-20.667-17.167-20.667-31.187c0-18.695,15.154-33.849,33.847-33.849C455.572,317.469,470.726,332.622,470.726,351.317z
	 M421.313,335.551c-6.163,0-6.163,9.559,0,9.559S427.476,335.551,421.313,335.551z M436.559,325.593c-3.275,0-3.275,5.08,0,5.08
	C439.836,330.673,439.836,325.593,436.559,325.593z M178.139,371.619l-14.672,25.254h29.345L178.139,371.619z M178.139,379.524
	l7.77,13.376h-15.54L178.139,379.524z M393.607,442.457l-14.672,25.255h29.344L393.607,442.457z M393.607,450.363l7.771,13.376
	h-15.54L393.607,450.363z"></path>
<path id="color_x5F_5" fill="#8b572a" d="M303.757,196.559c-0.242,0.192-0.48,0.408-0.728,0.589
	c-0.029,0.027-0.057,0.046-0.096,0.065c-2.806,2.042-5.819,3.332-8.686,3.765c-1.526,0.24-3.002,0.238-4.391-0.018
	c0.824-0.265,1.599-0.672,2.288-1.204c0.726-0.549,1.349-1.245,1.839-2.065c1.13-1.872,1.127-4.232-0.605-5.71
	c-2.325-1.979-5.931-1.348-7.994,0.644c-1.083,1.042-1.798,2.414-2.186,3.889c-2.162-3.418-2.422-8.238-0.846-13.168
	c1.081-0.461-10.076,0.527-10.963,0.635l-0.131,0.016c-0.846,2.904-1.151,6.098-0.752,9.404c0.029,0.238,0.055,0.475,0.077,0.711
	c-0.225,0.336-0.429,0.696-0.595,1.088c-1.129,2.686-3.307,4.8-1.041,5.755c0.507,0.212,1.203,0.343,1.975,0.396
	c0.099,8.037-0.071,14.392,7.149,13.517c2.265-0.274,5.056-1.239,7.97-2.696l0.462,14.836h24.479L303.757,196.559z M275.645,195.521
	c-0.622,0.067-1.195-0.698-1.296-1.703c-0.1-1.006,0.328-1.878,0.943-1.944c0.622-0.067,1.198,0.695,1.295,1.7
	C276.684,194.584,276.258,195.453,275.645,195.521z M200.989,236.512c0,2.079-0.675,3.997-1.808,5.561
	c-1.424,1.966-3.578,3.363-6.07,3.792c-0.529,0.092-1.07,0.149-1.625,0.149c-5.249,0-9.503-4.254-9.503-9.502
	c0-5.249,4.254-9.503,9.503-9.503C196.735,227.009,200.989,231.263,200.989,236.512z M389.01,189.771
	c0,3.689-2.106,6.879-5.179,8.454c-1.298,0.666-2.765,1.049-4.325,1.049c-1.313,0-2.567-0.268-3.707-0.75
	c-3.406-1.445-5.795-4.82-5.795-8.752c0-5.249,4.254-9.503,9.502-9.503C384.755,180.268,389.01,184.522,389.01,189.771z"></path>
<path id="color_x5F_4" fill="#00CEC9" d="M178.074,135.203c-1.779,0-3.222-1.442-3.222-3.222v-23.885
	c0-1.78,1.443-3.222,3.222-3.222c1.78,0,3.222,1.442,3.222,3.222v23.885C181.297,133.76,179.854,135.203,178.074,135.203z
	 M131.555,180.924c0-1.779-1.442-3.222-3.222-3.222h-23.885c-1.779,0-3.222,1.442-3.222,3.222c0,1.78,1.442,3.222,3.222,3.222
	h23.885C130.113,184.146,131.555,182.703,131.555,180.924z M141.134,146.974c0.954-1.502,0.51-3.493-0.993-4.447L119.98,129.72
	c-1.503-0.955-3.493-0.51-4.447,0.993c-0.954,1.501-0.51,3.493,0.992,4.447l20.162,12.806c0.536,0.34,1.133,0.503,1.724,0.503
	C139.477,148.469,140.52,147.94,141.134,146.974z M214.533,147.966l20.162-12.806c1.502-0.954,1.946-2.946,0.992-4.447
	c-0.954-1.502-2.944-1.948-4.447-0.993l-20.162,12.806c-1.502,0.955-1.946,2.945-0.993,4.447c0.614,0.966,1.657,1.495,2.724,1.495
	C213.4,148.469,213.998,148.306,214.533,147.966z M250.019,180.924c0-1.779-1.442-3.222-3.222-3.222h-23.885
	c-1.779,0-3.222,1.442-3.222,3.222c0,1.78,1.443,3.222,3.222,3.222h23.885C248.576,184.146,250.019,182.703,250.019,180.924z
	 M442.206,214.313h-10.657v2.165h10.657V214.313z M437.96,210.066h-2.165v10.658h2.165V210.066z M200.052,446.913h-19.25v3.911
	h19.25V446.913z M192.382,439.244h-3.91v19.251h3.91V439.244z M225.018,325.689h-21.089v4.283h21.089V325.689z M216.615,317.285
	h-4.284v21.092h4.284V317.285z"></path>
<path id="color_x5F_3" fill="#000000" d="M185.726,216.871c1.906-0.338,3.775-0.797,5.594-1.38v9.731
	c0,5.518-5.507,9.988-12.301,9.988h-1.759c-6.793,0-12.3-4.471-12.3-9.988v-9.827c1.775,0.584,3.601,1.048,5.462,1.398l0.511,0.094
	c2.396,0.421,4.85,0.648,7.352,0.648c2.354,0,4.669-0.2,6.931-0.573L185.726,216.871z M386.583,170.602
	c-2.262,0.374-4.577,0.573-6.931,0.573c-2.501,0-4.956-0.227-7.352-0.648l-0.511-0.094c-1.861-0.351-3.688-0.815-5.463-1.398v9.827
	c0,5.517,5.507,9.988,12.3,9.988h1.759c6.794,0,12.301-4.471,12.301-9.988v-9.731c-1.817,0.583-3.687,1.042-5.593,1.38
	L386.583,170.602z M437.022,388.834c-2.501,0-4.956-0.229-7.352-0.649l-0.511-0.093c-1.861-0.352-3.688-0.816-5.464-1.399v9.827
	c0,5.518,5.508,9.988,12.302,9.988h1.758c6.795,0,12.301-4.471,12.301-9.988v-9.731
	C448.238,387.372,442.738,388.834,437.022,388.834z M544.597,534.54c-38.409,0-76.816,0-115.225,0c-117.949,0-235.898,0-353.847,0
	c-2.968,0-2.968-4.604,0-4.604c7.457,0,14.913,0,22.37,0c-6.918-5.23-12.948-8.514-19.049-15.295
	c-6.843-7.611,2.459-15.869,13.334-12.646c4.987,1.476,11.198,7.714,16.467,14.038c0.388,3.842,1.108,7.638,2.018,11.396
	c-2.414-2.453-5.289-4.47-8.032-6.601c-5.531-4.298-10.915-9.057-15.792-14.083c-1.074-1.106-2.761,0.584-1.688,1.688
	c4.622,4.763,9.753,8.937,14.775,13.261c1.34,1.154,2.76,2.215,4.163,3.282c1.654,1.641,3.287,3.3,4.919,4.961
	c1.75,0,3.499,0,5.249,0c-0.818-4.669-5.022-30.45,0.131-39.37c5.676-9.82,18.107-10.23,18.378,0
	c0.27,10.23-2.433,17.187-3.784,27.418c-0.728,5.512-0.983,9.465-1.066,11.952c0.864,0,1.729,0,2.594,0
	c0.98-4.446,1.237-8.939,1.698-13.504c5.27-6.324,12.401-12.563,17.387-14.038c10.876-3.223,20.178,5.035,13.335,12.646
	c-5.945,6.609-11.822,9.893-18.52,14.896c15.445,0,30.891,0,46.337,0c93.48,0,186.961,0,280.442,0
	c-6.918-5.23-12.948-8.514-19.048-15.295c-6.844-7.611,2.458-15.869,13.334-12.646c4.987,1.476,11.197,7.714,16.468,14.038
	c0.388,3.842,1.107,7.638,2.018,11.396c-2.414-2.453-5.289-4.47-8.032-6.601c-5.53-4.298-10.914-9.057-15.791-14.083
	c-1.073-1.106-2.761,0.584-1.688,1.688c4.621,4.763,9.753,8.937,14.775,13.261c1.34,1.154,2.76,2.215,4.163,3.282
	c1.653,1.641,3.287,3.3,4.92,4.961c1.749,0,3.499,0,5.248,0c-0.818-4.669-5.022-30.45,0.131-39.37c5.677-9.82,18.107-10.23,18.379,0
	c0.27,10.23-2.434,17.187-3.784,27.418c-0.729,5.512-0.983,9.465-1.066,11.952c0.865,0,1.729,0,2.594,0
	c0.981-4.446,1.237-8.939,1.698-13.504c5.27-6.324,12.4-12.563,17.388-14.038c10.876-3.223,20.177,5.035,13.335,12.646
	c-5.945,6.609-11.823,9.893-18.521,14.896c8.961,0,17.922,0,26.883,0C547.565,529.936,547.565,534.54,544.597,534.54z
	 M130.935,529.936c1.07,0,2.139,0,3.208,0c2.785-2.955,5.826-5.666,8.856-8.386c4.761-4.271,9.23-9.03,14.487-12.7
	c1.253-0.874,0.061-2.945-1.205-2.063c-5.056,3.529-9.22,8.033-13.817,12.104C138.46,522.437,134.452,525.938,130.935,529.936z
	 M118.975,529.936c0.8,0,1.602,0,2.402,0c-0.634-5.57-0.456-11.208-0.122-16.823c0.057-0.949,0.118-1.902,0.186-2.857
	c0.275-3.212,0.645-6.416,1.114-9.608c0.528-3.015,1.256-5.985,2.34-8.852c0.545-1.442-1.764-2.061-2.303-0.635
	c-2.645,6.995-3.205,14.555-3.725,21.952C118.474,518.707,118.353,524.362,118.975,529.936z M504.234,529.936
	c1.07,0,2.139,0,3.208,0c2.784-2.955,5.825-5.666,8.855-8.386c4.761-4.271,9.229-9.03,14.487-12.7
	c1.253-0.874,0.061-2.945-1.205-2.063c-5.056,3.529-9.22,8.033-13.816,12.104C511.759,522.437,507.751,525.938,504.234,529.936z
	 M492.274,529.936c0.801,0,1.601,0,2.401,0c-0.634-5.57-0.455-11.208-0.122-16.823c0.057-0.949,0.118-1.902,0.187-2.857
	c0.274-3.212,0.644-6.416,1.114-9.608c0.526-3.015,1.256-5.985,2.34-8.852c0.546-1.442-1.764-2.061-2.304-0.635
	c-2.644,6.995-3.205,14.555-3.725,21.952C491.773,518.707,491.653,524.362,492.274,529.936z M326.769,479.607
	c1.289-1.502,2.001-3.499,2.001-5.626c0-4.111-2.769-8.273-8.065-8.273c-2.476,0-4.57,0.917-6.063,2.651
	c-1.29,1.5-2.002,3.496-2.002,5.622c0,4.112,2.771,8.277,8.064,8.277C323.179,482.259,325.278,481.341,326.769,479.607z
	 M325.118,473.981c0,1.235-0.407,2.419-1.118,3.244c-0.787,0.916-1.897,1.381-3.295,1.381c-3.483,0-4.412-2.906-4.412-4.625
	c0-1.233,0.408-2.414,1.118-3.243c0.787-0.916,1.897-1.38,3.294-1.38C324.189,469.358,325.118,472.264,325.118,473.981z"></path>
<path id="color_x5F_2" fill="#8b572a" d="M247,528.743l26.099-18.109v18.109H247z M455.289,410.838h-18.412l10.153,27.372
	L455.289,410.838z M275.293,191.875c-0.615,0.065-1.043,0.938-0.943,1.944c0.101,1.005,0.674,1.77,1.296,1.703
	c0.613-0.068,1.039-0.938,0.942-1.947C276.491,192.57,275.915,191.808,275.293,191.875z M453.921,410.838l-95.72-6.254l-3.768-10.81
	c-6.223,3.418-13.263,7.402-20.292,11.22c5.679,13.907,10.097,24.948,10.097,24.948L453.921,410.838z M273.099,420.739v108.004
	c0,0,27.5-85.292,26.185-108.805C289.038,421.044,280.389,421.2,273.099,420.739z"></path>
<path id="color_x5F_1" fill="#0984E3" d="M308.323,192.003c-0.483,0.608-0.979,1.192-1.491,1.749
	c-0.971,1.049-2.01,1.967-3.075,2.807c-0.242,0.192-0.48,0.408-0.728,0.589c-0.029,0.027-0.057,0.046-0.096,0.065
	c-2.806,2.042-5.819,3.332-8.686,3.765c-1.526,0.24-3.002,0.238-4.391-0.018c0.824-0.265,1.599-0.672,2.288-1.204
	c0.726-0.549,1.349-1.245,1.839-2.065c1.13-1.872,1.127-4.232-0.605-5.71c-2.325-1.979-5.931-1.348-7.994,0.644
	c-1.083,1.042-1.798,2.414-2.186,3.889c-2.162-3.418-2.422-8.238-0.846-13.168c1.081-0.461-10.076,0.527-10.963,0.635l-0.131,0.016
	l-0.008,0.001c-6.128,0.664-11.667-3.792-12.419-10.019c-0.757-6.265,3.633-11.959,9.816-12.705
	c4.568-0.553,8.533,2.052,13.95,1.421c1.237-0.149,2.187-0.28,2.924-0.401c3.772-0.62,2.188-0.979,6.506-1.499
	c0.216-0.027,0.434-0.054,0.641-0.071l0.063-0.007c16.694-0.589,19.542,9.992,19.891,17.19
	C312.892,183.531,310.103,189.74,308.323,192.003z M298.403,415.569c0.019-0.048,0.037-0.102,0.056-0.15
	C298.338,415.288,298.239,415.234,298.403,415.569z M298.459,415.419c-0.019,0.049-0.037,0.103-0.056,0.15
	C298.858,415.963,298.635,415.607,298.459,415.419z M387.47,386.85c0,0-15.007-2.464-23.767,1.983
	c-2.761,1.401-5.896,3.087-9.271,4.94c-6.223,3.418-13.263,7.402-20.292,11.22c-13.551,7.359-27.058,14.093-34.566,14.914
	c-0.099,0.011-0.193,0.02-0.291,0.03c-10.246,1.105-18.895,1.262-26.185,0.801c-29.948-1.895-36.909-14.231-36.909-14.231
	l22.134-136.438c-11.892,6.321-24.986,12.72-33.239,15.278c-1.714,0.927-3.59,1.305-5.374,1.147
	c-1.203,0.063-2.071-0.128-2.542-0.612c-1.292-0.535-2.44-1.395-3.315-2.566c-2.119-2.842-15.966-25.391-20.742-37.452
	c2.492-0.43,4.646-1.826,6.07-3.792c8.85,7.106,22.822,22.307,27.842,28.155c14.11-15.004,38.188-35.366,42.026-38.067
	c0.607-0.427,1.246-0.774,1.901-1.072c2.378-1.7,5.108-2.937,8.063-3.577v-8.125h39.277v8.091c0.183,0.039,0.365,0.085,0.546,0.129
	c11.249,1.196,34.051,4.26,49.855,7.973c0.904-7.246,3.865-25.917,7.107-37.057c1.14,0.483,2.394,0.75,3.707,0.75
	c1.561,0,3.027-0.383,4.325-1.049c2.425,13.211,3.258,37.601,3.069,40.989c-0.082,1.461-0.565,2.813-1.346,3.972
	c-0.125,0.663-0.742,1.301-1.778,1.914c-1.4,1.117-3.174,1.838-5.114,2.013c-8.229,2.41-22.522,4.301-35.841,5.602
	c0.295,0.626,0.588,1.26,0.878,1.907L387.47,386.85z M298.403,415.569c0.455,0.394,0.231,0.038,0.056-0.15
	C298.338,415.288,298.239,415.234,298.403,415.569z M159.76,311.119c1.108-1.292,1.72-3.008,1.72-4.836
	c0-3.536-2.381-7.115-6.935-7.115c-2.128,0-3.93,0.789-5.213,2.28c-1.108,1.289-1.72,3.005-1.72,4.835
	c0,3.534,2.382,7.116,6.934,7.116C156.673,313.399,158.477,312.609,159.76,311.119z M158.34,306.283
	c0,1.062-0.351,2.078-0.962,2.788c-0.675,0.787-1.63,1.187-2.832,1.187c-2.995,0-3.794-2.499-3.794-3.975
	c0-1.063,0.351-2.077,0.963-2.791c0.675-0.787,1.63-1.187,2.831-1.187C157.541,302.305,158.34,304.805,158.34,306.283z
	 M414.46,274.203h-23.843l11.922,20.521L414.46,274.203z M396.226,277.432h12.626l-6.313,10.867L396.226,277.432z"></path>
</svg>