<?xml version="1.0" standalone="no"?>
<svg version="1.1" id="Layer_1" xmlns="http://www.w3.org/2000/svg" xmlns:xlink="http://www.w3.org/1999/xlink" x="0px" y="0px" width="100%" height="auto" viewBox="0 0.001 595.279 595.279" enable-background="new 0 0.001 595.279 595.279" xml:space="preserve">
<path id="color_x5F_8" fill="#8F8980FF" d="M92.6,228.959v251.536h121.494V228.959H92.6z M200.731,435.812h-94.768v-50.12h94.768
	V435.812z M200.731,368.234h-94.768v-50.12h94.768V368.234z M200.731,300.656h-94.768v-50.12h94.768V300.656z M456.451,298.707
	c0,0-9.738-7.943-0.178-17.593c5.467-5.518,6.262-12.389,0-22.354c-12.663-20.153-8.842-22.957-5.332-29.801
	s4.765-12.294,0.783-23.069s-12.526-27.64,8.227-46.775s-11-64.5-11-64.5s41.152,36.158,40.152,61.158s-25.329,22.213-14.152,47.321
	c7.064,15.87,1.051,26.185-7.109,33.919c-12,11.373-6.098,13.913-1.952,24.67c5.202,13.5-0.958,21.754-7.231,25.093
	S456.451,298.707,456.451,298.707z M158.937,275.596c0,3.086-2.502,5.589-5.589,5.589s-5.589-2.503-5.589-5.589
	c0-3.088,2.502-5.59,5.589-5.59S158.937,272.509,158.937,275.596z M158.937,343.448c0,3.086-2.502,5.589-5.589,5.589
	s-5.589-2.503-5.589-5.589c0-3.088,2.502-5.59,5.589-5.59S158.937,340.36,158.937,343.448z" class="color_x5F_8 element-1"></path>
<path id="color_x5F_7" fill="#240C0D" d="M332.33,191.399c0.483,1.026-1.191,1.56-1.668,0.55c-1.207-2.562-3.824-2.844-5.442-0.482
	c-0.632,0.92-2.2,0.123-1.56-0.813c1.048-1.527,2.572-2.812,4.541-2.641C330.213,188.189,331.517,189.669,332.33,191.399z
	 M347.312,186.44c-1.996,0.304-3.202,1.868-3.901,3.646c-0.417,1.055,1.292,1.479,1.7,0.44c1.038-2.634,3.631-3.085,5.401-0.833
	c0.689,0.877,2.201-0.021,1.502-0.911C350.871,187.325,349.265,186.142,347.312,186.44z M322.503,154.629
	c-8.065,6.961-4.116,13.644-4.116,13.644c-0.229,0.65-3.279,2.238-3.431,2.916c-6.917,6.707,0.965,14.672,0.965,14.672l0.008,0.012
	l5.465,9.598l-1.593-18.411l-0.001-0.01c3.31-1.333,6.198-3.159,8.504-5.333l0.001,0.004l0.008,0.011l1.5-0.481
	c4.992,4.851,13.199,7.657,22.218,6.895c0.929-0.078,1.833-0.203,2.726-0.352l1.248,14.754l3.776-10.379l0.005-0.015l-0.76-8.448
	c0.701-0.959,0.858-1.366,2.467-3.564C367.781,161.546,340.01,139.519,322.503,154.629z M384.229,215.374l-2.604,3.516
	c-0.767,1.036-0.549,2.498,0.486,3.264c1.036,0.767,2.498,0.549,3.265-0.486l1.876-2.533
	C385.987,218.122,384.951,216.841,384.229,215.374z M406.198,189.625c-1.035-0.766-2.497-0.548-3.264,0.487l-7.025,9.487
	c1.646,0.263,3.171,0.877,4.489,1.781l6.287-8.491C407.452,191.854,407.234,190.392,406.198,189.625z M366.041,368.329l1.244,2.817
	l4.45,10.078l3.262,7.389l5.849,13.245l2.099-10.15l1.477-7.143l3.4-16.451L366.041,368.329z M311.094,480.495h27.022l-9.805-22.381
	L311.094,480.495z" class="color_x5F_7 element-2"></path>
<path id="color_x5F_6" fill="#08787D" d="M82.855,484.687c-2.703,0-2.703-4.192,0-4.192c37.622,0,75.244,0,112.866,0
	c107.262,0,214.523,0,321.784,0c2.703,0,2.703,4.192,0,4.192c-37.62,0-75.242,0-112.863,0
	C297.379,484.687,190.116,484.687,82.855,484.687L82.855,484.687z M444.273,307.421v-7.629h23.999v2.256h1.119
	c2.014,0,3.652,1.639,3.652,3.652v1.362c0,2.014-1.639,3.651-3.652,3.651h-1.715c-1.343,3.648-4.839,6.256-8.953,6.256h-4.902
	C448.548,316.969,444.273,312.694,444.273,307.421z M468.272,304.048v3.373v1.293h1.119c0.911,0,1.652-0.741,1.652-1.651V305.7
	c0-0.911-0.741-1.652-1.652-1.652H468.272z M472.72,318.114h-32.896c-1.018,0-1.843,0.825-1.843,1.844
	c0,1.018,0.825,1.843,1.843,1.843h32.896c1.018,0,1.844-0.825,1.844-1.843C474.564,318.939,473.738,318.114,472.72,318.114z
	 M138.114,434.167h0.981c-1.101-8.08-0.95-16.31-0.377-24.441c0.694-9.884,1.443-19.987,4.978-29.331
	c0.719-1.905,3.806-1.081,3.079,0.848c-1.451,3.831-2.422,7.799-3.129,11.827c-0.627,4.264-1.12,8.545-1.487,12.842
	c-0.092,1.274-0.174,2.548-0.248,3.814c-0.487,8.164-0.72,16.36,0.417,24.441h8.446c0.031-2.984,0.276-8.894,1.471-17.931
	c1.805-13.672,5.417-22.966,5.056-36.64c-0.361-13.67-16.975-13.122-24.557,0c-7.585,13.127,0,53.593,0,53.593L138.114,434.167z
	 M127.494,434.167c-2.814-2.888-5.656-5.749-8.518-8.586c-1.875-1.431-3.773-2.847-5.563-4.389
	c-6.712-5.776-13.567-11.354-19.743-17.719c-1.436-1.477,0.82-3.734,2.254-2.255c6.519,6.717,13.71,13.073,21.104,18.819
	c3.666,2.846,7.507,5.542,10.732,8.817c-1.216-5.021-2.179-10.091-2.697-15.228c-7.042-8.449-15.342-16.786-22.005-18.759
	c-14.533-4.307-26.962,6.729-17.819,16.898c8.889,9.884,17.662,14.197,27.987,22.399H127.494z M192.844,395.599
	c-3.648-1.358-8.233-1.627-13.056-0.198c-1.074,0.318-2.228,0.816-3.428,1.439c-6.249,3.24-13.902,10.232-19.808,17.321
	c-0.646,6.386-0.979,12.668-2.448,18.882c4.87-5.699,10.514-10.609,16.146-15.595c2.08-1.842,4.093-3.75,6.109-5.652
	c3.938-3.715,7.886-7.403,12.354-10.523c1.691-1.179,3.285,1.589,1.609,2.757c-5.016,3.502-9.495,7.746-13.963,11.966
	c-1.789,1.689-3.576,3.375-5.396,5.007c-4.714,4.23-9.47,8.424-13.646,13.164h12.985c2.077-1.627,4.09-3.1,6.057-4.504
	c5.794-4.137,11.174-7.656,16.484-12.548c1.59-1.464,3.174-3.049,4.762-4.814C203.715,405.508,200.188,398.334,192.844,395.599z" class="color_x5F_6 element-3"></path>
<path id="color_x5F_5" fill="#8b572a" d="M359.78,182.167l-3.776,10.379l-1.248-14.754c-0.893,0.148-1.797,0.273-2.726,0.352
	c-9.019,0.763-17.226-2.044-22.218-6.895l-1.5,0.481l-0.008-0.011c-2.308,2.174-5.193,4.006-8.504,5.339l1.593,18.411l-5.465-9.598
	c-2.086,0.07-4.01,1.395-4.739,3.482c-0.713,2.057,1.958,6.182,3.202,6.615l4.949,1.723l0.102,1.201
	c0.425,5.023,3.014,9.797,6.838,13.211c0.563,0.498,1.15,0.97,1.757,1.385c0.48,0.357,0.966,0.678,1.477,0.979l-0.404,6.99
	c0,0.001,0.001,0.002,0.003,0.004l-0.318,5.478l-0.264,4.531l-0.218,3.765c2.313,2.861,5.584,4.973,9.459,5.795
	c3.707,0.783,7.385,0.256,10.561-1.261c3.012-1.438,5.571-3.765,7.262-6.729l-0.417-1.852l-0.957-4.249l-1.616-7.169l-0.729-3.244
	c-0.001,0.002-0.001,0.002-0.001,0.002l-0.806-3.582c0-0.001,0.001-0.002,0.002-0.003c0.418-0.352,0.817-0.72,1.197-1.104
	c0.656-0.653,1.245-1.351,1.783-2.074c1.582-2.127,2.666-4.499,3.344-6.82c0.509-0.442,0.788-1.184,0.601-2.579
	c0.137-0.797,0.219-1.568,0.263-2.31c0.053-0.868,0.048-1.692-0.015-2.442l-0.111-1.314l4.346-2.395
	c2.512-1.386,3.427-4.544,2.041-7.058C363.54,183.073,361.677,182.101,359.78,182.167z M325.219,191.466
	c-0.632,0.92-2.2,0.123-1.56-0.813c1.048-1.527,2.572-2.812,4.541-2.641c2.012,0.176,3.316,1.656,4.129,3.386
	c0.483,1.026-1.191,1.56-1.668,0.55C329.455,189.387,326.838,189.105,325.219,191.466z M350.512,189.693
	c-1.771-2.252-4.363-1.801-5.401,0.833c-0.408,1.039-2.117,0.614-1.7-0.44c0.699-1.777,1.905-3.342,3.901-3.646
	c1.953-0.298,3.559,0.886,4.702,2.342C352.714,189.672,351.202,190.57,350.512,189.693z M405.218,210.51
	c0,3.866-1.986,7.264-4.99,9.242c-1.743,1.148-3.827,1.82-6.071,1.82c-0.848,0-1.669-0.104-2.462-0.285
	c-1.653-0.376-3.161-1.129-4.441-2.153c-1.266-1.012-2.302-2.293-3.023-3.76c-0.723-1.468-1.136-3.116-1.136-4.864
	c0-6.109,4.953-11.062,11.063-11.062c0.598,0,1.181,0.061,1.753,0.152c1.646,0.263,3.171,0.877,4.489,1.781
	C403.307,203.373,405.218,206.717,405.218,210.51z" class="color_x5F_5 element-4"></path>
<path id="color_x5F_3" fill="#020202FF" d="M431.414,272.162c-2.225-5.42-20.226-39.444-31.187-52.411
	c-1.743,1.148-3.827,1.82-6.071,1.82c-0.848,0-1.669-0.104-2.462-0.285c0.241,7.333,2.911,19.736,5.946,31.521
	c-7.288-10.333-14.237-19.314-16.247-21.501c-0.032-0.035-0.068-0.064-0.101-0.099c-1.93-2.571-5.225-4.267-8.968-4.267h-18.105
	l0.957,4.249l0.417,1.852c-1.69,2.965-4.25,5.291-7.262,6.729c-3.176,1.517-6.854,2.044-10.561,1.261
	c-3.875-0.822-7.146-2.934-9.459-5.795l0.218-3.765l0.264-4.531h-14.426c-0.193,0-0.382,0.017-0.572,0.025
	c-3.904-0.226-7.875,1.235-10.728,4.34c-2.572,2.799-13.236,16.727-22.345,30.376h48.183c5.087,0,9.211,4.124,9.211,9.211v43.697
	c0,4.366-3.043,8.016-7.121,8.963h34.477c3.948-1.416,6.736-4.842,6.736-8.851l6.854-49.243
	c14.108,12.016,32.162,26.028,37.229,25.065c2.519,0.504,5.207,0.3,7.761-0.748C430.949,286.945,434.244,279.058,431.414,272.162z" class="color_x5F_3 element-5"></path>
<path id="color_x5F_2" fill="#FFE755FF" d="M328.17,381.186c-0.068,2.27-0.126,4.608-0.174,7h-31.604
	c-20.29,0-36.797,27.875-36.797,62.138v30.812h-7v-30.812c0-18.17,4.375-35.304,12.32-48.244
	c8.272-13.474,19.451-20.894,31.477-20.894H328.17z M402.227,402.08c-5.018-8.173-11.109-14.103-17.807-17.515l-1.477,7.143
	c14.313,8.517,24.604,31.569,24.604,58.616v30.812h7v-30.812C414.548,432.154,410.173,415.02,402.227,402.08z M370.75,381.186
	h-9.141c-0.841,2.196-1.765,4.543-2.753,7h11.894c1.438,0,2.853,0.155,4.247,0.427l-3.262-7.389
	C371.406,381.214,371.08,381.186,370.75,381.186z M365.472,323.553h-34.477H176.36v73.287c1.2-0.623,2.354-1.121,3.428-1.439
	c4.823-1.429,9.408-1.16,13.056,0.198v-48.397h83.932h85.501h108.266v132.293h15.217V323.553H365.472z M188.714,401.273
	c-4.468,3.12-8.416,6.809-12.354,10.523v4.199c4.468-4.22,8.947-8.464,13.963-11.966
	C191.999,402.862,190.405,400.094,188.714,401.273z M176.36,434.167h16.484v-17.052c-5.311,4.892-10.69,8.411-16.484,12.548V434.167
	z" class="color_x5F_2 element-6"></path>
<path id="color_x5F_1" fill="#F39200FF" d="M328.906,261.682h-48.183h-26.324c-5.087,0-9.211,4.124-9.211,9.211v43.697
	c0,5.086,4.124,9.21,9.211,9.21h70.146h4.361c5.087,0,9.211-4.124,9.211-9.21v-43.697
	C338.117,265.806,333.993,261.682,328.906,261.682z M295.53,298.707l-3.877-2.038l-3.877,2.038l0.741-4.316l-3.137-3.058l4.334-0.63
	l1.938-3.928l1.938,3.928l4.334,0.63l-3.137,3.058L295.53,298.707z M367.285,371.146c-0.664,0.084-1.391,0.175-2.175,0.272
	c-0.862,2.688-2.062,6.011-3.501,9.768c-0.841,2.196-1.765,4.543-2.753,7c-11.19,27.845-30.544,69.928-30.544,69.928
	s-0.935-39.112-0.316-69.928c0.048-2.392,0.105-4.73,0.174-7c0.055-1.848,0.117-3.651,0.187-5.392
	c-19.027,2.135-38.011,3.999-42.324,3.486c-9.24-1.099-15.742-10.346-14.517-20.655c0.538-4.521,2.478-8.483,5.261-11.424h85.501
	c0.03,0.332,0.08,0.657,0.096,0.993c3.727,4.786,5.428,11.565,4.047,18.578c-0.082,0.418-0.213,0.946-0.38,1.556L367.285,371.146z
	 M192.844,434.167v45.328v1H90v-46.328h86.36H192.844z" class="color_x5F_1 element-7"></path>
</svg>