<?xml version="1.0" standalone="no"?>
<svg version="1.1" id="Layer_1" xmlns="http://www.w3.org/2000/svg" xmlns:xlink="http://www.w3.org/1999/xlink" x="0px" y="0px" width="595.28px" height="595.28px" viewBox="0 0 595.28 595.28" enable-background="new 0 0 595.28 595.28" xml:space="preserve">
<path id="color_x5F_9" fill="#989292" d="M583.95,211.088v25.74c-46.852,21.634-81.814,106.529-81.814,207.96
	c0,28.936,2.842,56.52,8.01,81.68H338.417c0,0,16.75-109.658,32.307-159.764C406.274,252.177,519.172,210.51,561.147,210.51h14.727
	C578.6,210.51,581.29,210.715,583.95,211.088z M228.151,379.219c-1.19-4.471-2.4-8.671-3.59-12.511
	c-3.96-12.76-8.88-24.62-14.57-35.609c-3.7-7.18-7.73-13.99-12.02-20.45c-48.141-72.41-129.591-100.141-163.83-100.141h-14.73
	c-2.729,0-5.42,0.211-8.08,0.58v25.74c46.851,21.629,81.82,106.529,81.82,207.96c0,28.931-2.84,56.521-8.01,81.681h171.729
	C256.871,526.469,242.591,432.999,228.151,379.219z"></path>
<polygon id="color_x5F_8" fill="#C1C0C0" points="417.876,406.63 402.376,334.129 357.4,123.693 389.548,123.693 300.848,68.812 
	205.724,123.693 237.95,123.693 197.965,310.648 192.856,334.539 177.425,406.63 151.795,526.469 443.485,526.469 "></polygon>
<path id="color_x5F_7" fill="#FFFFFF" d="M559.038,236.527v-5c-2.574,0-5.176,0.127-7.73,0.379l0.49,4.976
	C554.189,236.647,556.626,236.527,559.038,236.527z M169.624,398.657c-1.198-5.052-2.49-10.092-3.84-14.979l-4.819,1.332
	c1.334,4.827,2.61,9.809,3.794,14.801L169.624,398.657z M161.379,368.849c-1.581-4.959-3.265-9.888-5.006-14.646l-4.695,1.717
	c1.718,4.694,3.378,9.555,4.938,14.446L161.379,368.849z M150.728,339.781c-2.022-4.829-4.154-9.586-6.339-14.143l-4.509,2.162
	c2.147,4.479,4.245,9.16,6.234,13.911L150.728,339.781z M137.302,311.841c-2.543-4.617-5.204-9.113-7.91-13.361l-4.218,2.686
	c2.649,4.159,5.256,8.564,7.748,13.089L137.302,311.841z M120.571,285.672c-3.177-4.259-6.484-8.324-9.831-12.086l-3.735,3.324
	c3.251,3.653,6.467,7.607,9.559,11.751L120.571,285.672z M99.79,262.453c-3.958-3.619-8.053-6.935-12.171-9.855l-2.893,4.078
	c3.949,2.801,7.882,5.986,11.688,9.468L99.79,262.453z M74.178,244.455c-4.792-2.423-9.713-4.403-14.627-5.888l-1.445,4.786
	c4.635,1.399,9.283,3.271,13.816,5.563L74.178,244.455z M43.974,235.463c-2.555-0.252-5.156-0.379-7.731-0.379v5
	c2.412,0,4.849,0.12,7.242,0.355L43.974,235.463z M294.813,281.677h-5v15h5V281.677z M294.813,251.677h-5v15h5V251.677z
	 M294.813,221.677h-5v15h5V221.677z M294.813,191.677h-5v15h5V191.677z M294.813,161.677h-5v15h5V161.677z M294.813,131.677h-5v15h5
	V131.677z M434.315,381.451l-4.82-1.33c-1.354,4.903-2.646,9.943-3.839,14.979l4.865,1.151
	C431.701,391.275,432.978,386.296,434.315,381.451z M443.604,352.359l-4.695-1.717c-1.741,4.759-3.426,9.687-5.006,14.646
	l4.764,1.519C440.226,361.915,441.888,357.055,443.604,352.359z M455.401,324.239l-4.51-2.16c-2.187,4.562-4.317,9.32-6.336,14.144
	l4.61,1.931C451.153,333.407,453.25,328.727,455.401,324.239z M470.109,297.607l-4.217-2.688c-2.705,4.244-5.366,8.74-7.912,13.363
	l4.381,2.412C464.854,306.164,467.462,301.761,470.109,297.607z M488.277,273.353l-3.734-3.324
	c-3.345,3.757-6.651,7.824-9.831,12.086l4.009,2.989C481.813,280.956,485.029,277.002,488.277,273.353z M510.557,253.117
	l-2.894-4.078c-4.115,2.92-8.211,6.236-12.17,9.856l3.373,3.689C502.676,259.104,506.607,255.918,510.557,253.117z M537.177,239.795
	l-1.445-4.785c-4.914,1.483-9.836,3.465-14.628,5.888l2.256,4.462C527.893,243.067,532.541,241.195,537.177,239.795z"></path>
<path id="color_x5F_6" fill="#0D4D5E" d="M478.589,525.428c0,0-9.378-50.033,0-66.261c9.377-16.229,29.917-16.903,30.364,0
	c0.446,16.903-4.021,28.397-6.251,45.3c-1.477,11.173-1.78,18.48-1.817,22.169h-10.441c-1.408-9.99-1.118-20.126-0.519-30.218
	c0.095-1.57,0.196-3.145,0.31-4.721c0.454-5.311,1.064-10.604,1.841-15.877c0.871-4.979,2.074-9.888,3.866-14.623
	c0.899-2.384-2.915-3.402-3.808-1.048c-4.369,11.554-5.296,24.046-6.152,36.269c-0.706,10.052-0.894,20.229,0.468,30.218h-1.213
	L478.589,525.428z M524.967,505.969c7.599-6.729,14.479-14.168,22.83-19.998c2.091-1.46,4.063,1.962,1.99,3.407
	c-8.688,6.062-16.069,13.927-23.938,20.982c-5.827,5.229-9.521,10.241-14.688,16.104l13.87,0.172
	c12.397-9.711,23.013-15.087,33.76-27.033c11.306-12.573-4.063-26.218-22.032-20.896c-8.236,2.438-21.227,14.649-29.932,25.099
	c-0.799,7.896-0.004,13.76-1.823,21.442C511.028,518.201,518.005,512.132,524.967,505.969z M459.163,509.165
	c4.532,3.521,9.282,6.854,13.27,10.905c-1.502-6.209-2.69-12.479-3.334-18.828c-5.458-6.549-11.524-13.042-17.323-17.578
	l-1.37,18.381C453.286,504.487,456.208,506.869,459.163,509.165z M92.759,526.466h1.053c-1.182-8.676-1.02-17.516-0.403-26.243
	c0.743-10.613,1.55-21.462,5.345-31.496c0.771-2.046,4.087-1.16,3.305,0.909c-1.557,4.111-2.601,8.375-3.356,12.7
	c-0.676,4.578-1.203,9.177-1.6,13.786c-0.099,1.369-0.187,2.736-0.268,4.101c-0.521,8.765-0.772,17.564,0.446,26.243h9.069
	c0.033-3.203,0.297-9.551,1.579-19.253c1.938-14.682,5.816-24.661,5.429-39.343c-0.387-14.68-18.227-14.093-26.37,0
	c-8.145,14.095,0,57.545,0,57.545L92.759,526.466z M81.355,526.466c-3.021-3.103-6.07-6.172-9.146-9.222
	c-2.016-1.532-4.05-3.055-5.976-4.711c-7.206-6.205-14.566-12.19-21.198-19.024c-1.539-1.585,0.882-4.012,2.422-2.423
	c6.999,7.213,14.723,14.036,22.659,20.208c3.937,3.058,8.062,5.949,11.522,9.47c-1.305-5.394-2.338-10.837-2.896-16.354
	c-7.563-9.071-16.475-18.023-23.628-20.144c-15.606-4.622-28.953,7.228-19.136,18.146c9.545,10.61,18.967,15.244,30.054,24.052
	L81.355,526.466L81.355,526.466z M127.265,508.514c6.598-5.842,12.572-12.305,19.827-17.368c1.815-1.268,3.526,1.704,1.729,2.96
	c-7.544,5.264-13.954,12.094-20.786,18.225c-5.063,4.541-10.167,9.044-14.654,14.136h13.941
	c10.77-8.436,19.985-13.104,29.318-23.479c9.818-10.919-3.527-22.769-19.134-18.146c-7.155,2.118-17.389,11.069-24.948,20.145
	c-0.694,6.857-1.051,13.604-2.63,20.275C115.158,519.139,121.219,513.866,127.265,508.514z M356.938,371.544v-45.177v-6.909h-10.383
	v5.661v29.138h0.211c0,0.08,0.009,0.158,0.009,0.239v12.62v54.012c0,0.922-0.079,1.826-0.22,2.717c0,0,0,0,0,0.001
	c-0.598,3.813-2.433,7.301-5.16,10.174c-0.016,0.017-0.029,0.032-0.046,0.048c-0.438,0.46-0.9,0.904-1.385,1.331
	c-0.027,0.024-0.056,0.049-0.083,0.072c-0.481,0.422-0.982,0.827-1.506,1.214c-0.027,0.021-0.056,0.04-0.083,0.06
	c-0.533,0.392-1.083,0.766-1.655,1.117c-0.005,0.003-0.012,0.007-0.018,0.011c-1.15,0.707-2.378,1.332-3.668,1.869
	c-0.048,0.021-0.097,0.042-0.145,0.063c-0.603,0.247-1.221,0.471-1.85,0.677c-0.084,0.028-0.168,0.057-0.253,0.084
	c-0.615,0.195-1.242,0.369-1.879,0.524c-0.102,0.023-0.201,0.048-0.302,0.07c-0.639,0.147-1.284,0.276-1.941,0.383
	c-0.098,0.016-0.196,0.028-0.294,0.044c-0.673,0.102-1.354,0.184-2.043,0.238c-0.07,0.007-0.144,0.009-0.213,0.015
	c-0.728,0.053-1.459,0.085-2.202,0.085h-46.259c-0.743,0-1.479-0.032-2.207-0.086c-0.069-0.005-0.14-0.009-0.21-0.014
	c-0.69-0.056-1.373-0.139-2.047-0.239c-0.097-0.016-0.194-0.027-0.292-0.043c-0.657-0.106-1.306-0.234-1.943-0.384
	c-0.102-0.022-0.202-0.047-0.304-0.07c-0.637-0.155-1.263-0.33-1.877-0.525c-0.087-0.027-0.173-0.057-0.259-0.085
	c-0.627-0.206-1.243-0.43-1.844-0.676c-0.052-0.021-0.104-0.044-0.155-0.066c-1.289-0.537-2.515-1.162-3.664-1.869
	c-0.005-0.004-0.011-0.007-0.017-0.01c-0.571-0.353-1.121-0.727-1.654-1.118c-0.028-0.021-0.057-0.04-0.084-0.061
	c-0.521-0.387-1.021-0.792-1.503-1.213c-0.029-0.025-0.059-0.052-0.088-0.077c-0.481-0.426-0.941-0.868-1.379-1.326
	c-0.019-0.02-0.036-0.038-0.054-0.057c-2.726-2.877-4.557-6.367-5.148-10.185v-0.001c-0.137-0.882-0.215-1.778-0.215-2.69v-54.543
	v-12.089c0-0.081,0.006-0.159,0.008-0.238h0.207v-29.271v-5.528h-10.385v6.875v44.035c-4.307,2.281-8.132,5.285-11.29,8.852
	c-5.94,6.699-9.521,15.359-9.521,24.83v122.42h156.021V404.05C375.67,390.381,368.2,378.385,356.938,371.544z M454.696,510.596
	c-1.541-1.326-3.087-2.646-4.636-3.961l-1.175,15.761c1.822,1.335,3.676,2.73,5.577,4.24h17.642
	c-3.479-3.57-6.99-7.107-10.529-10.616C459.253,514.256,456.909,512.504,454.696,510.596z"></path>
<path id="color_x5F_5" fill="#FFD2BB" d="M333.404,254.556c-5.35,2.387-11.622-0.021-14.007-5.37l0,0
	c-2.385-5.353,0.021-11.622,5.372-14.007l11.664-5.199c5.354-2.385,11.622,0.021,14.009,5.371l0,0
	c2.386,5.352-0.021,11.623-5.373,14.008L333.404,254.556z M258.223,254.556c5.351,2.387,11.623-0.021,14.008-5.37l0,0
	c2.385-5.353-0.021-11.622-5.371-14.007l-11.663-5.199c-5.352-2.385-11.624,0.021-14.011,5.371l0,0
	c-1.811,4.062,2.916,12.913,5.373,14.008L258.223,254.556z M334.921,335.427l-77.952-0.438l10.719-35.535l9.311-30.842h38.148
	l9.406,31.792L334.921,335.427z M392.38,406.653l-9.189,119.813h63.614l0.304-4.07l1.175-15.761l0.345-4.59l1.37-18.381
	l6.715-77.058L392.38,406.653z M154.163,526.466h56.412l-9.357-119.821l-62.65-0.037L154.163,526.466z"></path>
<path id="color_x5F_3" fill="#202020" d="M267.156,441.157c-0.102-0.022-0.203-0.047-0.304-0.07
	C266.954,441.11,267.054,441.135,267.156,441.157z M338.245,435.397c-0.027,0.024-0.056,0.049-0.083,0.072
	C338.189,435.446,338.217,435.423,338.245,435.397z M269.098,441.54c0.098,0.017,0.195,0.028,0.292,0.044
	C269.293,441.568,269.196,441.556,269.098,441.54z M264.975,440.561c-0.087-0.027-0.173-0.057-0.259-0.085
	C264.802,440.505,264.888,440.533,264.975,440.561z M271.648,441.837c-0.07-0.006-0.141-0.009-0.21-0.014
	C271.507,441.828,271.578,441.831,271.648,441.837z M339.675,434.019c-0.016,0.017-0.029,0.032-0.046,0.048
	C339.646,434.052,339.66,434.035,339.675,434.019z M262.717,439.734c0.053,0.022,0.104,0.045,0.155,0.066
	C262.82,439.778,262.769,439.757,262.717,439.734z M327.107,441.088c-0.102,0.023-0.201,0.048-0.302,0.07
	C326.906,441.135,327.006,441.111,327.107,441.088z M336.656,436.684c-0.027,0.021-0.056,0.04-0.083,0.06
	C336.601,436.724,336.628,436.704,336.656,436.684z M329.239,440.479c-0.084,0.028-0.168,0.057-0.253,0.084
	C329.071,440.535,329.155,440.508,329.239,440.479z M331.232,439.74c-0.048,0.021-0.096,0.042-0.145,0.063
	C331.137,439.782,331.185,439.761,331.232,439.74z M324.57,441.585c0.098-0.016,0.196-0.028,0.294-0.045
	C324.767,441.556,324.667,441.569,324.57,441.585z M322.314,441.838c0.069-0.007,0.143-0.009,0.213-0.015
	C322.457,441.829,322.384,441.831,322.314,441.838z M334.917,437.86c-0.005,0.003-0.012,0.007-0.018,0.011
	C334.906,437.867,334.913,437.863,334.917,437.86z M259.052,437.864c-0.005-0.004-0.011-0.007-0.017-0.01
	C259.042,437.857,259.047,437.86,259.052,437.864z M254.328,434.06c-0.019-0.02-0.036-0.038-0.053-0.057
	C254.292,434.021,254.309,434.04,254.328,434.06z M255.707,435.387c0.029,0.025,0.059,0.052,0.088,0.077
	C255.765,435.438,255.736,435.412,255.707,435.387z M249.125,423.818L249.125,423.818L249.125,423.818z M257.382,436.736
	c-0.027-0.021-0.057-0.04-0.084-0.061C257.326,436.696,257.355,436.717,257.382,436.736z M344.835,423.844L344.835,423.844
	L344.835,423.844L344.835,423.844z M227.451,379.219c3.158-3.565,6.983-6.569,11.29-8.852v-44.035
	c-8.535,1.188-18.816,2.802-29.45,4.767c-5.68,1.04-11.46,2.189-17.13,3.439c-24.28,5.3-46.45,12.22-49.61,19.869
	c-5.08,12.29-3.93,52.2-3.93,52.2l38.11,0.021l24.54,0.02c1.1,20.7,7.359,119.82,7.359,119.82h9.3V404.05
	C217.931,394.579,221.51,385.919,227.451,379.219z M344.835,354.257v-29.138c-6.617-0.729-11.387-1.109-13.233-1.109h-71.73
	c-1.529,0-5.364,0.34-10.746,0.978v29.271L344.835,354.257L344.835,354.257z M451.331,354.408
	c-3.39-8.199-25.358-15.119-49.648-20.279c-16.048-3.403-33.101-6.035-46.464-7.762v45.177
	c11.263,6.842,18.732,18.837,18.732,32.506v122.42h9.3c0,0,7.841-99.12,9.19-119.82l24.74-0.02l39.59-0.021
	C456.771,406.608,456.411,366.698,451.331,354.408z"></path>
<path id="color_x5F_2" fill="#f39200" d="M337.38,227.924v28.253c0,14.436-10.826,40.638-39.74,40.638
	c-21.947,0-39.74-20.054-39.74-40.638l0.217-28.253H337.38z M297.64,199.405c-7.322,0-13.257,5.566-13.257,12.434v6.595h26.515
	v-6.595C310.898,204.973,304.961,199.405,297.64,199.405z"></path>
<path id="color_x5F_1" fill="#ffe755" d="M249.786,423.818v-69.563h95.71v69.588c0,0,0,0,0,0.001
	c-0.597,3.813-2.434,7.301-5.159,10.174c-0.017,0.017-0.03,0.032-0.046,0.048c-0.439,0.46-0.902,0.904-1.386,1.331
	c-0.026,0.024-0.056,0.049-0.083,0.072c-0.481,0.422-0.984,0.827-1.506,1.214c-0.027,0.021-0.056,0.04-0.083,0.06
	c-0.532,0.391-1.084,0.765-1.655,1.117c-0.005,0.003-0.012,0.007-0.018,0.011c-1.15,0.707-2.378,1.332-3.668,1.869
	c-0.048,0.021-0.096,0.042-0.145,0.063c-0.603,0.247-1.221,0.471-1.85,0.677c-0.084,0.028-0.168,0.057-0.253,0.084
	c-0.615,0.195-1.242,0.369-1.879,0.524c-0.102,0.023-0.201,0.048-0.302,0.07c-0.638,0.149-1.284,0.277-1.941,0.382
	c-0.098,0.017-0.196,0.029-0.294,0.045c-0.673,0.101-1.353,0.183-2.043,0.238c-0.07,0.006-0.144,0.008-0.213,0.015
	c-0.727,0.053-1.46,0.085-2.202,0.085h-46.258c-0.745,0-1.479-0.032-2.207-0.086c-0.07-0.006-0.141-0.009-0.21-0.014
	c-0.692-0.055-1.373-0.138-2.048-0.239c-0.098-0.016-0.194-0.027-0.292-0.044c-0.657-0.106-1.306-0.234-1.943-0.383
	c-0.102-0.022-0.202-0.047-0.304-0.07c-0.636-0.155-1.263-0.33-1.877-0.525c-0.087-0.027-0.173-0.057-0.259-0.085
	c-0.627-0.206-1.243-0.43-1.844-0.676c-0.052-0.021-0.104-0.044-0.155-0.066c-1.288-0.537-2.515-1.161-3.664-1.869
	c-0.006-0.004-0.012-0.007-0.017-0.01c-0.571-0.352-1.122-0.726-1.654-1.118c-0.026-0.021-0.056-0.04-0.084-0.061
	c-0.521-0.388-1.021-0.791-1.503-1.213c-0.029-0.025-0.059-0.052-0.088-0.077c-0.482-0.426-0.942-0.868-1.379-1.326
	c-0.019-0.019-0.035-0.038-0.053-0.057c-2.725-2.877-4.558-6.369-5.149-10.186l0,0H249.786z M338.82,435.47
	c-0.48,0.422-0.984,0.827-1.506,1.214C337.837,436.298,338.338,435.892,338.82,435.47z M345.494,423.845
	c-0.598,3.813-2.435,7.301-5.16,10.174C343.061,431.146,344.896,427.658,345.494,423.845z M335.558,437.871
	c-1.15,0.707-2.378,1.332-3.668,1.869C333.18,439.203,334.408,438.578,335.558,437.871z M331.747,439.802
	c-0.603,0.247-1.221,0.471-1.85,0.677C330.526,440.272,331.144,440.05,331.747,439.802z M345.713,421.128v-54.012v-12.62
	c0-0.081-0.009-0.159-0.009-0.239h-0.211v69.588C345.634,422.954,345.713,422.05,345.713,421.128z M335.576,437.86
	c0.571-0.352,1.123-0.726,1.655-1.117C336.698,437.135,336.148,437.509,335.576,437.86z M340.288,434.066
	c-0.438,0.46-0.9,0.904-1.385,1.331C339.387,434.971,339.848,434.526,340.288,434.066z M259.71,437.864
	c1.149,0.708,2.376,1.332,3.664,1.869C262.086,439.196,260.861,438.571,259.71,437.864z M259.695,437.854
	c-0.571-0.353-1.122-0.727-1.654-1.118C258.574,437.129,259.123,437.503,259.695,437.854z M256.453,435.464
	c0.481,0.422,0.982,0.825,1.503,1.213C257.434,436.289,256.934,435.885,256.453,435.464z M265.374,440.476
	c-0.626-0.206-1.243-0.43-1.844-0.676C264.131,440.047,264.747,440.27,265.374,440.476z M329.644,440.563
	c-0.615,0.195-1.242,0.369-1.879,0.524C328.402,440.932,329.029,440.759,329.644,440.563z M249.577,354.257
	c-0.002,0.08-0.008,0.158-0.008,0.239v12.089v54.543c0,0.911,0.078,1.81,0.215,2.69v-69.563L249.577,354.257L249.577,354.257z
	 M254.933,434.004c-2.725-2.877-4.558-6.368-5.149-10.185C250.375,427.636,252.207,431.127,254.933,434.004z M265.633,440.562
	c0.614,0.195,1.241,0.37,1.877,0.525C266.874,440.931,266.248,440.757,265.633,440.562z M254.986,434.06
	c0.437,0.458,0.897,0.9,1.379,1.326C255.883,434.961,255.423,434.518,254.986,434.06z M323.185,441.823
	c0.689-0.055,1.37-0.137,2.043-0.238C324.555,441.686,323.875,441.768,323.185,441.823z M320.77,441.923
	c0.742,0,1.475-0.032,2.202-0.085C322.246,441.89,321.513,441.923,320.77,441.923z M325.523,441.54
	c0.657-0.105,1.303-0.233,1.941-0.382C326.826,441.306,326.179,441.435,325.523,441.54z M272.305,441.837
	c0.728,0.054,1.463,0.086,2.207,0.086C273.768,441.923,273.033,441.89,272.305,441.837z M270.048,441.584
	c0.675,0.101,1.356,0.184,2.048,0.239C271.405,441.768,270.723,441.685,270.048,441.584z M267.814,441.157
	c0.638,0.149,1.286,0.277,1.943,0.383C269.1,441.434,268.452,441.306,267.814,441.157z M249.567,526.219h96.14v-30.114h-96.14
	V526.219z M345.674,489.511c-0.68-10.983-11.563-19.702-24.905-19.702h-46.262c-13.333,0-24.227,8.719-24.904,19.702H345.674z
	 M337.018,208.161v19.762h-79.265v-19.762c0-20.55,17.735-37.211,39.631-37.267C319.283,170.949,337.016,187.611,337.018,208.161z
	 M310.534,211.838c0-6.866-5.937-12.434-13.258-12.434c-7.322,0-13.257,5.567-13.257,12.434v6.595h26.515V211.838z"></path>
</svg>