<svg viewBox="0 0 521 145" xmlns="http://www.w3.org/2000/svg" fill-rule="evenodd" clip-rule="evenodd" stroke-miterlimit="10"><path d="M105.245 122.682h-21.17V78.079c0-2.338-.315-4.298-1.294-5.607-.94-1.258-2.592-1.992-5.324-1.992-8.847 0-11.059 6.707-11.345 7.726v44.476H43.856V50.07h22.256v5.749a35.742 35.742 0 0 1 5.881-3.08 34.572 34.572 0 0 1 13.173-2.619c4.142 0 10.956 1.478 15.753 8.037 3.151 4.309 5.416 10.806 5.416 20.51v44.015h-1.09z" fill="#fff" fill-rule="nonzero" stroke="#000" stroke-width="2"/><path d="M21.762 41.291a10.464 10.464 0 0 1-7.442-3.1 10.552 10.552 0 0 1-3.078-7.47c0-2.905 1.178-5.535 3.082-7.438a10.487 10.487 0 0 1 7.438-3.083l.009.004a10.627 10.627 0 0 1 7.429 3.115 10.441 10.441 0 0 1 3.083 7.402 10.56 10.56 0 0 1-3.077 7.472 10.473 10.473 0 0 1-7.444 3.098" fill="none"/><path d="M21.762 41.291a10.464 10.464 0 0 1-7.442-3.1 10.552 10.552 0 0 1-3.078-7.47c0-2.905 1.178-5.535 3.082-7.438a10.487 10.487 0 0 1 7.438-3.083l.009.004a10.627 10.627 0 0 1 7.429 3.115 10.441 10.441 0 0 1 3.083 7.402 10.56 10.56 0 0 1-3.077 7.472 10.473 10.473 0 0 1-7.444 3.098zm10.072 81.391H10.6V50.07h22.324v72.612h-1.09zm221.261-6.695c13.928 1.123 26.422-2.309 37.706-10.813-11.818-1.066-19.742-6.971-24.049-18.041 3.864.504 7.475.59 11.459-.443-8.091-2.113-13.977-6.552-17.665-13.696-1.902-3.682-2.835-7.621-2.761-11.965 3.579 1.85 7.233 2.995 11.304 3.14-13.907-10.268-12.642-26.729-7.599-34.365 13.91 16.397 31.544 25.418 52.98 26.924-.14-2.2-.384-4.264-.385-6.328-.01-12.557 9.787-23.585 22.24-25.161 8.285-1.048 15.435 1.347 21.504 7.008.758.706 1.394.817 2.363.598 5.185-1.171 10.048-3.14 14.95-5.945-2.018 6.063-5.615 10.513-10.571 14.004 4.797-.411 9.295-1.842 14.029-3.749-2.872 4.285-5.917 7.962-9.733 10.806-2.381 1.773-3.101 3.666-3.14 6.596-.235 17.919-6.296 33.788-17.722 47.538-10.19 12.262-23.166 20.183-38.766 23.516-19.376 4.141-37.753 1.497-54.857-8.804-.435-.262-.858-.546-1.287-.82z" fill="#fff" fill-rule="nonzero" stroke="#000" stroke-width="2"/><path d="M177.099 57.195c-11.035 0-20.178 8.957-20.178 20.114s8.985 20.114 20.178 20.114c11.193 0 20.179-9.114 20.179-20.114s-9.144-20.114-20.179-20.114zm0 32.999c-7.094 0-12.927-5.814-12.927-12.885 0-7.072 5.833-12.886 12.927-12.886 7.094 0 12.927 5.814 12.927 12.886 0 7.071-5.833 12.885-12.927 12.885z" fill="#fff" fill-rule="nonzero" stroke="#000" stroke-width="2" stroke-linejoin="round" stroke-miterlimit="1.414"/><ellipse cx="198.066" cy="56.723" rx="4.572" ry="4.557" fill="#fff" stroke="#000" stroke-width="2" stroke-linejoin="round" stroke-miterlimit="1.414"/><path d="M209.935 45.324c-4.069-4.212-9.859-6.396-16.433-6.396h-32.239c-13.616 0-22.693 9.048-22.693 22.621v31.98c0 6.708 2.191 12.48 6.573 16.693 4.226 4.056 9.86 6.084 16.277 6.084h31.926c6.73 0 12.364-2.184 16.433-6.084 4.225-4.057 6.416-9.829 6.416-16.537V61.549c0-6.553-2.191-12.169-6.26-16.225zm-.626 48.361c0 4.836-1.721 8.736-4.538 11.388-2.817 2.652-6.73 4.057-11.425 4.057H161.42c-4.696 0-8.608-1.405-11.425-4.057-2.817-2.808-4.226-6.708-4.226-11.544v-31.98c0-4.681 1.409-8.581 4.226-11.389 2.66-2.652 6.729-4.056 11.425-4.056h32.239c4.695 0 8.608 1.404 11.425 4.212 2.66 2.808 4.225 6.708 4.225 11.233v32.136zm239.179 21.875c-1.584.168-2.928.336-4.272.48-6.984.696-13.08-1.2-17.688-6.648-1.44-1.704-2.256-3.912-3.48-5.808-1.896-2.976-3.84-5.928-5.928-8.784-.72-.984-1.968-1.56-2.928-2.4-.312-.264-.408-.768-.624-1.176.432-.168.84-.456 1.272-.504 5.52-.504 9.408 2.04 12.12 6.624 3.384 5.712 8.28 8.832 14.928 8.832 1.92 0 3.84-.648 5.736-1.08.36-.096.792-.648.84-1.056.336-2.496.648-4.992 1.8-7.272.432-.84.936-1.632 1.44-2.496-1.944-.384-3.816-.672-5.664-1.128-8.52-2.16-15.552-6.432-19.632-14.544-1.584-3.168-2.472-6.576-2.592-10.128-.192-5.472-.12-10.968.984-16.368.792-3.792 2.232-7.32 5.112-10.056.624-.6.744-1.128.408-2.04-1.608-4.488-1.776-9.048-.408-13.632.288-.984.552-1.968.84-3 6.576 1.248 10.488 5.688 14.16 10.608 3.792-2.808 8.28-3.048 12.648-3.336 5.184-.336 10.392-.264 15.552.576 2.688.432 4.344.984 6.96 2.544 2.256-2.328 4.368-4.68 6.696-6.816 1.848-1.704 4.152-2.784 6.648-3.36.696-.168 1.056-.096 1.344.672 1.944 5.304 2.232 10.584.096 15.888-.288.72-.264 1.224.336 1.8 3.456 3.288 5.04 7.536 5.568 12.12.48 4.248.744 8.52.744 12.792 0 6.072-1.8 11.64-5.616 16.416-2.688 3.384-6.168 5.808-10.104 7.632-3.816 1.752-7.8 2.76-11.928 3.288-.096.024-.192.096-.36.168 2.832 4.056 3.288 8.616 3.24 13.344-.072 6.888-.048 13.752 0 20.64 0 1.08-.312 1.344-1.368 1.344-8.52-.048-17.04-.048-25.56 0-1.056 0-1.392-.336-1.392-1.368.048-3.72.024-7.44.024-11.16.048-.552.048-1.032.048-1.608z" fill="#fff" fill-rule="nonzero" stroke="#000" stroke-width="2" stroke-linejoin="round" stroke-miterlimit="1.414"/></svg>