<svg id="linkedIn" xmlns="http://www.w3.org/2000/svg" viewBox="0 0 520.92 144.2"><defs><style>.cls-1{fill:#000;stroke:#231f20;stroke-miterlimit:10;stroke-width:2px;}</style></defs><title>Artboard 1</title><g id="linkedIn-2" data-name="linkedIn"><g id="_264859024" data-name=" 264859024"><path id="_264859912" data-name=" 264859912" class="cls-1" d="M132.32,143.2H103V81.31c0-3.24-.44-6-1.79-7.78s-3.6-2.76-7.39-2.76c-12.28,0-15.35,9.3-15.74,10.72V143.2H47.14V42.45H78v8a49.14,49.14,0,0,1,8.16-4.27,48,48,0,0,1,18.27-3.63,27,27,0,0,1,21.86,11.15c4.38,6,7.52,15,7.52,28.46V143.2Z"/><path id="_264859816" data-name=" 264859816" class="cls-1" d="M16.49,30.26a14.64,14.64,0,0,1-10.32-25A14.56,14.56,0,0,1,16.49,1h0A14.68,14.68,0,0,1,26.81,5.33,14.49,14.49,0,0,1,31.09,15.6a14.61,14.61,0,0,1-14.6,14.66Z"/><path id="_264858736" data-name=" 264858736" class="cls-1" d="M30.46,143.2H1V42.45H32V143.2Z"/></g></g><g id="facebook"><path class="cls-1" d="M254.19,143.2H228.12c0-.83.12-1.67.12-2.5q0-15.88,0-31.78c0-9.68,0-19.36,0-29,0-1.49-.3-2.22-2-2.2-6.71.1-13.41.09-20.12.11V53.09c6.63,0,13.26,0,19.89.06,1.64,0,2.28-.47,2.23-2.22-.11-4.11-.21-8.24,0-12.34.28-5.21.31-10.53,1.44-15.58,2.89-12.87,13.92-21.58,27.11-21.93,5.47-.14,11-.08,16.42,0,2.34,0,4.67.48,7,.75v22c-5.48.11-11,.15-16.44.35-5.8.2-9.64,4.1-9.74,9.91-.09,5.64,0,11.28-.06,16.91,0,1.81.71,2.18,2.29,2.16,6.4,0,12.8,0,19.2,0H279c-1.06,8.3-2.08,16.3-3.13,24.58h-2.52c-5.56,0-11.12.08-16.68,0-2.1,0-2.68.59-2.68,2.7.08,20.27.05,40.53.06,60.8C254.07,141.84,254.15,142.52,254.19,143.2Z"/></g><path class="cls-1" d="M344.13,127.25c19.33,1.56,36.67-3.2,52.32-15-16.39-1.48-27.39-9.68-33.37-25A40.15,40.15,0,0,0,379,86.6c-11.22-2.93-19.39-9.09-24.51-19A34.25,34.25,0,0,1,350.64,51a36.31,36.31,0,0,0,15.69,4.36C347,41.1,348.79,18.26,355.78,7.67,375.08,30.42,399.55,42.94,429.3,45c-.2-3.05-.54-5.91-.54-8.78,0-17.42,13.58-32.72,30.86-34.91C471.12-.12,481,3.2,489.46,11.06a3.15,3.15,0,0,0,3.28.83,74.4,74.4,0,0,0,20.74-8.25,37.59,37.59,0,0,1-14.67,19.43c6.66-.57,12.9-2.56,19.47-5.2-4,5.94-8.21,11-13.51,15-3.3,2.46-4.3,5.09-4.35,9.15-.33,24.87-8.74,46.89-24.59,66A93.76,93.76,0,0,1,422,140.6c-26.89,5.75-52.39,2.08-76.12-12.21C345.32,128,344.73,127.63,344.13,127.25Z"/></svg>