<?xml version="1.0" encoding="UTF-8" standalone="no"?><!DOCTYPE svg PUBLIC "-//W3C//DTD SVG 1.1//EN" "http://www.w3.org/Graphics/SVG/1.1/DTD/svg11.dtd"><svg width="100%" height="100%" viewBox="0 0 521 145" version="1.1" xmlns="http://www.w3.org/2000/svg" xmlns:xlink="http://www.w3.org/1999/xlink" xml:space="preserve" xmlns:serif="http://www.serif.com/" style="fill-rule:evenodd;clip-rule:evenodd;stroke-miterlimit:10;"><g id="linkedIn"><path d="M132.325,143.2l-27.861,0l-1.513,0l0,-1.513l0,-60.376c0,-3.245 -0.437,-5.964 -1.796,-7.781c-1.305,-1.745 -3.596,-2.763 -7.388,-2.763c-12.275,0 -15.345,9.306 -15.741,10.719l0,61.714l-1.513,0l-27.856,0l-1.513,0l0,-1.513l0,-97.727l0,-1.513l30.882,0l0,7.977c2.066,-1.343 4.812,-2.899 8.16,-4.274c4.896,-2.011 11.072,-3.634 18.278,-3.634c5.747,0 15.203,2.051 21.858,11.151c4.373,5.979 7.516,14.994 7.516,28.46l0,61.073l-1.513,0Z" style="fill-rule:nonzero;stroke:#000;stroke-width:2px;"/><path d="M16.488,30.265c-4.029,0 -7.682,-1.641 -10.327,-4.301c-2.638,-2.652 -4.271,-6.313 -4.271,-10.366c0,-4.03 1.635,-7.679 4.277,-10.32c2.643,-2.643 6.293,-4.278 10.321,-4.278l0.012,0.006c4.03,0.038 7.675,1.688 10.309,4.322c2.642,2.642 4.277,6.274 4.277,10.27c0,4.054 -1.632,7.715 -4.27,10.368c-2.645,2.658 -6.298,4.299 -10.328,4.299" style="fill:none;"/><path d="M16.488,30.265c-4.029,0 -7.682,-1.641 -10.327,-4.301c-2.638,-2.652 -4.271,-6.313 -4.271,-10.366c0,-4.03 1.635,-7.679 4.277,-10.32c2.643,-2.643 6.293,-4.278 10.321,-4.278l0.012,0.006c4.03,0.038 7.675,1.688 10.309,4.322c2.642,2.642 4.277,6.274 4.277,10.27c0,4.054 -1.632,7.715 -4.27,10.368c-2.645,2.658 -6.298,4.299 -10.328,4.299Z" style="fill-rule:nonzero;stroke:#000;stroke-width:2px;"/><path d="M30.463,143.2l-27.95,0l-1.513,0l0,-1.513l0,-97.727l0,-1.513l30.976,0l0,100.753l-1.513,0Z" style="fill-rule:nonzero;stroke:#000;stroke-width:2px;"/><path d="M344.135,127.249c19.327,1.558 36.662,-3.204 52.32,-15.003c-16.399,-1.479 -27.393,-9.673 -33.37,-25.033c5.362,0.699 10.373,0.818 15.9,-0.615c-11.226,-2.932 -19.393,-9.091 -24.511,-19.004c-2.639,-5.109 -3.933,-10.574 -3.831,-16.602c4.966,2.567 10.037,4.156 15.685,4.357c-19.296,-14.248 -17.541,-37.088 -10.544,-47.683c19.301,22.752 43.769,35.269 73.512,37.358c-0.194,-3.052 -0.532,-5.916 -0.534,-8.78c-0.013,-17.424 13.581,-32.725 30.86,-34.912c11.495,-1.454 21.416,1.868 29.838,9.723c1.051,0.98 1.934,1.134 3.278,0.83c7.195,-1.624 13.942,-4.356 20.745,-8.249c-2.801,8.413 -7.792,14.588 -14.669,19.431c6.657,-0.57 12.898,-2.555 19.466,-5.202c-3.985,5.946 -8.209,11.048 -13.505,14.994c-3.303,2.461 -4.302,5.087 -4.356,9.153c-0.327,24.863 -8.737,46.883 -24.591,65.961c-14.139,17.015 -32.144,28.005 -53.789,32.63c-26.886,5.746 -52.385,2.077 -76.117,-12.216c-0.604,-0.364 -1.191,-0.758 -1.787,-1.138Z" style="fill-rule:nonzero;stroke:#000;stroke-width:2px;"/><path d="M238.687,45.672c-15.312,0 -27.999,12.428 -27.999,27.909c0,15.482 12.468,27.91 27.999,27.91c15.53,0 27.999,-12.646 27.999,-27.91c0,-15.263 -12.687,-27.909 -27.999,-27.909Zm0,45.789c-9.844,0 -17.937,-8.068 -17.937,-17.88c0,-9.811 8.093,-17.879 17.937,-17.879c9.843,0 17.937,8.068 17.937,17.879c0,9.812 -8.094,17.88 -17.937,17.88Z" style="fill-rule:nonzero;stroke:#000;stroke-width:2px;stroke-linejoin:round;stroke-miterlimit:1.41421;"/><ellipse cx="267.779" cy="45.018" rx="6.344" ry="6.323" style="stroke:#000;stroke-width:2px;stroke-linejoin:round;stroke-miterlimit:1.41421;"/><path d="M284.249,29.201c-5.647,-5.844 -13.681,-8.875 -22.802,-8.875l-44.734,0c-18.892,0 -31.487,12.555 -31.487,31.387l0,44.375c0,9.308 3.04,17.317 9.12,23.162c5.863,5.628 13.681,8.442 22.584,8.442l44.3,0c9.338,0 17.155,-3.031 22.801,-8.442c5.864,-5.628 8.904,-13.637 8.904,-22.945l0,-44.592c0,-9.091 -3.04,-16.884 -8.686,-22.512Zm-0.869,67.104c0,6.71 -2.389,12.122 -6.298,15.801c-3.908,3.68 -9.337,5.628 -15.852,5.628l-44.3,0c-6.514,0 -11.943,-1.948 -15.852,-5.628c-3.909,-3.896 -5.863,-9.307 -5.863,-16.018l0,-44.375c0,-6.494 1.954,-11.905 5.863,-15.801c3.692,-3.68 9.338,-5.629 15.852,-5.629l44.734,0c6.515,0 11.944,1.949 15.853,5.845c3.691,3.896 5.863,9.308 5.863,15.585l0,44.592Z" style="fill-rule:nonzero;stroke:#000;stroke-width:2px;stroke-linejoin:round;stroke-miterlimit:1.41421;"/></g></svg>