<?xml version="1.0" encoding="UTF-8" standalone="no"?><!DOCTYPE svg PUBLIC "-//W3C//DTD SVG 1.1//EN" "http://www.w3.org/Graphics/SVG/1.1/DTD/svg11.dtd"><svg width="100%" height="100%" viewBox="0 0 521 145" version="1.1" xmlns="http://www.w3.org/2000/svg" xmlns:xlink="http://www.w3.org/1999/xlink" xml:space="preserve" xmlns:serif="http://www.serif.com/" style="fill-rule:evenodd;clip-rule:evenodd;stroke-miterlimit:10;"><g id="linkedIn"><path d="M105.245,122.682l-20.079,0l-1.091,0l0,-1.09l0,-43.513c0,-2.338 -0.315,-4.298 -1.294,-5.607c-0.94,-1.258 -2.592,-1.992 -5.324,-1.992c-8.847,0 -11.059,6.707 -11.345,7.726l0,44.476l-1.09,0l-20.076,0l-1.09,0l0,-1.09l0,-70.431l0,-1.091l22.256,0l0,5.749c1.489,-0.968 3.468,-2.089 5.881,-3.08c3.528,-1.449 7.979,-2.619 13.173,-2.619c4.142,0 10.956,1.478 15.753,8.037c3.151,4.309 5.416,10.806 5.416,20.51l0,44.015l-1.09,0Z" style="fill-rule:nonzero;stroke:#000;stroke-width:2px;"/><path d="M21.762,41.291c-2.903,0 -5.536,-1.183 -7.442,-3.1c-1.902,-1.911 -3.078,-4.55 -3.078,-7.47c0,-2.905 1.178,-5.535 3.082,-7.438c1.905,-1.905 4.535,-3.083 7.438,-3.083l0.009,0.004c2.904,0.028 5.531,1.217 7.429,3.115c1.905,1.904 3.083,4.522 3.083,7.402c0,2.921 -1.176,5.56 -3.077,7.472c-1.907,1.915 -4.539,3.098 -7.444,3.098" style="fill:none;"/><path d="M21.762,41.291c-2.903,0 -5.536,-1.183 -7.442,-3.1c-1.902,-1.911 -3.078,-4.55 -3.078,-7.47c0,-2.905 1.178,-5.535 3.082,-7.438c1.905,-1.905 4.535,-3.083 7.438,-3.083l0.009,0.004c2.904,0.028 5.531,1.217 7.429,3.115c1.905,1.904 3.083,4.522 3.083,7.402c0,2.921 -1.176,5.56 -3.077,7.472c-1.907,1.915 -4.539,3.098 -7.444,3.098Z" style="fill-rule:nonzero;stroke:#000;stroke-width:2px;"/><path d="M31.834,122.682l-20.143,0l-1.091,0l0,-1.09l0,-70.431l0,-1.091l22.324,0l0,72.612l-1.09,0Z" style="fill-rule:nonzero;stroke:#000;stroke-width:2px;"/><path d="M253.095,115.987c13.928,1.123 26.422,-2.309 37.706,-10.813c-11.818,-1.066 -19.742,-6.971 -24.049,-18.041c3.864,0.504 7.475,0.59 11.459,-0.443c-8.091,-2.113 -13.977,-6.552 -17.665,-13.696c-1.902,-3.682 -2.835,-7.621 -2.761,-11.965c3.579,1.85 7.233,2.995 11.304,3.14c-13.907,-10.268 -12.642,-26.729 -7.599,-34.365c13.91,16.397 31.544,25.418 52.98,26.924c-0.14,-2.2 -0.384,-4.264 -0.385,-6.328c-0.01,-12.557 9.787,-23.585 22.24,-25.161c8.285,-1.048 15.435,1.347 21.504,7.008c0.758,0.706 1.394,0.817 2.363,0.598c5.185,-1.171 10.048,-3.14 14.95,-5.945c-2.018,6.063 -5.615,10.513 -10.571,14.004c4.797,-0.411 9.295,-1.842 14.029,-3.749c-2.872,4.285 -5.917,7.962 -9.733,10.806c-2.381,1.773 -3.101,3.666 -3.14,6.596c-0.235,17.919 -6.296,33.788 -17.722,47.538c-10.19,12.262 -23.166,20.183 -38.766,23.516c-19.376,4.141 -37.753,1.497 -54.857,-8.804c-0.435,-0.262 -0.858,-0.546 -1.287,-0.82Z" style="fill-rule:nonzero;stroke:#000;stroke-width:2px;"/><path d="M177.099,57.195c-11.035,0 -20.178,8.957 -20.178,20.114c0,11.157 8.985,20.114 20.178,20.114c11.193,0 20.179,-9.114 20.179,-20.114c0,-11 -9.144,-20.114 -20.179,-20.114Zm0,32.999c-7.094,0 -12.927,-5.814 -12.927,-12.885c0,-7.072 5.833,-12.886 12.927,-12.886c7.094,0 12.927,5.814 12.927,12.886c0,7.071 -5.833,12.885 -12.927,12.885Z" style="fill-rule:nonzero;stroke:#000;stroke-width:2px;stroke-linejoin:round;stroke-miterlimit:1.41421;"/><ellipse cx="198.066" cy="56.723" rx="4.572" ry="4.557" style="stroke:#000;stroke-width:2px;stroke-linejoin:round;stroke-miterlimit:1.41421;"/><path d="M209.935,45.324c-4.069,-4.212 -9.859,-6.396 -16.433,-6.396l-32.239,0c-13.616,0 -22.693,9.048 -22.693,22.621l0,31.98c0,6.708 2.191,12.48 6.573,16.693c4.226,4.056 9.86,6.084 16.277,6.084l31.926,0c6.73,0 12.364,-2.184 16.433,-6.084c4.225,-4.057 6.416,-9.829 6.416,-16.537l0,-32.136c0,-6.553 -2.191,-12.169 -6.26,-16.225Zm-0.626,48.361c0,4.836 -1.721,8.736 -4.538,11.388c-2.817,2.652 -6.73,4.057 -11.425,4.057l-31.926,0c-4.696,0 -8.608,-1.405 -11.425,-4.057c-2.817,-2.808 -4.226,-6.708 -4.226,-11.544l0,-31.98c0,-4.681 1.409,-8.581 4.226,-11.389c2.66,-2.652 6.729,-4.056 11.425,-4.056l32.239,0c4.695,0 8.608,1.404 11.425,4.212c2.66,2.808 4.225,6.708 4.225,11.233l0,32.136Z" style="fill-rule:nonzero;stroke:#000;stroke-width:2px;stroke-linejoin:round;stroke-miterlimit:1.41421;"/><path d="M448.488,115.56c-1.584,0.168 -2.928,0.336 -4.272,0.48c-6.984,0.696 -13.08,-1.2 -17.688,-6.648c-1.44,-1.704 -2.256,-3.912 -3.48,-5.808c-1.896,-2.976 -3.84,-5.928 -5.928,-8.784c-0.72,-0.984 -1.968,-1.56 -2.928,-2.4c-0.312,-0.264 -0.408,-0.768 -0.624,-1.176c0.432,-0.168 0.84,-0.456 1.272,-0.504c5.52,-0.504 9.408,2.04 12.12,6.624c3.384,5.712 8.28,8.832 14.928,8.832c1.92,0 3.84,-0.648 5.736,-1.08c0.36,-0.096 0.792,-0.648 0.84,-1.056c0.336,-2.496 0.648,-4.992 1.8,-7.272c0.432,-0.84 0.936,-1.632 1.44,-2.496c-1.944,-0.384 -3.816,-0.672 -5.664,-1.128c-8.52,-2.16 -15.552,-6.432 -19.632,-14.544c-1.584,-3.168 -2.472,-6.576 -2.592,-10.128c-0.192,-5.472 -0.12,-10.968 0.984,-16.368c0.792,-3.792 2.232,-7.32 5.112,-10.056c0.624,-0.6 0.744,-1.128 0.408,-2.04c-1.608,-4.488 -1.776,-9.048 -0.408,-13.632c0.288,-0.984 0.552,-1.968 0.84,-3c6.576,1.248 10.488,5.688 14.16,10.608c3.792,-2.808 8.28,-3.048 12.648,-3.336c5.184,-0.336 10.392,-0.264 15.552,0.576c2.688,0.432 4.344,0.984 6.96,2.544c2.256,-2.328 4.368,-4.68 6.696,-6.816c1.848,-1.704 4.152,-2.784 6.648,-3.36c0.696,-0.168 1.056,-0.096 1.344,0.672c1.944,5.304 2.232,10.584 0.096,15.888c-0.288,0.72 -0.264,1.224 0.336,1.8c3.456,3.288 5.04,7.536 5.568,12.12c0.48,4.248 0.744,8.52 0.744,12.792c0,6.072 -1.8,11.64 -5.616,16.416c-2.688,3.384 -6.168,5.808 -10.104,7.632c-3.816,1.752 -7.8,2.76 -11.928,3.288c-0.096,0.024 -0.192,0.096 -0.36,0.168c2.832,4.056 3.288,8.616 3.24,13.344c-0.072,6.888 -0.048,13.752 0,20.64c0,1.08 -0.312,1.344 -1.368,1.344c-8.52,-0.048 -17.04,-0.048 -25.56,0c-1.056,0 -1.392,-0.336 -1.392,-1.368c0.048,-3.72 0.024,-7.44 0.024,-11.16c0.048,-0.552 0.048,-1.032 0.048,-1.608Z" style="fill-rule:nonzero;"/></g></svg>