<svg xmlns="http://www.w3.org/2000/svg" viewBox="0 0 271 281" fill-rule="nonzero" stroke-linejoin="round" stroke-miterlimit="2" xmlns:v="https://vecta.io/nano"><path d="M10.359 248.922c-1.437 0-2.659-.237-3.668-.712s-1.778-1.211-2.311-2.208-.8-2.247-.8-3.754v-7.3H.869c-.255 0-.464-.081-.626-.243S0 234.346 0 234.114v-2.399a.85.85 0 0 1 .243-.626c.162-.161.371-.243.626-.243H3.58v-5.735c0-.255.087-.463.261-.626a.86.86 0 0 1 .608-.243H7.89a.81.81 0 0 1 .592.243c.161.163.243.371.243.626v5.735h4.345c.254 0 .463.082.626.243a.85.85 0 0 1 .243.626v2.399c0 .232-.081.429-.243.591a.85.85 0 0 1-.626.243H8.725v6.883c0 .881.161 1.57.487 2.068s.869.747 1.633.747h2.537c.255 0 .464.082.626.244a.8.8 0 0 1 .244.591v2.572a.84.84 0 0 1-.244.625c-.162.163-.371.244-.626.244h-3.023zm14.459-3.511c1.136 0 1.987-.347 2.556-1.042s.886-1.727.956-3.094l.034-1.391-.034-1.39c-.07-1.344-.389-2.369-.956-3.076s-1.42-1.061-2.556-1.061-1.992.354-2.571 1.061-.905 1.732-.974 3.076l-.034 1.39.034 1.391c.069 1.367.395 2.398.974 3.094s1.436 1.042 2.571 1.042m0 3.859c-1.923 0-3.533-.319-4.831-.956s-2.289-1.547-2.972-2.729-1.06-2.56-1.13-4.136l-.035-1.582.035-1.547c.07-1.599.463-2.983 1.182-4.154s1.726-2.073 3.024-2.711 2.873-.956 4.727-.956c1.831 0 3.396.319 4.693.956s2.306 1.541 3.025 2.711 1.124 2.555 1.217 4.154l.034 1.547-.034 1.582c-.093 1.576-.482 2.954-1.164 4.136s-1.676 2.092-2.973 2.729-2.898.956-4.798.956m16.581-11.089h6.779v-.104c0-.811-.133-1.523-.4-2.138s-.655-1.095-1.164-1.443-1.124-.521-1.843-.521-1.326.174-1.825.521-.88.83-1.147 1.443-.4 1.327-.4 2.138v.104zm3.407 11.089c-2.665 0-4.779-.742-6.344-2.225s-2.393-3.638-2.486-6.466v-1.46c.093-1.807.499-3.354 1.217-4.64a7.29 7.29 0 0 1 3.025-2.955c1.297-.683 2.815-1.025 4.553-1.025 1.97 0 3.604.4 4.901 1.199a7.63 7.63 0 0 1 2.938 3.268c.661 1.379.991 2.96.991 4.744v.8c0 .232-.082.435-.244.609s-.37.26-.625.26H41.399v.243c.023.742.162 1.42.418 2.034s.631 1.107 1.129 1.477 1.106.556 1.825.556c.557 0 1.02-.087 1.391-.26s.677-.371.922-.591.421-.411.538-.574c.208-.255.377-.411.504-.469s.318-.087.573-.087h3.685a.77.77 0 0 1 .538.208c.152.14.214.313.192.522-.024.394-.215.864-.573 1.408s-.887 1.078-1.582 1.599-1.559.956-2.59 1.303-2.219.522-3.563.522m19.918-4.693c.834 0 1.512-.186 2.033-.556s.909-.852 1.165-1.443.393-1.21.417-1.859a13.12 13.12 0 0 0 .034-1.095l-.034-1.095c-.024-.649-.163-1.263-.417-1.843s-.643-1.06-1.165-1.442-1.199-.574-2.033-.574c-.881 0-1.576.191-2.086.574s-.875.886-1.095 1.512-.353 1.309-.399 2.051c-.047.556-.047 1.101 0 1.633.046.765.179 1.461.399 2.086s.585 1.124 1.095 1.495 1.205.556 2.086.556m.174 11.992c-1.715 0-3.141-.225-4.276-.678s-2.033-.996-2.694-1.633-1.13-1.269-1.407-1.894-.43-1.125-.452-1.495c-.025-.232.057-.435.243-.608s.393-.262.626-.262h3.719c.231 0 .417.053.555.157s.255.296.349.573c.139.279.312.574.52.887s.523.574.94.782.984.313 1.703.313c.811 0 1.482-.116 2.016-.347s.932-.626 1.199-1.183.4-1.309.4-2.259v-2.329c-.556.603-1.258 1.101-2.103 1.495s-1.883.591-3.111.591c-1.206 0-2.265-.191-3.18-.574s-1.675-.926-2.278-1.633-1.066-1.559-1.389-2.556-.511-2.12-.557-3.371v-1.843c.046-1.204.231-2.305.557-3.302s.786-1.859 1.389-2.59 1.362-1.297 2.278-1.703 1.974-.608 3.18-.608c1.275 0 2.364.244 3.267.73s1.645 1.09 2.225 1.807v-1.32c0-.232.082-.435.244-.609s.358-.26.591-.26h3.406c.255 0 .464.086.625.26a.87.87 0 0 1 .244.609l.035 16.719c0 1.738-.337 3.21-1.009 4.415s-1.663 2.126-2.971 2.764-2.938.955-4.884.955m19.257-10.915c.765 0 1.448-.162 2.051-.487s1.077-.822 1.425-1.494.521-1.518.521-2.538v-.591l-3.232.522c-1.229.208-2.133.521-2.712.938s-.868.927-.868 1.529a1.68 1.68 0 0 0 .399 1.13c.266.313.613.556 1.043.73s.887.261 1.373.261m-1.391 3.615c-1.228 0-2.329-.238-3.301-.713s-1.751-1.117-2.329-1.929-.87-1.714-.87-2.711c0-1.645.666-2.943 1.999-3.893s3.087-1.599 5.266-1.947l4.554-.66v-.626c0-.904-.208-1.599-.626-2.085s-1.147-.731-2.19-.731c-.764 0-1.373.151-1.825.452a3.15 3.15 0 0 0-1.06 1.182c-.185.301-.464.452-.834.452h-3.302c-.255 0-.452-.075-.592-.226a.65.65 0 0 1-.173-.539c0-.393.151-.857.452-1.39s.765-1.06 1.39-1.582 1.431-.956 2.416-1.303 2.173-.521 3.562-.521c1.461 0 2.712.173 3.754.521s1.884.834 2.521 1.46 1.1 1.35 1.391 2.173.434 1.709.434 2.659v10.74c0 .256-.082.464-.244.626s-.358.244-.59.244h-3.441a.8.8 0 0 1-.591-.244c-.162-.162-.244-.37-.244-.626v-1.286c-.301.441-.707.852-1.217 1.234s-1.117.69-1.824.922-1.535.347-2.486.347m14.982-.347a.86.86 0 0 1-.608-.244c-.173-.161-.261-.37-.261-.625v-16.338c0-.254.088-.463.261-.626a.86.86 0 0 1 .608-.243h3.407c.255 0 .463.082.625.243s.244.372.244.626v1.356c.603-.741 1.384-1.356 2.346-1.842s2.115-.73 3.459-.73c1.367 0 2.571.307 3.615.921s1.854 1.507 2.434 2.677.868 2.589.868 4.258v9.698c0 .255-.082.464-.243.625a.85.85 0 0 1-.625.244h-3.686c-.255 0-.463-.081-.625-.244a.84.84 0 0 1-.243-.625v-9.49c0-1.228-.296-2.184-.887-2.868s-1.455-1.025-2.589-1.025c-1.09 0-1.954.342-2.59 1.025s-.956 1.64-.956 2.868v9.49c0 .255-.081.464-.243.625s-.372.244-.626.244h-3.685zm21.343 0c-.256 0-.465-.081-.626-.244a.85.85 0 0 1-.243-.625v-22.942c0-.255.081-.463.243-.626s.37-.243.626-.243h3.406c.232 0 .435.081.609.243a.82.82 0 0 1 .26.626v11.749l5.319-5.422.504-.418c.15-.116.387-.174.713-.174h3.962a.74.74 0 0 1 .539.226c.151.151.226.33.226.539 0 .093-.023.197-.07.313a.57.57 0 0 1-.242.278l-6.71 6.743 7.578 8.656c.185.186.278.371.278.556a.76.76 0 0 1-.209.539c-.139.151-.324.226-.556.226h-4.032c-.347 0-.596-.058-.747-.174l-.505-.417-6.048-6.813v6.535c0 .255-.087.464-.26.625a.86.86 0 0 1-.609.244h-3.406zm22.003-10.741h6.778v-.104c0-.811-.132-1.523-.399-2.138s-.655-1.095-1.165-1.443-1.124-.521-1.842-.521-1.327.174-1.825.521-.881.83-1.147 1.443-.4 1.327-.4 2.138v.104zm3.407 11.089c-2.666 0-4.779-.742-6.345-2.225s-2.392-3.638-2.485-6.466v-1.46c.093-1.807.498-3.354 1.217-4.64s1.727-2.271 3.024-2.955 2.816-1.025 4.554-1.025c1.97 0 3.604.4 4.901 1.199a7.63 7.63 0 0 1 2.937 3.268c.66 1.379.991 2.96.991 4.744v.8c0 .232-.081.435-.243.609a.82.82 0 0 1-.626.26h-11.332v.243c.023.742.162 1.42.418 2.034s.631 1.107 1.129 1.477 1.106.556 1.825.556c.557 0 1.02-.087 1.391-.26a3.7 3.7 0 0 0 .921-.591c.244-.22.422-.411.538-.574.209-.255.377-.411.505-.469s.318-.087.573-.087h3.684a.77.77 0 0 1 .539.208c.151.14.214.313.192.522-.024.394-.215.864-.573 1.408s-.887 1.078-1.582 1.599-1.559.956-2.59 1.303-2.22.522-3.563.522m12.479-.348c-.256 0-.465-.081-.626-.244a.84.84 0 0 1-.243-.625v-22.942c0-.255.08-.463.243-.626s.37-.243.626-.243h3.476c.254 0 .462.081.626.243a.84.84 0 0 1 .243.626v22.942c0 .255-.081.464-.243.625s-.372.244-.626.244h-3.476zm8.863 0a.86.86 0 0 1-.608-.244c-.173-.161-.261-.37-.261-.625v-16.338c0-.254.088-.463.261-.626a.86.86 0 0 1 .608-.243h3.512a.81.81 0 0 1 .59.243.85.85 0 0 1 .243.626v16.338c0 .255-.081.464-.243.625a.81.81 0 0 1-.59.244h-3.512zm-.104-20.856c-.232 0-.429-.081-.59-.244s-.244-.37-.244-.626v-2.815a.86.86 0 0 1 .244-.608c.161-.174.358-.261.59-.261h3.684c.233 0 .435.087.609.261s.26.377.26.608v2.815c0 .256-.087.464-.26.626a.86.86 0 0 1-.609.244h-3.684zm10.045-.001c-.231 0-.429-.081-.591-.244a.84.84 0 0 1-.244-.625v-2.816a.86.86 0 0 1 .244-.608.78.78 0 0 1 .591-.261h3.858c.231 0 .435.087.608.261a.83.83 0 0 1 .262.608v2.816a.81.81 0 0 1-.262.625.86.86 0 0 1-.608.244h-3.858zm-4.137 27.461c-.255 0-.463-.082-.626-.243s-.243-.371-.243-.626v-2.399c0-.232.081-.429.243-.591s.371-.243.626-.243h1.113c.625 0 1.105-.122 1.442-.365a1.77 1.77 0 0 0 .678-.991c.117-.417.174-.881.174-1.39v-16.963c0-.255.081-.463.244-.626a.8.8 0 0 1 .59-.243h3.65c.255 0 .463.081.626.243s.243.371.243.626v17.067c0 1.414-.272 2.625-.817 3.633s-1.344 1.778-2.398 2.312-2.358.799-3.912.799h-1.633zm13.314-6.604c-.256 0-.465-.081-.626-.244a.85.85 0 0 1-.243-.625v-22.942c0-.255.081-.463.243-.626s.37-.243.626-.243h3.406c.232 0 .435.081.609.243a.82.82 0 0 1 .26.626v11.749l5.319-5.422.504-.418c.15-.116.387-.174.713-.174h3.962a.74.74 0 0 1 .539.226c.15.151.225.33.225.539a.84.84 0 0 1-.069.313.57.57 0 0 1-.242.278l-6.71 6.743 7.578 8.656c.185.186.278.371.278.556 0 .209-.07.389-.209.539s-.324.226-.556.226h-4.032c-.347 0-.596-.058-.747-.174l-.505-.417-6.048-6.813v6.535c0 .255-.087.464-.26.625a.86.86 0 0 1-.609.244h-3.406zm19.013 0c-.256 0-.464-.081-.626-.244s-.243-.37-.243-.625v-22.942c0-.255.081-.463.243-.626s.37-.243.626-.243h3.754c.255 0 .463.081.626.243s.243.371.243.626v7.821a6.55 6.55 0 0 1 2.277-1.773c.915-.44 2.01-.66 3.285-.66 1.367 0 2.578.307 3.632.921s1.877 1.507 2.468 2.677.887 2.589.887 4.258v9.698c0 .255-.082.464-.244.625a.85.85 0 0 1-.625.244h-3.789a.8.8 0 0 1-.591-.244.84.84 0 0 1-.243-.625v-9.49c0-1.228-.302-2.184-.904-2.868s-1.461-1.025-2.573-1.025c-1.089 0-1.958.342-2.606 1.025s-.974 1.64-.974 2.868v9.49c0 .255-.081.464-.243.625s-.371.244-.626.244h-3.754zm25.305-10.741h6.778v-.104c0-.811-.133-1.523-.399-2.138s-.655-1.095-1.165-1.443-1.124-.521-1.842-.521-1.327.174-1.825.521-.881.83-1.147 1.443-.4 1.327-.4 2.138v.104zm3.407 11.089c-2.666 0-4.78-.742-6.345-2.225s-2.392-3.638-2.485-6.466v-1.46c.093-1.807.498-3.354 1.217-4.64s1.727-2.271 3.024-2.955 2.816-1.025 4.554-1.025c1.97 0 3.603.4 4.901 1.199s2.277 1.889 2.937 3.268.991 2.96.991 4.744v.8c0 .232-.081.435-.243.609a.82.82 0 0 1-.626.26h-11.332v.243c.023.742.162 1.42.418 2.034s.631 1.107 1.129 1.477 1.106.556 1.825.556c.556 0 1.019-.087 1.391-.26s.677-.371.921-.591.422-.411.538-.574c.209-.255.377-.411.505-.469s.318-.087.573-.087h3.684a.77.77 0 0 1 .539.208c.151.14.214.313.192.522-.025.394-.215.864-.573 1.408s-.887 1.078-1.583 1.599-1.558.956-2.589 1.303-2.22.522-3.563.522m12.444-.348a.86.86 0 0 1-.608-.244c-.174-.161-.261-.37-.261-.625v-16.338a.82.82 0 0 1 .261-.626c.173-.161.376-.243.608-.243h3.511a.81.81 0 0 1 .591.243c.161.163.243.372.243.626v16.338c0 .255-.082.464-.243.625a.81.81 0 0 1-.591.244h-3.511zm-.104-20.856a.8.8 0 0 1-.591-.244c-.163-.162-.243-.37-.243-.626v-2.815a.86.86 0 0 1 .243-.608c.162-.174.358-.261.591-.261h3.684a.83.83 0 0 1 .608.261c.174.173.261.377.261.608v2.815c0 .256-.087.464-.261.626a.86.86 0 0 1-.608.244h-3.684zm16.441 17.032c.856 0 1.547-.197 2.068-.591a3.47 3.47 0 0 0 1.147-1.494c.243-.602.377-1.252.4-1.947.046-.44.07-.881.07-1.321s-.024-.869-.07-1.286c-.023-.649-.168-1.257-.434-1.825s-.656-1.037-1.165-1.408-1.182-.556-2.016-.556c-.881 0-1.576.191-2.086.573s-.875.887-1.095 1.513-.353 1.309-.399 2.05a16.5 16.5 0 0 0 0 2.156 7.58 7.58 0 0 0 .399 2.051c.22.625.585 1.129 1.095 1.511s1.205.574 2.086.574m-1.599 4.171c-1.159 0-2.19-.191-3.093-.573s-1.669-.939-2.295-1.669-1.101-1.599-1.425-2.607-.522-2.126-.591-3.354l-.034-1.199.034-1.165c.046-1.205.237-2.306.573-3.302s.811-1.86 1.426-2.59a6.27 6.27 0 0 1 2.294-1.703c.916-.406 1.952-.608 3.111-.608 1.204 0 2.237.203 3.094.608s1.564.921 2.12 1.547v-7.543c0-.255.08-.464.243-.626s.371-.243.626-.243h3.58c.255 0 .463.081.626.243s.244.371.244.626v22.942c0 .255-.081.463-.244.625a.85.85 0 0 1-.626.244h-3.336a.8.8 0 0 1-.591-.244c-.162-.162-.244-.37-.244-.625v-1.182c-.58.695-1.31 1.269-2.19 1.721s-1.981.677-3.302.677M79.954 278.634c1.136 0 2.042-.362 2.721-1.085s1.044-1.782 1.098-3.174l.028-1.044-.028-1.044c-.054-1.392-.422-2.449-1.098-3.173s-1.585-1.085-2.721-1.085-2.047.361-2.733 1.085-1.049 1.781-1.085 3.173l-.029 1.044.029 1.044c.036 1.392.398 2.45 1.085 3.174s1.597 1.085 2.733 1.085m0 2.116c-1.393 0-2.555-.266-3.489-.797a5.36 5.36 0 0 1-2.143-2.212c-.494-.943-.769-2.02-.824-3.229l-.028-1.195.028-1.167c.055-1.227.334-2.308.838-3.242s1.222-1.667 2.156-2.198 2.088-.797 3.462-.797 2.527.266 3.462.797a5.47 5.47 0 0 1 2.157 2.198c.505.935.783 2.015.837 3.242l.028 1.167-.028 1.195c-.054 1.209-.329 2.286-.823 3.229a5.36 5.36 0 0 1-2.144 2.212c-.933.531-2.096.797-3.489.797m18.793-.275a.61.61 0 0 1-.454-.179c-.118-.119-.179-.27-.179-.453V266.82c0-.183.061-.334.179-.453a.61.61 0 0 1 .454-.179h1.291a.61.61 0 0 1 .453.179c.119.119.179.27.179.453v1.209c.476-.622 1.076-1.131 1.8-1.525s1.652-.591 2.789-.591c1.19 0 2.202.261 3.036.783s1.465 1.246 1.895 2.171.646 2.001.646 3.228v7.748c0 .183-.061.334-.179.453a.61.61 0 0 1-.453.179h-1.374a.61.61 0 0 1-.453-.179c-.119-.119-.179-.27-.179-.453v-7.611c0-1.281-.311-2.284-.934-3.008s-1.538-1.085-2.747-1.085c-1.136 0-2.047.361-2.735 1.085s-1.03 1.727-1.03 3.008v7.611c0 .183-.059.334-.178.453s-.271.179-.454.179h-1.373zm24.919 0a.61.61 0 0 1-.632-.632V261.6c0-.184.059-.334.179-.454a.61.61 0 0 1 .453-.178h1.292c.201 0 .356.059.467.178s.165.27.165.454v18.243c0 .183-.056.334-.165.453s-.266.179-.467.179h-1.292zm14.891 0c-.184 0-.335-.059-.453-.179a.62.62 0 0 1-.18-.453V266.82c0-.183.061-.334.18-.453s.269-.179.453-.179h1.319c.183 0 .334.059.452.179a.61.61 0 0 1 .18.453v13.023a.61.61 0 0 1-.18.453c-.118.12-.269.179-.452.179h-1.319zm-.22-16.952a.61.61 0 0 1-.632-.632v-1.483a.66.66 0 0 1 .179-.468.59.59 0 0 1 .453-.192h1.731c.182 0 .339.064.467.192a.64.64 0 0 1 .192.468v1.483c0 .183-.065.334-.192.453a.66.66 0 0 1-.467.179h-1.731zm15.112 16.952a.61.61 0 0 1-.454-.179c-.119-.119-.179-.27-.179-.453V266.82c0-.183.06-.334.179-.453a.61.61 0 0 1 .454-.179h1.291a.61.61 0 0 1 .453.179c.119.119.179.27.179.453v1.209a5.59 5.59 0 0 1 1.8-1.525c.722-.394 1.652-.591 2.789-.591 1.19 0 2.202.261 3.036.783s1.464 1.246 1.894 2.171.646 2.001.646 3.228v7.748c0 .183-.06.334-.178.453a.61.61 0 0 1-.453.179h-1.374c-.184 0-.335-.059-.453-.179a.62.62 0 0 1-.18-.453v-7.611c0-1.281-.311-2.284-.933-3.008s-1.539-1.085-2.747-1.085c-1.136 0-2.047.361-2.735 1.085s-1.03 1.727-1.03 3.008v7.611c0 .183-.059.334-.178.453s-.271.179-.454.179h-1.373zm26.211-8.187h7.527v-.083c0-.824-.151-1.556-.454-2.198a3.66 3.66 0 0 0-1.304-1.525c-.568-.375-1.246-.563-2.034-.563s-1.461.188-2.019.563-.985.885-1.278 1.525-.438 1.374-.438 2.198v.083zm3.764 8.462c-1.906 0-3.416-.581-4.535-1.745s-1.73-2.752-1.84-4.767c-.019-.237-.028-.544-.028-.92l.028-.92c.073-1.3.375-2.441.907-3.421s1.259-1.735 2.184-2.267 2.01-.796 3.255-.796c1.393 0 2.56.293 3.503.879s1.662 1.42 2.158 2.5.742 2.345.742 3.791v.468c0 .202-.061.357-.179.467a.64.64 0 0 1-.453.165h-9.506v.247c.035.751.2 1.452.494 2.102s.719 1.177 1.277 1.58 1.213.604 1.964.604c.661 0 1.21-.1 1.649-.302s.797-.426 1.072-.673.457-.444.549-.591c.165-.22.293-.352.385-.399s.238-.068.44-.068h1.346a.64.64 0 0 1 .426.151c.119.101.169.243.151.426-.019.275-.165.609-.44 1.003s-.665.783-1.167 1.168-1.126.7-1.869.947-1.58.371-2.513.371"/><path d="M237.368 101.683C237.368 45.613 191.741 0 135.686 0 79.616 0 34.004 45.613 34.004 101.683c0 37.304 20.387 71.577 53.21 89.404l11.78-21.696c-24.855-13.502-40.292-39.453-40.292-67.708 0-42.455 34.529-76.984 76.984-76.984 42.44 0 76.984 34.529 76.984 76.984 0 23.205-10.329 44.062-26.634 58.189-.028.029-.042.029-.07.043-3.075 2.376-5.863 4.283-8.367 5.805a6.34 6.34 0 0 1-.526.313c-2.518 1.437-5.492 2.917-8.793 4.183-5.918 2.262-12.903 3.799-20.259 3.058V93.986h42.355V72.133H80.996v21.853h45.186v102.123s43.393 12.179 75.333-16.987c.015-.014.043-.029.057-.043.128-.1.242-.199.357-.284l-.015-.029c21.683-18.652 35.454-46.295 35.454-77.083" fill="#f39200"/></svg>