<?xml version="1.0" standalone="no"?>
<svg version="1.1" id="Layer_1" xmlns="http://www.w3.org/2000/svg" xmlns:xlink="http://www.w3.org/1999/xlink" x="0px" y="0px" width="595.28px" height="595.28px" viewBox="0 0 595.28 595.28" enable-background="new 0 0 595.28 595.28" xml:space="preserve">
<path id="color_x5F_6" fill="#ffe755" d="M308.14,346.045v10.535c0,0.652-0.529,1.18-1.182,1.18s-1.182-0.527-1.182-1.18v-10.535
	c0-0.652,0.529-1.182,1.182-1.182S308.14,345.393,308.14,346.045z M306.958,376.453c-0.652,0-1.182,0.527-1.182,1.182v10.531
	c0,0.652,0.529,1.182,1.182,1.182s1.182-0.529,1.182-1.182v-10.531C308.14,376.98,307.61,376.453,306.958,376.453z M297.612,367.105
	c0-0.652-0.529-1.182-1.182-1.182h-10.533c-0.652,0-1.182,0.529-1.182,1.182c0,0.654,0.529,1.184,1.182,1.184h10.533
	C297.083,368.289,297.612,367.76,297.612,367.105z M316.304,367.105c0,0.654,0.529,1.184,1.182,1.184h10.533
	c0.652,0,1.182-0.529,1.182-1.184c0-0.652-0.529-1.182-1.182-1.182h-10.533C316.833,365.924,316.304,366.453,316.304,367.105z
	 M292.901,351.379c-0.461-0.463-1.209-0.463-1.67,0c-0.463,0.461-0.463,1.209,0,1.67l7.447,7.449c0.461,0.461,1.209,0.461,1.672,0
	c0.461-0.463,0.461-1.209,0-1.672L292.901,351.379z M322.685,382.834c0.461-0.463,0.461-1.209,0-1.674l-7.447-7.445
	c-0.461-0.461-1.209-0.461-1.672,0c-0.461,0.461-0.461,1.209,0,1.67l7.449,7.449C321.476,383.295,322.224,383.295,322.685,382.834z
	 M298.679,373.715l-7.447,7.445c-0.463,0.465-0.463,1.211,0,1.674c0.461,0.461,1.209,0.461,1.67,0l7.449-7.449
	c0.461-0.461,0.461-1.209,0-1.67C299.888,373.254,299.14,373.254,298.679,373.715z M321.015,351.379l-7.449,7.447
	c-0.461,0.463-0.461,1.209,0,1.672c0.463,0.461,1.211,0.461,1.672,0l7.447-7.449c0.461-0.461,0.461-1.209,0-1.67
	C322.224,350.916,321.476,350.916,321.015,351.379z M141.966,182.269c0.652,0,1.182-0.527,1.182-1.18v-10.535
	c0-0.652-0.529-1.182-1.182-1.182s-1.182,0.529-1.182,1.182v10.535C140.784,181.741,141.313,182.269,141.966,182.269z
	 M141.966,213.856c0.652,0,1.182-0.529,1.182-1.182v-10.531c0-0.654-0.529-1.182-1.182-1.182s-1.182,0.527-1.182,1.182v10.531
	C140.784,213.327,141.313,213.856,141.966,213.856z M132.62,191.614c0-0.652-0.529-1.182-1.182-1.182h-10.533
	c-0.652,0-1.182,0.529-1.182,1.182c0,0.654,0.529,1.184,1.182,1.184h10.533C132.091,192.798,132.62,192.269,132.62,191.614z
	 M151.312,191.614c0,0.654,0.529,1.184,1.182,1.184h10.533c0.652,0,1.182-0.529,1.182-1.184c0-0.652-0.529-1.182-1.182-1.182
	h-10.533C151.841,190.433,151.312,190.962,151.312,191.614z M133.687,185.007c0.461,0.461,1.209,0.461,1.672,0
	c0.461-0.463,0.461-1.209,0-1.672l-7.449-7.447c-0.461-0.463-1.209-0.463-1.67,0c-0.463,0.461-0.463,1.209,0,1.67L133.687,185.007z
	 M156.022,207.343c0.461,0.461,1.209,0.461,1.67,0c0.461-0.463,0.461-1.209,0-1.674l-7.447-7.445c-0.461-0.461-1.209-0.461-1.672,0
	c-0.461,0.461-0.461,1.209,0,1.67L156.022,207.343z M133.687,198.224l-7.447,7.445c-0.463,0.465-0.463,1.211,0,1.674
	c0.461,0.461,1.209,0.461,1.67,0l7.449-7.449c0.461-0.461,0.461-1.209,0-1.67C134.896,197.763,134.147,197.763,133.687,198.224z
	 M150.245,185.007l7.447-7.449c0.461-0.461,0.461-1.209,0-1.67c-0.461-0.463-1.209-0.463-1.67,0l-7.449,7.447
	c-0.461,0.463-0.461,1.209,0,1.672C149.036,185.468,149.784,185.468,150.245,185.007z"></path>
<path id="color_x5F_5" fill="#FFD2BB" d="M186.376,201.571c-0.155,0.46-0.385,0.885-0.72,1.25c-2.55,2.784-2.608,4.69-2.608,5.832
	c0,0.952-0.214,2.244-0.285,2.652c-0.015,0.081-0.025,0.141-0.025,0.141s-0.014-0.059-0.035-0.141
	c-0.209-0.837-1.434-5.474-2.682-4.754c-2.27,1.307-2.058,9.707-2.058,9.707c0.138,0.28,0.29,0.552,0.448,0.819v13.517h0.289
	c1.096,2.358,3.179,4.215,6.238,4.707c0.519,0.083,1.058,0.139,1.633,0.139c3.022,0,5.257-1.213,6.719-3.007
	c0.459-0.563,0.847-1.18,1.152-1.839h0.414v-7.843c5.018-0.865,5.662-5.779,5.662-11.737v-7.15c0-0.785-0.081-1.551-0.226-2.293
	H186.376z M188.514,206.229c0.412-0.045,0.795,0.462,0.86,1.129c0.063,0.67-0.219,1.248-0.627,1.293
	c-0.412,0.044-0.793-0.465-0.859-1.131C187.821,206.851,188.104,206.273,188.514,206.229z M197.302,208.651
	c-0.412,0.044-0.793-0.465-0.859-1.131c-0.066-0.67,0.217-1.247,0.627-1.291c0.412-0.045,0.795,0.462,0.859,1.129
	C197.992,208.028,197.71,208.606,197.302,208.651z M265.563,259.968c0,0.88-0.176,1.718-0.489,2.484h-6.16h-6.011h-6.342h-11.484
	c5.101-0.794,10.588-1.258,10.588-1.258s0.337-0.063,0.896-0.155c1.23-0.203,3.557-0.548,5.872-0.688
	c-0.008-0.127-0.02-0.254-0.02-0.384c0-3.631,2.943-6.574,6.574-6.574S265.563,256.337,265.563,259.968z"></path>
<path id="color_x5F_4" fill="#202020" d="M174.845,211.203c-2.271-7.47-0.379-13.901-0.379-13.901
	c0.354-0.775,0.733-1.419,1.131-1.974c0.05-0.506,0.51-1.243,1.889-2.31c6.522-5.045,18.952-1.969,21.333,2
	c2,3.334,1.476,6.553,1.476,6.553h-0.002h-13.917c-0.155,0.46-0.385,0.885-0.72,1.25c-2.55,2.784-2.608,4.69-2.608,5.832
	c0,0.952-0.214,2.244-0.285,2.652c-0.015,0.081-0.025,0.141-0.025,0.141s-0.014-0.059-0.035-0.141
	c-0.209-0.837-1.434-5.474-2.682-4.754c-2.27,1.307-2.058,9.707-2.058,9.707C177.184,214.678,175.927,214.767,174.845,211.203z
	 M269.456,262.452v12.192v8.764v0.025v79.514h-61.593h-15.301H180.43h-17.724h-41.741V262.452h17.147h21.005h2.966h45.289h0.002
	h2.842h3.625h15.287h5.949h11.484h6.342h6.011h6.16H269.456z M135.145,269.95l6.25,6.25l6.282,6.282l2.449,2.449l15.74,15.739
	l0.018,0.019l1.029,1.028l25.643,25.643l16.341-16.341l27.586-27.586l8.789-8.789l1.29-1.29l2.191-2.191l1.213-1.213h-3.404h-16.187
	h-7.317h-10.118h-0.422h-52.076h-2.956H135.145z M260.596,274.645v-3.794l-3.794,3.794l-8.764,8.764l-0.025,0.025l-38.047,38.047
	l-17.131,17.13l-28.731-28.731l-2.408-2.408l-7.113-7.113l-0.13-0.13l-21.854-21.854l-2.763-2.763v79.84h33.664h20.146h8.104h17.513
	h51.334v-72.017v-0.025V274.645z"></path>
<path id="color_x5F_3" fill="#8f8980" d="M333.501,191.408c-7.631-14.85-23.101-25-40.94-25c-0.825,0-1.644,0.023-2.458,0.066
	c-24.257,1.278-43.542,21.349-43.542,45.934v48.631c1.23-0.203,3.557-0.548,5.872-0.688c-0.008-0.127-0.02-0.254-0.02-0.384
	c0-3.631,2.943-6.574,6.574-6.574s6.575,2.943,6.575,6.574c0,0.88-0.176,1.718-0.489,2.484h4.383v12.192h17.833h51.271v-62.236
	C338.561,204.849,336.73,197.708,333.501,191.408z M337.061,264.908h-49.518H271.86v-69h17.477h42.664c3.229,6.3,5.06,13.44,5.06,21
	V264.908z M162.706,362.947h17.724c-0.738,1.563-1.2,2.433-1.2,2.433l-1.217,0.793l-16.118,51.905l12.095,11.044h-15.722
	l2.21-12.338l1.313,1.198c-0.629-1.664-5.177-14.137-5.374-27.15c-0.134-8.847,2.092-14.634,5.16-18.433
	C161.89,369.933,162.289,366.666,162.706,362.947z M197.396,416.935l13.348,12.188h-15.722l2.017-11.265
	c-0.842-2.159-5.735-15.149-6.469-27.325c-0.474-7.869,0.86-13.459,2.95-17.445c-0.236-2.724-0.559-6.231-0.958-10.14h15.301
	c-0.18,0.799-0.292,1.239-0.292,1.239l-0.432,0.469L197.396,416.935z M189.374,207.358c0.063,0.67-0.219,1.248-0.627,1.293
	c-0.412,0.044-0.793-0.465-0.859-1.131c-0.066-0.67,0.217-1.247,0.626-1.291C188.926,206.185,189.309,206.691,189.374,207.358z
	 M196.442,207.521c-0.066-0.67,0.217-1.247,0.627-1.291c0.412-0.045,0.795,0.462,0.859,1.129c0.063,0.67-0.219,1.248-0.627,1.293
	C196.89,208.695,196.509,208.187,196.442,207.521z"></path>
<path id="color_x5F_2" fill="#f39220" d="M337.061,216.908c0-7.56-1.83-14.7-5.06-21h-42.664H271.86v69h15.682h49.518V216.908z
	 M286.86,208.408h2.151h15.849v23h-16.447h-1.553V208.408z M315.86,252.408h-27.993h-2.007v-3h2.085h27.915V252.408z
	 M315.86,243.908h-27.771h-2.229v-3h2.306h27.694V243.908z M456.792,399.947c9.448,0.525,20.067-3.45,18.634-9.791
	c-1.437-6.337-10.829-4.656-20.563-2.523c-9.735,2.133-7.456,0.426-22.168,0.202c-10.031-0.153-15.377,6.689-17.765,11.059
	c4.635-0.999,9.297-1.843,13.976-2.577c0.026-0.037,0.047-0.073,0.087-0.108c1.735-1.437,3.397-2.976,5.45-3.951
	c0.604-0.285,1.097,0.629,0.49,0.917c-1.525,0.724-2.818,1.766-4.095,2.84c9.879-1.479,19.844-2.438,29.82-3.025
	c0.664-0.038,0.613,0.997-0.049,1.036c-8.425,0.494-16.838,1.268-25.199,2.388c3.103,1.119,6.293,1.975,9.266,3.438
	c0.602,0.295,0.04,1.173-0.554,0.878c-3.061-1.51-6.385-2.334-9.573-3.527c-0.297-0.107-0.378-0.387-0.321-0.627
	c-6.677,0.924-13.324,2.068-19.911,3.513c-0.19,0.394-0.341,0.733-0.471,1.041c-0.405,0.271-0.792,0.565-1.161,0.881
	c-1.271,0.372-2.53,0.779-3.781,1.215c-0.227-0.805-0.522-1.578-0.861-2.33c5.447-7.776,9.07-16.646,13.701-24.97
	c0.113,0.203,0.185,0.313,0.185,0.313s1.147,0.101,2.961-0.002c4.497-6.453,8.696-13.105,12.672-19.891
	c-0.283-0.045-0.547-0.257-0.534-0.627c0.139-3.963,0.734-7.912,0.475-11.888c-0.05-0.77,1.141-0.983,1.192-0.204
	c0.253,3.854-0.25,7.676-0.431,11.52c4.942-8.512,9.526-17.232,13.821-26.092c0.338-0.695,1.479-0.288,1.139,0.414
	c-5.085,10.485-10.565,20.795-16.572,30.783c1.729-0.898,3.435-1.827,4.892-3.146c0.579-0.522,1.346,0.412,0.766,0.937
	c-1.966,1.779-4.368,2.881-6.69,4.11c-0.051,0.027-0.102,0.032-0.151,0.043c-2.883,4.715-5.872,9.365-9.016,13.912
	c5.773-0.624,15.532-3.329,19.845-14.208c6.323-15.952,3.469-14.259,10.109-23.798c6.643-9.537,12.648-18.908,6.456-23.283
	c-6.19-4.375-15.214,5.293-18.863,15.709c-3.648,10.416-12.247,13.27-18.897,21.961c-7.041,9.201-5.834,17.067-4.438,21.023
	c-4.771,8.337-8.402,17.318-13.763,25.241c-0.801-1.257-1.761-2.402-2.857-3.408c0.083-0.657,0.181-1.314,0.331-1.948
	c0.469,0.287,0.746,0.437,0.746,0.437s11.562-5.011,10.269-21.649c-0.85-10.913-6.511-17.984-3.903-28.709
	c2.607-10.724,0.301-23.744-7.274-23.444s-7.638,11.427-7.257,23.046c0.381,11.621-1.094,8.644-4.47,25.465
	c-2.304,11.474,4.407,19.059,8.912,22.723c-0.16-5.526-0.14-11.055,0.013-16.578c-0.038-0.038-0.077-0.066-0.105-0.119
	c-1.279-2.294-2.692-4.527-3.377-7.092c-0.2-0.752,0.951-1.12,1.152-0.367c0.508,1.902,1.431,3.608,2.392,5.303
	c0.396-11.65,1.411-23.278,2.854-34.844c0.098-0.773,1.273-0.491,1.178,0.274c-1.22,9.769-2.117,19.577-2.605,29.407
	c1.941-3.32,3.598-6.802,5.91-9.896c0.463-0.627,1.351,0.201,0.889,0.82c-2.382,3.191-4.033,6.829-6.074,10.232
	c-0.188,0.317-0.527,0.35-0.789,0.233c-0.352,7.74-0.448,15.487-0.202,23.235c-0.193,0.655-0.332,1.334-0.445,2.008
	c-2.785-1.925-6.166-3.068-9.825-3.068c-1.576,0-3.103,0.215-4.554,0.605c-0.663-0.179-1.344-0.315-2.037-0.417V283.434h-19.392
	v121.201c-0.103,0.54-0.181,1.089-0.229,1.646c-1.931-4.268-6.254-7.248-11.296-7.248c-6.827,0-12.364,5.465-12.364,12.2
	c0,0.983,0.129,1.937,0.353,2.849c-2.3-1.648-4.998-2.779-7.933-3.215c-0.877-0.131-1.771-0.206-2.687-0.206
	c-0.302,0-0.6,0.009-0.898,0.023c-8.292,0.399-15.107,6.313-16.781,14.102h146.529c-1.672-7.788-8.486-13.702-16.78-14.102
	c-0.298-0.015-0.595-0.023-0.897-0.023c-0.916,0-1.81,0.075-2.688,0.206c-2.934,0.436-5.633,1.566-7.932,3.215
	c0.224-0.912,0.353-1.865,0.353-2.849c0-1.178-0.179-2.313-0.494-3.392c0.189-0.047,0.371-0.078,0.564-0.13
	C442.265,405.295,447.346,399.419,456.792,399.947z M409.467,406.281c-0.028-0.322-0.084-0.637-0.131-0.954
	c0.261-0.092,0.521-0.186,0.782-0.275C409.881,405.449,409.658,405.857,409.467,406.281z"></path>
<path id="color_x5F_1" fill="#4a90e2" d="M472.062,212.71v70.698h-19.68c-0.06,0.005-0.115,0.025-0.176,0.025H385.77h-19.392
	h-96.922v-0.025v-8.764h17.833h51.271v-62.236c0-7.56-1.83-14.7-5.06-21c-7.631-14.85-23.101-25-40.94-25
	c-0.825,0-1.644,0.023-2.458,0.066l0.008-0.316l131.826,0.957c1.423-0.133,2.863-0.209,4.321-0.209
	C451.554,166.906,472.062,187.413,472.062,212.71z M315.86,243.908v-3h-27.694h-2.306v3h2.229H315.86z M315.86,252.408v-3h-27.915
	h-2.085v3h2.007H315.86z M304.86,231.408v-23h-15.849h-2.151v23h1.553H304.86z M223.23,247.191L223.23,247.191
	c-0.566-1.088-1.163-2.216-1.77-3.334c-0.056-0.104-0.111-0.207-0.167-0.311c-0.094-0.172-0.188-0.342-0.282-0.514
	c-0.073-0.133-0.146-0.266-0.219-0.398c-0.088-0.16-0.176-0.317-0.265-0.476c-0.079-0.143-0.159-0.285-0.238-0.426
	c-0.083-0.148-0.167-0.296-0.25-0.442c-0.084-0.149-0.169-0.299-0.253-0.445c-0.079-0.137-0.157-0.272-0.235-0.407
	c-0.087-0.151-0.174-0.302-0.261-0.45c-0.077-0.131-0.154-0.262-0.23-0.391c-0.086-0.146-0.172-0.29-0.257-0.432
	c-0.076-0.127-0.151-0.252-0.226-0.375c-0.084-0.139-0.168-0.276-0.252-0.412c-0.074-0.119-0.147-0.238-0.221-0.355
	c-0.083-0.133-0.166-0.262-0.248-0.391c-0.071-0.111-0.142-0.222-0.211-0.329c-0.082-0.126-0.161-0.246-0.241-0.366
	c-0.068-0.102-0.136-0.205-0.203-0.304c-0.081-0.119-0.16-0.231-0.238-0.345c-0.062-0.088-0.125-0.18-0.186-0.265
	c-0.082-0.114-0.161-0.22-0.24-0.327c-0.055-0.073-0.11-0.15-0.164-0.22c-0.086-0.112-0.168-0.214-0.25-0.315
	c-0.043-0.053-0.088-0.111-0.13-0.162c-0.123-0.146-0.242-0.281-0.355-0.401c-0.167-0.177-0.339-0.341-0.513-0.501
	c-1.587-2.152-3.833-3.503-6.332-3.503h-13.936h-0.414c-0.306,0.659-0.693,1.276-1.152,1.839c-1.462,1.794-3.697,3.007-6.719,3.007
	c-0.575,0-1.114-0.056-1.633-0.139c-3.059-0.492-5.143-2.349-6.238-4.707h-0.289h-14.246c-2.769,0-5.229,1.656-6.824,4.228
	c-5.137,3.367-9.102,10.804-11.563,16.581c-3.15,3.245-6.979,9.674-6.979,9.674s-0.273,0.519-0.687,1.375h21.005h2.966h45.289h0.002
	h2.842h3.625h15.287c-0.909-4.093-1.929-7.346-1.929-7.346S225.451,251.461,223.23,247.191z"></path>
</svg>