<?xml version="1.0" standalone="no"?>
<svg version="1.1" id="Layer_1_1_" xmlns="http://www.w3.org/2000/svg" xmlns:xlink="http://www.w3.org/1999/xlink" x="0px" y="0px" width="595.279px" height="595.279px" viewBox="0 0.001 595.279 595.279" enable-background="new 0 0.001 595.279 595.279" xml:space="preserve">
<path id="color_x5F_5" fill="#F8C91C" d="M274.024,333.949c-0.108,0.181-0.209,0.363-0.313,0.545
	c0.066,0.351,0.104,0.711,0.099,1.084c-0.034,2.558,0.979,5.022-1.181,4.996c-0.482-0.008-1.088-0.144-1.729-0.373
	c-2.896,6.435-4.985,11.606-10.491,8.373c-2.455-1.441-5.271-4.37-7.729-7.944l-16.099,4.31l-11.085-17.964l18.56-7.513
	c0.008,0.035,0.016,0.077,0.024,0.111c0.17,0.66,0.37,1.3,0.59,1.93c0.5,1.452,1.142,2.822,1.87,4.063
	c0.011,0.028,0.029,0.06,0.05,0.09c1.54,2.63,3.512,4.718,5.672,6.069c1.058,0.681,2.158,1.17,3.278,1.46
	c0.09,0.028,0.17,0.049,0.26,0.068c-0.568-0.51-1.05-1.1-1.42-1.77c-0.39-0.702-0.648-1.482-0.75-2.313
	c-0.26-1.899,0.57-3.8,2.479-4.38c2.57-0.781,5.25,0.99,6.21,3.32c0.509,1.22,0.599,2.571,0.4,3.89
	c2.463-1.666,4.714-5.556,5.651-9.432c-4.729-3.802-9.681-7.821-13.646-11.129c4.87-2.973,10.64-3.468,15.299-0.732
	C277.27,314.964,279.059,325.368,274.024,333.949z M293.021,432.13c0,0-3.565-7.562-5.954-7.583
	c-2.287-0.021-6.125,2.746-9.18,5.592c-3.686-5.479-9.147-11.455-9.147-11.455s-0.368-0.477-1-1.281
	c0.466,5.115,0.364,11.526-0.075,18.402c2.307,1.186,4.486,2.117,6.439,2.69c2.943,4.099,12.76,7.252,19.486,2.602
	C297.994,438.051,293.021,432.13,293.021,432.13z M346.618,376.556c-1.97-0.983-4.29-1.11-4.29-1.11s-7.959-2.555-9.604-0.824
	c-1.188,1.25-1.821,4.229-2.063,7.406c-0.079,1.036-0.115,2.095-0.117,3.121c-0.579-0.093-1.173-0.176-1.771-0.254
	c-6.125-0.804-12.842-0.876-12.842-0.876s-10.943-1.019-20.076-1.243c-2.976-0.074-5.758-0.064-7.907,0.093
	c-1.394,0.104-2.53,0.263-3.271,0.505c-9.477,3.1-8.444,16.387-4.114,17.854c1.552,0.526,3.729,0.863,6.327,1.034
	c0.804,0.053,1.648,0.089,2.528,0.108c9.274,0.216,22.443-1.345,32.863-4.186c1.689-0.46,3.314-0.951,4.831-1.478
	c0-0.001,0.001-0.001,0.001-0.001c0.61-0.212,1.197-0.43,1.772-0.65c1.965-0.757,3.724-1.569,5.189-2.438
	c5.005,0.646,14.007-4.379,15.197-12.471C349.624,378.755,348.239,377.366,346.618,376.556z"></path>
<path id="color_x5F_3_1_" fill="#000000" d="M403.078,265.98v2.893c0,12.854-10.457,23.312-23.311,23.312h-2.892
	c-12.855,0-23.313-10.457-23.313-23.312v-2.893c0-12.854,10.458-23.313,23.313-23.313h2.892
	C392.621,242.668,403.078,253.125,403.078,265.98z M461.309,237.281v-10.24c0-14.244-65.743-28.256-85.461-28.629l-1.472-0.028
	v-1.086c-10.346-17.908-39.271-63.16-52.133-63.16h-112.76c-12.863,0-41.787,45.252-52.13,63.16v1.07l-1.473,0.043
	c-15.489,0.293-28.093,13.136-28.093,28.629v10.24c0,15.794,12.853,28.645,28.649,28.645h20.849v-1.651
	c0-19.319,15.717-35.036,35.036-35.036h3.908c19.318,0,35.037,15.717,35.037,35.036v1.651h88.719v-1.651
	c0-19.319,15.717-35.036,35.035-35.036h3.908c19.318,0,35.037,15.717,35.037,35.036v1.651h35.599c4.246,0,7.199-0.919,9.03-2.809
	c3.344-3.453,3.122-10.408,2.865-18.463C461.387,242.283,461.309,239.831,461.309,237.281z M215.723,242.668h-2.894
	c-12.853,0-23.31,10.458-23.31,23.313v2.893c0,12.854,10.457,23.312,23.31,23.312h2.894c12.854,0,23.311-10.457,23.311-23.312
	v-2.893C239.034,253.125,228.577,242.668,215.723,242.668z M523.368,103.584v216.748H78.15V103.584H523.368z M242.034,265.979
	c0-14.509-11.803-26.313-26.311-26.313h-2.894c-14.508,0-26.31,11.805-26.31,26.313v2.893c0,14.508,11.803,26.312,26.31,26.312
	h2.894c14.508,0,26.311-11.804,26.311-26.312V265.979z M406.078,265.979c0-14.509-11.803-26.313-26.311-26.313h-2.892
	c-14.509,0-26.313,11.805-26.313,26.313v2.893c0,14.508,11.804,26.312,26.313,26.312h2.892c14.508,0,26.311-11.804,26.311-26.312
	V265.979z M464.462,244.557c-0.075-2.348-0.152-4.775-0.152-7.277v-10.24c0-18.414-72.104-30.876-87.541-31.599
	c-5.382-9.283-37.993-64.305-54.523-64.305h-112.76c-16.531,0-49.135,55.016-54.521,64.304
	c-16.716,0.774-30.173,14.772-30.173,31.601v10.24c0,17.449,14.197,31.645,31.649,31.645h23.849v-4.651
	c0-17.664,14.371-32.036,32.036-32.036h3.908c17.665,0,32.037,14.371,32.037,32.036v4.651h94.719v-4.651
	c0-17.664,14.371-32.036,32.035-32.036h3.908c17.665,0,32.037,14.371,32.037,32.036v4.651h38.599c5.102,0,8.76-1.218,11.187-3.722
	C464.981,260.838,464.741,253.294,464.462,244.557z M368.969,435.739c-4.24,0-7.67,3.433-7.67,7.67c0,4.23,3.43,7.66,7.67,7.66
	c4.229,0,7.662-3.43,7.66-7.66C376.63,439.172,373.198,435.739,368.969,435.739z M344.309,411.092c-4.229,0-7.66,3.43-7.66,7.658
	c0,4.231,3.431,7.672,7.66,7.672c4.242,0,7.67-3.442,7.67-7.672C351.979,414.521,348.55,411.092,344.309,411.092z M368.969,386.43
	c-4.24,0-7.67,3.44-7.67,7.67c0,4.229,3.43,7.66,7.67,7.66c4.229,0,7.662-3.431,7.66-7.66
	C376.63,389.869,373.198,386.43,368.969,386.43z M393.62,411.092c-4.229,0-7.658,3.43-7.658,7.658c0,4.231,3.43,7.672,7.658,7.672
	c4.229,0,7.659-3.442,7.659-7.672C401.279,414.521,397.849,411.092,393.62,411.092z M415.8,417.719
	c0,25.87-20.972,46.84-46.83,46.84c-25.87,0-46.84-20.97-46.84-46.84c0-7.558,1.802-14.691,4.983-21.013
	c0-0.001,0.002-0.001,0.002-0.001c0.609-0.212,1.196-0.43,1.771-0.65c1.965-0.757,3.724-1.569,5.189-2.438
	c5.005,0.646,14.007-4.379,15.197-12.471c0.351-2.392-1.034-3.78-2.655-4.59l0,0c6.643-3.613,14.257-5.667,22.352-5.667
	C394.83,370.889,415.802,391.859,415.8,417.719z M260.524,489.304c0,0,0.002-0.005,0.006-0.021
	c0.111-0.607,2.477-13.152,4.521-28.344l-15.422-0.309L260.524,489.304z M81.832,478.936c0,0,0.004,0.004,0.019,0.013
	c0.563,0.263,12.1,5.729,26.273,11.558l4.206-14.844L81.832,478.936z"></path>
<path id="color_x5F_2" fill="#f39200" d="M247.761,303.081c0.965-1.29,2.126-2.51,3.541-3.482
	C249.984,300.607,248.796,301.78,247.761,303.081z M368.968,336.702c-32.23,0-60.063,18.822-73.112,46.074
	c9.133,0.226,20.076,1.243,20.076,1.243s8.093,0.085,14.61,1.13c0.007-4.174,0.606-8.869,2.183-10.527
	c1.646-1.729,9.604,0.824,9.604,0.824s2.32,0.127,4.29,1.11c6.644-3.613,14.258-5.667,22.353-5.667
	c25.858,0,46.83,20.97,46.83,46.83c0.001,25.871-20.971,46.84-46.83,46.84c-25.87,0-46.84-20.97-46.84-46.84
	c0-7.559,1.802-14.691,4.982-21.014c-10.868,3.771-26.917,5.913-37.696,5.663c-0.955,4.974-1.472,10.103-1.472,15.354
	c0,44.747,36.274,81.021,81.021,81.021s81.021-36.272,81.021-81.021S413.714,336.702,368.968,336.702z M270.706,331.041
	c-0.477-0.271-1.209,0.142-1.639,0.915c-0.434,0.777-0.395,1.627,0.077,1.896c0.477,0.271,1.206-0.145,1.639-0.916
	C271.217,332.161,271.177,331.309,270.706,331.041z M254.825,504.265h30.607c0,0,0.045,0.012,0.032,0
	c-0.521-0.333-11.229-7.311-24.517-14.961L254.825,504.265z M72.366,469.534l-7.557,29.658c0,0-0.026,0.041-0.011,0.035
	c0.452-0.422,9.854-9.03,20.617-19.942L72.366,469.534z M254.725,311.441c-4.298-3.586-7.438-6.334-7.863-7.05
	c-0.495,0.781-0.93,1.567-1.302,2.32c-2.159,4.378-2.121,10.236-1.505,12.749c0.009,0.035,0.017,0.077,0.024,0.111
	c0.17,0.66,0.37,1.3,0.59,1.93c0.5,1.451,1.142,2.821,1.87,4.063c0.011,0.028,0.029,0.06,0.05,0.09
	c1.54,2.63,3.512,4.719,5.672,6.069c1.059,0.681,2.158,1.17,3.278,1.46c0.09,0.028,0.17,0.05,0.26,0.068
	c-0.568-0.51-1.05-1.1-1.42-1.77c-0.39-0.701-0.648-1.481-0.75-2.313c-0.26-1.898,0.57-3.8,2.479-4.38
	c2.57-0.781,5.25,0.99,6.21,3.32c0.51,1.22,0.6,2.57,0.399,3.89c2.464-1.666,4.715-5.556,5.652-9.432
	C263.643,318.768,258.691,314.749,254.725,311.441z"></path>
<path id="color_x5F_1" fill="#45bc81" d="M247.762,303.082c-0.322,0.433-0.621,0.87-0.9,1.311c-0.082-0.139-0.069-0.204,0.062-0.184
	C247.189,303.822,247.471,303.448,247.762,303.082z M231.772,324.192c0,0-3.318-3.86-11.049,0.412
	c-4.369,2.414-71.378,67.077-71.378,67.077c-0.208,0.258-15.873,18.125-8.498,58.808c0.122,0.084,1.431,13.6,4.108,27.107
	c-12.795-1.521-30.54-2.156-30.54-2.156l-2.088,0.223l-4.206,14.844c17.457,7.174,38.912,14.896,48.775,14.144
	c0.526,0.066,1.07,0.016,1.627-0.168c14.455-4.772,21.906-72.844,21.906-72.844s36.525-4.24,62.018-10.348
	c0.738,11.926,6.438,37.38,6.438,37.38l0.741,1.965l15.422,0.309c1.092-8.099,2.093-16.947,2.615-25.14
	c0.439-6.876,0.541-13.287,0.075-18.402c-0.239-2.623-0.626-4.906-1.195-6.732c0.085-0.446,0.058-0.896-0.128-1.346
	c-2.465-6.024-8.967-10.368-17.529-13.25c-2.18-0.733-4.489-1.372-6.904-1.919c-8.888-2.014-19.148-2.793-29.179-2.503
	c1.045-0.514,15.985-7.953,26.807-18.844c0.582,0.599,36.527,27.688,39.8,27.688c-3.646-4.729-2.488-14.586,5.264-17.12
	c0.741-0.242,1.879-0.401,3.271-0.505c0.001-0.001,0-0.003,0-0.003L231.772,324.192z M287.537,331.411l-6.063-7.344
	c1.204-2.578,1.885-5.448,1.885-8.478c0-3.365-0.822-6.534-2.282-9.317c-3.337-6.392-10.01-10.746-17.702-10.746
	c-3.171,0-6.179,0.74-8.845,2.063c-1.143,0.566-2.222,1.242-3.227,2.011c-1.319,1.009-2.508,2.182-3.541,3.482
	c-0.323,0.433-0.622,0.869-0.9,1.311c0.818,1.377,11.657,10.257,21.51,18.179c8.475,6.813,16.214,12.912,16.214,12.912
	c1.192,0.791,2.82,0.52,3.635-0.604C289.034,333.754,288.73,332.202,287.537,331.411z M330.66,382.028l-0.393-0.192l-1.495,3.061
	c0.598,0.078,1.19,0.161,1.77,0.254C330.545,384.123,330.581,383.064,330.66,382.028z M363.368,501.379
	c-7.355,0-13.446-1.625-15.154-4.045c-0.36-0.51-0.709-1.273-0.211-2.679c3.109-8.768,1.184-14.269-0.98-17.34
	c-2.631-3.731-7.148-5.966-12.086-5.976c-0.011,0-0.021,0-0.033,0c-8.378,0-15.879,6.569-16.193,6.851l-0.093,0.086
	c-0.431,0.42-10.641,10.22-19.505,3.756c-8.838-6.444-4.965-14.861-4.8-15.209l34.573-70.768c-0.575,0.222-1.162,0.438-1.771,0.65
	c-1.517,0.526-3.143,1.019-4.833,1.479l-32.458,66.438c-2.104,4.284-3.487,14.279,6.343,21.448
	c9.801,7.152,21.188,0.43,25.898-4.172c0.548-0.469,6.646-5.56,12.84-5.56c0.008,0,0.017,0,0.023,0
	c3.316,0.007,6.312,1.447,8.009,3.855c2.129,3.021,2.251,7.442,0.354,12.787c-0.934,2.633-0.644,5.135,0.841,7.235
	c3.926,5.559,14.763,6.158,19.238,6.158h198v-5H363.368V501.379z M38.93,523.726c133.054,0,266.105,0,399.161,0
	c42.577,0,85.152,0,127.729,0c3.227,0,3.227-5,0-5c-133.054,0-266.106,0-399.16,0c-42.578,0-85.155,0-127.73,0
	C35.706,518.726,35.706,523.726,38.93,523.726L38.93,523.726z"></path>
</svg>