<svg xmlns="http://www.w3.org/2000/svg" xmlns:xlink="http://www.w3.org/1999/xlink" height="1024" width="1024"><defs><linearGradient id="b"><stop offset="0" stop-color="#fff" stop-opacity=".618"/><stop offset="1" stop-color="#fff" stop-opacity="0"/></linearGradient><linearGradient id="a"><stop offset="0" stop-color="#393756"/><stop offset=".247" stop-color="#393756"/><stop offset=".258" stop-color="#306985"/><stop offset=".586" stop-color="#306985"/><stop offset=".599" stop-color="#3d84a8"/><stop offset="1" stop-color="#3d84a8"/></linearGradient><clipPath id="c" clipPathUnits="userSpaceOnUse"><circle r="425.375" cy="540.362" cx="512" stroke="#fff" stroke-width="20.678" stroke-linecap="round" stroke-linejoin="round"/></clipPath><linearGradient gradientTransform="translate(0 .973)" gradientUnits="userSpaceOnUse" y2="558.776" x2="970.722" y1="562.588" x1="44.832" id="d" xlink:href="#a"/><linearGradient y2="192.916" x2="453.074" y1="880.926" x1="631.405" gradientTransform="translate(0 .973)" gradientUnits="userSpaceOnUse" id="e" xlink:href="#b"/></defs><g transform="translate(0 -28.362)"><circle r="373.479" cy="559.508" cx="515.634" fill="#fff" stroke="#5b5b5b" stroke-width="70.24" stroke-linecap="round" stroke-linejoin="round"/><circle cx="512.366" cy="541.216" r="373.479" fill="#fff" stroke="#fff" stroke-width="70.24" stroke-linecap="round" stroke-linejoin="round"/><path transform="matrix(.878 0 0 .878 62.831 65.925)" clip-path="url(#c)" d="M607.123 59.273h357.07v962.178h-357.07zm-314.223 0h285.657v793.295H292.9zm-242.808 0h214.243v658.853H50.092z" fill="url(#d)"/><path d="M607.123 59.273h357.07v962.178h-357.07zm-314.223 0h285.657v793.295H292.9zm-242.808 0h214.243v658.853H50.092z" clip-path="url(#c)" transform="matrix(.878 0 0 .878 62.831 65.925)" opacity=".422" fill="url(#e)"/></g></svg>