<?xml version="1.0" standalone="no"?>
<svg version="1.1" id="Layer_1" xmlns="http://www.w3.org/2000/svg" xmlns:xlink="http://www.w3.org/1999/xlink" x="0px" y="0px" width="595.28px" height="595.28px" viewBox="0 0 595.28 595.28" enable-background="new 0 0 595.28 595.28" xml:space="preserve">
<path id="color_x5F_6" fill="#fae756" d="M323.057,292.241l13.102-5.651l-10.979-9.113l14.078,2.329l-4.311-13.603l10.584,9.57
	l3.729-13.772l3.73,13.772l10.582-9.57l-4.309,13.603l14.076-2.329l-10.979,9.113l13.102,5.651l-14.162,1.731l7.967,11.837
	l-3.281-1.583l-4.289-7.938l-10.115,5.465l5.079,9.401l0.058,2.72l-7.459-12.164l-7.457,12.164l0.041-1.946l5.496-10.175
	l-10.113-5.465l-4.147,7.676l-3.825,1.846l7.967-11.837L323.057,292.241z M351.582,301.753l5.079,9.401l-0.245-11.545l9.57,4.617
	l-4.289-7.938L351.582,301.753z M337.227,296.288l-4.147,7.676l9.024-4.354l-0.26,12.318l5.496-10.175L337.227,296.288z
	 M412.37,374.332l0.128,17.667l11.86-0.087l-0.128-17.665L412.37,374.332z M427.127,390.505l0.844-0.005
	c0.969-0.008,2.175,1.488,3.486,1.479l18.633-0.145c3.738-0.027,3.746-4.73,1.271-5.117l0.67,0.018
	c2.365-0.271,3.328-4.481,0.296-5.226l0.563-0.015c2.26-0.253,3.27-4.285,0.113-5.16l0.746-0.08c3.359-0.072,3.545-5.024,0.369-5.01
	l-12.906,0.094c0.478-1.983,1.376-5.807,1.356-8.287c-0.017-2.48-0.485-5.771-1.75-6.936c-1.267-1.164-3.72-0.364-4.013,0.376
	c-0.291,0.739,0.207,4.575,0.094,6.062c-0.258,3.377-5.486,10.151-6.834,11.321c-0.716,0.611-2.002,1.466-3.046,2.134
	L427.127,390.505z"></path>
<path id="color_x5F_5" fill="#FFD2BB" d="M293.668,177.063l-14.089,33.881l-15.756-12.653c-0.153-0.123-0.314-0.229-0.472-0.34
	l10.034-16.048c-0.245-0.167-0.488-0.327-0.728-0.512c-3.575-2.801-5.412-6.987-5.376-11.204c-0.022-0.196-0.06-0.388-0.06-0.59v-18
	c0-2.899,2.351-5.25,5.249-5.25c2.899,0,5.25,2.35,5.25,5.25v5.137c4.119-1.093,8.681-0.324,12.293,2.506
	C295.516,163.552,296.921,171.129,293.668,177.063z M79.679,280.044c-0.884,0-1.735-0.13-2.547-0.355l-5.06,46.473
	c-1.449,6.609,2.035,13.484,8.526,16.068c0.132,0.054,0.266,0.088,0.397,0.137v-10.38c0-0.695,0.142-1.358,0.396-1.961
	c0.765-1.809,2.556-3.077,4.644-3.077c0.338,0,0.666,0.034,0.985,0.098c2.31,0.458,4.053,2.495,4.053,4.94v10.205
	c3.436-1.388,6.324-4.112,7.804-7.827c2.875-7.219-0.647-15.403-7.865-18.277c-0.278-0.111-0.561-0.195-0.841-0.287l10.017-35.757
	H79.679z M181.158,143.229c1.037,2.329-0.01,5.057-2.338,6.095l-4.029,1.795v1.17c0,3.966-1.88,9.972-6.435,13.862l1.595,5.381
	l2.164,7.313H142.88l2.311-7.664c-0.02-0.021-0.039-0.042-0.059-0.063l1.59-5.266c-0.504-0.43-0.989-0.884-1.445-1.365
	c-3.128-3.302-5.063-7.722-5.063-12.199v-1.07l-4.253-1.895c-1.069-0.477-3.124-4.327-2.337-6.095
	c0.802-1.794,2.604-2.814,4.457-2.718l4.114,8.896v-2.178v-9.534c4.966-13.975,9.296-8.975,14.966-8.975
	c6.596,0,11.5-5,15.886,9.051v11.637l4.112-8.891C178.843,140.599,180.423,141.584,181.158,143.229z M164.421,144.414
	c-0.027,1.24,0.56,2.255,1.324,2.264c0.759,0.009,1.409-0.987,1.438-2.23c0.03-1.239-0.562-2.253-1.327-2.263
	C165.096,142.175,164.449,143.173,164.421,144.414z M147.822,144.447c0.03,1.243,0.68,2.239,1.436,2.23
	c0.767-0.009,1.354-1.024,1.326-2.264c-0.027-1.241-0.674-2.239-1.435-2.23C148.384,142.194,147.793,143.208,147.822,144.447z"></path>
<path id="color_x5F_4" fill="#2c787d" d="M373.894,132.393c2.034,0,3.756-0.753,4.981-2.178c1.061-1.232,1.644-2.874,1.644-4.62
	c0-3.378-2.275-6.798-6.625-6.798c-2.033,0-3.756,0.753-4.98,2.178c-1.06,1.233-1.644,2.874-1.644,4.62
	C367.27,128.973,369.545,132.393,373.894,132.393z M371.188,122.931c0.647-0.752,1.558-1.133,2.706-1.133
	c2.862,0,3.625,2.387,3.625,3.798c0,1.014-0.334,1.985-0.918,2.664c-0.647,0.752-1.558,1.134-2.707,1.134
	c-2.86,0-3.624-2.387-3.624-3.798C370.27,124.581,370.604,123.61,371.188,122.931z M337.829,180.554v-3h5.887v3H337.829z
	 M334.829,180.554h-5.887v-3h5.887V180.554z M337.829,177.554h-3v-5.887h3V177.554z M334.829,180.554h3v5.887h-3V180.554z
	 M334.829,180.554v-3h3v3H334.829z M258.333,468.834v3h-5.887v-3H258.333z M261.333,471.834v-3h5.887v3H261.333z M258.333,477.721
	v-5.887h3v5.887H258.333z M261.333,468.834h-3v-5.887h3V468.834z M261.333,471.834h-3v-3h3V471.834z M402.326,471.834v-3h5.887v3
	H402.326z M399.326,468.834v3h-5.887v-3H399.326z M402.326,468.834h-3v-5.887h3V468.834z M399.326,477.721v-5.887h3v5.887H399.326z
	 M402.326,471.834h-3v-3h3V471.834z M451.708,180.554h-5.887v-3h5.887V180.554z M454.708,180.554v-3h5.887v3H454.708z
	 M454.708,177.554h-3v-5.887h3V177.554z M451.708,180.554h3v5.887h-3V180.554z M451.708,180.554v-3h3v3H451.708z M236.694,116.808
	l-11.079,19.07h22.158L236.694,116.808z M236.694,122.779l5.867,10.098h-11.733L236.694,122.779z M347.296,479.126l-11.079-19.07
	l-11.079,19.07H347.296z M342.083,476.126h-11.732l5.866-10.098L342.083,476.126z M486.209,116.808l-11.079,19.07h22.158
	L486.209,116.808z M486.209,122.779l5.866,10.098h-11.732L486.209,122.779z"></path>
<path id="color_x5F_3" fill="#000000" d="M256.467,252.843l1.184-1.5h220.111v154.658H222.258V251.343h10.426
	c0.612,0.53,1.187,1.03,1.724,1.5h-10.649v151.658h252.504V252.843H256.467z M223.758,404.501h252.504V252.843H256.467l-1.184,1.5
	h219.479v148.658H225.258V254.343h10.85c-0.505-0.451-1.08-0.957-1.7-1.5h-10.649V404.501z M170.16,116.72c-7.5-2-8-9-19-10
	c-7.25-0.659-15.5,4.5-15.5,14c0,8.078,2.5,17,2.5,17l0.08,0.188l-0.169,2.584l0.01,0.019l4.114,8.896v-2.178v-9.534
	c4.966-13.975,9.296-8.975,14.966-8.975c6.596,0,11.5-5,15.886,9.051v11.637l4.112-8.891l0.012-0.025l-0.006-0.095
	c0.055-1.186,0.497-10.893,0.497-14.177C177.66,122.72,177.66,118.72,170.16,116.72z M285.063,218.849
	c0.295,2.445-0.346,5.001-2.011,7.073c-2.04,2.54-5.109,3.75-8.13,3.53l-11.355,14.393h219.378V413.5h-267.37V243.844h8.327
	c-9.3-7.874-20.376-17.099-25.126-21.048c-1.223,13.61-4.418,42.081-8.882,58.76c0.225,1.029,0.38,1.746,0.458,2.057
	c-0.015,1.045,0.737,11.522,1.922,27.281c1.562,3.725,2.45,7.955,2.45,12.445c0,10.856,2.39,55.99-0.945,79.735
	c0.008,0.335,0.028,0.665,0.025,1.003c-0.04,5.022,0.392,19.633,0.246,34.418h319.547V218.849H285.063z M149.149,142.184
	c-0.766,0.01-1.356,1.024-1.327,2.263c0.03,1.243,0.68,2.239,1.436,2.23c0.767-0.009,1.354-1.024,1.326-2.264
	C150.557,143.173,149.91,142.175,149.149,142.184z M165.855,142.184c-0.76-0.009-1.406,0.989-1.435,2.23
	c-0.027,1.24,0.56,2.255,1.324,2.264c0.759,0.009,1.409-0.987,1.438-2.23C167.213,143.208,166.621,142.194,165.855,142.184z
	 M174.469,494.367h0.685l-1.509-8.029L174.469,494.367z M190.595,497.497h26.803L188.521,476.4L190.595,497.497z M125.653,497.497
	l2.074-21.097l-28.877,21.097H125.653z M423.694,334.98H271.598c-1.75,0-3.169,0.578-3.169,1.292c0,0.713,1.419,1.292,3.169,1.292
	h152.097c1.751,0,3.169-0.579,3.169-1.292C426.863,335.559,425.445,334.98,423.694,334.98z M270.52,358.697h100.384
	c1.155,0,2.092-0.578,2.092-1.293c0-0.713-0.937-1.291-2.092-1.291H270.52c-1.154,0-2.091,0.578-2.091,1.291
	C268.429,358.119,269.365,358.697,270.52,358.697z M269.354,348.59h44.412c0.511,0,0.925-0.578,0.925-1.292
	s-0.414-1.292-0.925-1.292h-44.412c-0.511,0-0.926,0.578-0.926,1.292S268.844,348.59,269.354,348.59z M328.926,346.006
	c-0.512,0-0.926,0.578-0.926,1.292s0.414,1.292,0.926,1.292h44.412c0.511,0,0.925-0.578,0.925-1.292s-0.414-1.292-0.925-1.292
	H328.926z M387.571,347.298c0,0.714,0.37,1.292,0.826,1.292h39.587c0.455,0,0.824-0.578,0.824-1.292s-0.369-1.292-0.824-1.292
	h-39.587C387.941,346.006,387.571,346.584,387.571,347.298z"></path>
<path id="color_x5F_2" fill="#f39501" d="M105.554,408.182h-41.27v-50.989l16.712-10.798v-4.027v-10.38
	c0-0.695,0.142-1.358,0.396-1.961c0.765-1.809,2.556-3.077,4.644-3.077c0.338,0,0.666,0.034,0.985,0.098
	c2.31,0.458,4.053,2.495,4.053,4.94v10.205v4.72l14.48,10.28V408.182z M122.314,404.078c0.09,11.418-2.256,72.383,5.284,72.322
	c7.54-0.06,22.112-61.123,22.022-72.54c-0.042-5.18-1.347-9.893-3.455-13.504c4.361-10.982,8.571-23.741,11.893-35.307
	c3.322,11.565,7.532,24.324,11.893,35.307c-2.108,3.611-3.413,8.324-3.455,13.504c-0.09,11.417,14.482,72.48,22.022,72.54
	c4.223,0.034,5.345-19.078,5.53-37.904c0.146-14.785-0.286-29.396-0.246-34.418c0.003-0.338-0.018-0.668-0.025-1.003
	c3.335-23.745,0.945-68.879,0.945-79.735c0-4.49-0.888-8.721-2.45-12.445c0.048,0.641,0.097,1.287,0.146,1.945h-7.499h-21.736
	h-10.252h-29.833c-1.099,3.228-1.706,6.775-1.706,10.5c0,10.856-2.39,55.99,0.945,79.735
	C122.332,403.41,122.312,403.74,122.314,404.078z M525.064,500.497c0,1.657-1.343,3-3,3H84.02c-1.657,0-3-1.343-3-3s1.343-3,3-3
	h14.831h26.803h64.941h26.803h230.065c-4.701-3.325-9.011-6.173-13.36-11.007c-6.117-6.805,2.198-14.19,11.925-11.311
	c4.46,1.32,10.839,6.9,15.55,12.556c0.334,3.292,0.545,6.542,1.073,9.762h2.651c-0.133-2.121-0.378-4.89-0.839-8.374
	c-1.209-9.149-3.627-15.37-3.384-24.519c0.242-9.149,11.359-8.783,16.434,0c4.048,7.003,1.642,25.627,0.5,32.893h2.851
	c0.804-3.337,1.441-6.706,1.787-10.119c4.714-5.655,10.269-11.234,14.727-12.556c9.727-2.879,18.046,4.505,11.927,11.311
	c-4.506,5.008-8.968,7.882-13.868,11.364h26.629C523.722,497.497,525.064,498.84,525.064,500.497z M457.563,497.497h3.016
	c-2.586-2.649-5.377-5.093-8.166-7.562c-4.114-3.641-7.837-7.669-12.358-10.824c-1.133-0.791-2.197,1.061-1.076,1.844
	c4.701,3.281,8.695,7.537,12.955,11.358C453.833,494.018,455.732,495.724,457.563,497.497z M471.472,497.497h2.157
	c0.304-4.231,0.183-8.502-0.114-12.731c-0.467-6.614-0.968-13.375-3.333-19.629c-0.482-1.275-2.546-0.724-2.059,0.566
	c0.971,2.564,1.62,5.219,2.093,7.916c0.42,2.854,0.75,5.719,0.995,8.594c0.063,0.852,0.116,1.705,0.167,2.553
	C471.631,489.012,471.774,493.271,471.472,497.497z M480.924,497.497h3.697c0.702-0.705,1.396-1.42,2.103-2.12
	c1.256-0.957,2.525-1.905,3.725-2.938c4.491-3.865,9.08-7.598,13.213-11.857c0.959-0.987-0.551-2.499-1.51-1.51
	c-4.361,4.496-9.176,8.75-14.122,12.594C485.604,493.551,483.064,495.338,480.924,497.497z"></path>
<path id="color_x5F_1" fill="#0984E3" d="M124.56,283.615c-0.058,0.241-0.067,0.244-0.018-0.038
	C124.554,283.515,124.56,283.532,124.56,283.615z M282.073,212.991c-0.16-0.15-0.32-0.3-0.48-0.43l-2.014-1.617l-15.756-12.653
	c-0.153-0.123-0.314-0.229-0.472-0.34c-4.076-2.875-9.731-2.136-12.898,1.81c-2.74,3.41-2.73,8.12-0.29,11.5l-2.99,6.29
	c0,0-37.465-32.631-43.986-32.17c-0.9-0.206-1.809-0.41-2.73-0.607c-2.273-0.483-4.598-0.95-6.913-1.374
	c-1.193-0.216-2.377-0.371-3.554-0.476c-3.534-0.328-6.965-0.233-10.059-0.233c-1.885,0-3.647-0.035-5.229-0.233v-3.612h-2.587
	H142.88h-2.504v3.776c-1.712,0.251-3.483,0.501-5.271,0.778c-0.763,0.112-1.513,0.225-2.274,0.346c0,0-26.558,5.203-33.012,8.072
	c-3.354,1.486-5.894,5.738-7.735,10.31c-1.399,3.483-2.403,7.156-3.051,9.956c-0.648,2.8-0.95,4.736-0.95,4.736l-10.532,44.46
	c-4.225,0.967-7.378,4.741-7.378,9.258c0,4.367,2.947,8.037,6.959,9.151c0.812,0.225,1.663,0.355,2.547,0.355h20.509h2.279
	c5.252,0,9.507-4.256,9.507-9.506c0-3.108-1.499-5.86-3.805-7.595l8.434-40.861c0.863,6.473,2.608,16.567,2.608,16.567
	c0.312,1.46,3.518,25.979,6.102,41.56c-0.38,1.755-0.647,2.973-0.753,3.405v0.001c0.016,1.092-0.798,12.387-2.068,29.225h0.609
	h29.833h10.252h21.736h7.499c-0.05-0.658-0.098-1.305-0.146-1.945c-1.185-15.759-1.937-26.236-1.922-27.281
	c-0.078-0.311-0.233-1.028-0.458-2.057c4.464-16.68,7.659-45.15,8.882-58.76c4.75,3.949,15.826,13.174,25.126,21.048
	c3.265,2.764,6.306,5.357,8.781,7.5c0.612,0.53,1.187,1.03,1.724,1.5c0.621,0.543,1.195,1.049,1.7,1.5
	c1.416,1.264,2.35,2.141,2.615,2.478c3.11,3.95,8.73,4.76,12.82,1.96c0.18-0.12,0.36-0.24,0.53-0.37l3.21-4.068l1.184-1.5l1.184-1.5
	l5.917-7.5l11.355-14.393c3.021,0.22,6.09-0.99,8.13-3.53c1.665-2.071,2.306-4.627,2.011-7.073
	C284.801,216.666,283.794,214.571,282.073,212.991z M365.986,304.227l-9.57-4.617l0.245,11.545l7.991,14.791l1.971-8.444l8.145,2.98
	L365.986,304.227z M324.154,320.481l8.145-2.98l1.973,8.444l7.572-14.018l0.26-12.318l-9.024,4.354L324.154,320.481z"></path>
</svg>