<?xml version="1.0" standalone="no"?>
<svg version="1.1" id="Layer_11" xmlns="http://www.w3.org/2000/svg" xmlns:xlink="http://www.w3.org/1999/xlink" x="0px" y="0px" width="595.279px" height="595.279px" viewBox="0 0.001 595.279 595.279" enable-background="new 0 0.001 595.279 595.279" xml:space="preserve">
<path id="color_x5F_6" fill="#000000" d="M331.619,312.462H207.723V182.409h123.896V312.462z M456.872,297.209
	c0-1.501-1.217-2.718-2.718-2.718h-92.692c-1.501,0-2.718,1.217-2.718,2.718l0,0c0,1.501,1.217,2.718,2.718,2.718h92.692
	C455.655,299.927,456.872,298.711,456.872,297.209L456.872,297.209z M456.872,317.292c0-1.5-1.217-2.717-2.718-2.717h-92.692
	c-1.501,0-2.718,1.217-2.718,2.717l0,0c0,1.502,1.217,2.719,2.718,2.719h92.692C455.655,320.01,456.872,318.794,456.872,317.292
	L456.872,317.292z M456.872,337.376c0-1.502-1.217-2.719-2.718-2.719h-92.692c-1.501,0-2.718,1.217-2.718,2.719l0,0
	c0,1.501,1.217,2.718,2.718,2.718h92.692C455.655,340.094,456.872,338.877,456.872,337.376L456.872,337.376z M568.74,410.651
	c0-17.601-31.92-33.15-80.78-42.561c-2.729-0.53-5.51-1.03-8.34-1.52c-4.58,6.859-12.4,11.38-21.271,11.38h-101.08
	c-11.399,0-21.06-7.46-24.35-17.771c-2.01,0.141-4.01,0.28-5.99,0.431c-79.67,6.18-138.04,26.25-138.04,50.04
	c0,1.702,0.309,3.385,0.893,5.046c-44.375,9.519-72.893,24.325-72.893,40.956c0,28.72,85.033,52,189.926,52
	c104.893,0,189.926-23.28,189.926-52c0-1.702-0.309-3.385-0.893-5.045C540.222,442.09,568.74,427.283,568.74,410.651z"></path>
<path id="color_x5F_5" fill="#FFD2BB" d="M313.54,198.243c-0.15-0.34-0.33-0.66-0.521-0.95c0.021-0.21,0.04-0.42,0.061-0.63
	c0.35-2.9,0.09-5.7-0.66-8.25l-0.11-0.01c-0.26-0.033-1.526-0.153-3.062-0.281c-0.495-0.041-1.018-0.083-1.544-0.124
	c-0.323,6.738-3.965,12.537-9.22,15.594c-0.001,0.129-0.011,0.262-0.034,0.401c-0.44,2.56,0.15,7.08,1.819,9.54
	c2.25,1.07,4.391,1.77,6.171,1.98c6.34,0.77,6.189-4.81,6.279-11.87c0.681-0.04,1.29-0.16,1.73-0.34
	C316.44,202.463,314.53,200.603,313.54,198.243z M309.709,197.034c-0.088,0.882-0.592,1.553-1.137,1.494
	c-0.539-0.059-0.912-0.823-0.828-1.708c0.086-0.882,0.592-1.551,1.137-1.492C309.422,195.385,309.797,196.15,309.709,197.034z
	 M276.315,218.237c0,0.044-0.004,0.081-0.004,0.124l-0.21-0.127l5.948-14.348c2.395,1.28,5.089,2.018,7.952,2.018
	c1.864,0,3.657-0.315,5.343-0.883c-0.182,4.114,0.972,9.041,3.437,11.823l-1.182,6.507L276.315,218.237z M390.9,231.603
	c0,4.282-3.769,7.753-8.416,7.753c-0.632,0-1.246-0.069-1.838-0.191c-2.981-0.613-5.364-2.679-6.227-5.352
	c-0.226-0.701-0.352-1.442-0.352-2.21c0-4.282,3.768-7.753,8.416-7.753C387.132,223.85,390.9,227.321,390.9,231.603z
	 M246.61,317.293c0,4.282-3.768,7.753-8.416,7.753c-4.648,0-8.416-3.471-8.416-7.753s3.768-7.753,8.416-7.753
	C242.842,309.54,246.61,313.01,246.61,317.293z"></path>
<path id="color_x5F_3" fill="#fae756" d="M461.71,103.751h-107.57c-15.029,0-27.21,12.18-27.21,27.21v229.96
	c0,15.03,12.181,27.22,27.21,27.22h107.57c12.54,0,23.11-8.5,26.25-20.05c0.63-2.28,0.96-4.689,0.96-7.17v-229.96
	C488.92,115.931,476.73,103.751,461.71,103.751z M458.349,377.951h-101.08c-11.399,0-21.06-7.46-24.35-17.771
	c-0.8-2.449-1.22-5.069-1.22-7.79v-215.89c0-14.11,11.45-25.55,25.569-25.55H381.2v16.28c0,4.93,4,8.93,8.939,8.93h35.341
	c4.939,0,8.939-4,8.939-8.93v-16.28h23.93c14.12,0,25.57,11.44,25.57,25.55v215.89c0,5.25-1.58,10.13-4.3,14.181
	C475.04,373.43,467.219,377.951,458.349,377.951z M300.269,213.533c-0.27-0.12-0.539-0.25-0.819-0.39l-0.67,3.7
	c-2.464-2.782-3.618-7.708-3.437-11.823c1.098-0.369,2.147-0.85,3.141-1.428c-0.001,0.129-0.011,0.262-0.034,0.401
	C298.01,206.553,298.6,211.073,300.269,213.533z M309.709,197.034c-0.088,0.882-0.592,1.553-1.137,1.494
	c-0.539-0.059-0.912-0.823-0.828-1.708c0.086-0.882,0.592-1.551,1.137-1.492C309.422,195.385,309.797,196.15,309.709,197.034z
	 M276.1,309.624h-12.341c0.001-0.053,0.008-0.205,0.02-0.438C267.21,309.184,271.44,308.921,276.1,309.624z M303.563,462.601
	c0,0-14.517-59.136-15.167-69.396c-0.299-4.712,0.452-9.066,1.914-12.447c-3.784-7.824-7.693-17.319-11.241-26.685
	c-5.609,14.854-9.14,30.247-21.716,45.678c-6.924,8.495-47.211,49.391-47.211,49.391s23.283-52.484,29.476-61.532
	c3.761-5.495,8.553-9.34,12.836-10.771c-1.729-20.177,1.092-55.358,3.129-70.827c-0.169-0.709,4.13,3.178,8.196,3.176
	c-0.012,0.232-0.019,0.385-0.02,0.438c0,0,3.451-0.439,0.02-0.438c0.11-2.191,0.673-12.111,1.597-24.453
	c1.634-21.819,4.398-51.208,7.792-58.845c0.454-1.021,0.918-1.659,1.393-1.832c0.893-1.193,1.726-2.685,1.75-5.696
	c0-0.043,0.004-0.08,0.004-0.124l21.283,5.113l0.206,0.049c1.764,1.074,0.384,3.689-0.054,6.201
	c-0.232,1.333-0.203,2.638,0.714,3.666c2.572,2.877,3.209,41.584,2.828,62.937c-0.121,6.822-0.347,11.878-0.647,13.421
	c0,0-2.081,0.671-0.172,0.707c5.606,0.108,6.602-1.194,6.602-1.194v-0.001c1.879,15.762,2.634,80.53,2.772,82.711
	C310.499,402.103,303.563,462.601,303.563,462.601z M293,309.624h7.645l-0.172,0.707C298.563,310.295,296.122,310.094,293,309.624z
	 M318.087,198.531c0,0.276-0.224,0.5-0.5,0.5h-18.168c-0.231,1.559-1.563,2.759-3.186,2.759c-1.786,0-3.233-1.447-3.233-3.233
	c0-1.786,1.448-3.233,3.233-3.233c1.605,0,2.928,1.173,3.181,2.707h18.173C317.863,198.031,318.087,198.255,318.087,198.531z"></path>
<path id="color_x5F_2" fill="#f39200" d="M199.538,312.462l-65.027,22.517v-173.51l65.027,20.941V312.462z M487.477,342.802
	l65.026,32.378V125.671l-65.026,30.113V342.802z M384.484,207.621V190.23c0-1.104-0.896-2-2-2s-2,0.896-2,2v17.391
	c0,1.104,0.896,2,2,2S384.484,208.725,384.484,207.621z M384.484,270.656v-17.391c0-1.104-0.896-2-2-2s-2,0.896-2,2v17.391
	c0,1.104,0.896,2,2,2S384.484,271.76,384.484,270.656z M361.661,230.443c0-1.104-0.896-2-2-2h-17.39c-1.104,0-2,0.896-2,2
	s0.896,2,2,2h17.39C360.765,232.443,361.661,231.548,361.661,230.443z M424.697,230.443c0-1.104-0.896-2-2-2h-17.389
	c-1.104,0-2,0.896-2,2s0.896,2,2,2h17.389C423.802,232.443,424.697,231.548,424.697,230.443z M367.76,215.719
	c0.781-0.781,0.781-2.047,0-2.828l-12.297-12.296c-0.781-0.781-2.047-0.781-2.828,0c-0.781,0.781-0.781,2.047,0,2.828l12.297,12.296
	c0.391,0.391,0.902,0.586,1.414,0.586S367.369,216.109,367.76,215.719z M412.334,260.292c0.781-0.781,0.781-2.047,0-2.828
	l-12.297-12.297c-0.781-0.781-2.047-0.781-2.828,0c-0.781,0.781-0.781,2.047,0,2.828l12.297,12.297
	c0.391,0.391,0.902,0.586,1.414,0.586S411.943,260.682,412.334,260.292z M400.037,215.719l12.297-12.297
	c0.781-0.781,0.781-2.047,0-2.828c-0.781-0.781-2.047-0.781-2.828,0l-12.297,12.297c-0.781,0.781-0.781,2.047,0,2.828
	c0.391,0.391,0.902,0.586,1.414,0.586S399.646,216.109,400.037,215.719z M304.554,475.986h27.064l-27.417-13.385L304.554,475.986z
	 M201.755,463.852l25.127,10.057l-16.74-24.768L201.755,463.852z M524.972,120.171c1.06-1.232,1.644-2.874,1.644-4.62
	c0-3.378-2.276-6.798-6.625-6.798c-2.034,0-3.756,0.753-4.981,2.178c-1.06,1.232-1.644,2.874-1.644,4.62
	c0,3.378,2.276,6.798,6.625,6.798C522.025,122.349,523.747,121.596,524.972,120.171z M523.616,115.551
	c0,1.015-0.335,1.985-0.919,2.664c-0.646,0.752-1.557,1.134-2.706,1.134c-2.861,0-3.625-2.388-3.625-3.798
	c0-1.015,0.335-1.985,0.919-2.664c0.646-0.752,1.557-1.134,2.706-1.134C522.852,111.753,523.616,114.141,523.616,115.551z
	 M461.853,166.088c1.06-1.232,1.644-2.874,1.644-4.62c0-3.378-2.276-6.798-6.625-6.798c-2.034,0-3.756,0.753-4.981,2.178
	c-1.06,1.232-1.644,2.874-1.644,4.62c0,3.378,2.276,6.798,6.625,6.798C458.906,168.266,460.628,167.513,461.853,166.088z
	 M460.497,161.468c0,1.015-0.335,1.985-0.919,2.664c-0.646,0.752-1.557,1.134-2.706,1.134c-2.861,0-3.625-2.388-3.625-3.798
	c0-1.015,0.335-1.985,0.919-2.664c0.646-0.752,1.557-1.134,2.706-1.134C459.733,157.67,460.497,160.058,460.497,161.468z
	 M128.603,120.171c1.06-1.232,1.644-2.874,1.644-4.62c0-3.378-2.276-6.798-6.625-6.798c-2.034,0-3.756,0.753-4.981,2.178
	c-1.06,1.232-1.644,2.874-1.644,4.62c0,3.378,2.276,6.798,6.625,6.798C125.656,122.349,127.378,121.596,128.603,120.171z
	 M127.247,115.551c0,1.015-0.335,1.985-0.919,2.664c-0.646,0.752-1.557,1.134-2.706,1.134c-2.861,0-3.625-2.388-3.625-3.798
	c0-1.015,0.335-1.985,0.919-2.664c0.646-0.752,1.557-1.134,2.706-1.134C126.483,111.753,127.247,114.141,127.247,115.551z
	 M297.981,141.386c1.06-1.232,1.644-2.874,1.644-4.62c0-3.378-2.276-6.798-6.625-6.798c-2.034,0-3.756,0.753-4.981,2.178
	c-1.06,1.232-1.644,2.874-1.644,4.62c0,3.378,2.276,6.798,6.625,6.798C295.034,143.564,296.756,142.811,297.981,141.386z
	 M296.625,136.766c0,1.015-0.335,1.985-0.919,2.664c-0.646,0.752-1.557,1.134-2.706,1.134c-2.861,0-3.625-2.388-3.625-3.798
	c0-1.015,0.335-1.985,0.919-2.664c0.646-0.752,1.557-1.134,2.706-1.134C295.861,132.969,296.625,135.356,296.625,136.766z
	 M464.259,246.723h-14.773v3h14.773V246.723z M458.372,240.837h-3v14.773h3V240.837z M178.104,356.109l-11.079,19.07h22.158
	L178.104,356.109z M178.104,362.082l5.867,10.098h-11.734L178.104,362.082z"></path>
<path id="color_x5F_1" fill="#45bc81" d="M116.997,342.802L51.97,375.179V125.671l65.027,30.113V342.802z M248.49,235.285
	c-0.25,0.207-0.5,0.413-0.737,0.641c-4.612,4.438-25.765,31.179-27.035,40.831c-0.628,1.635-0.843,3.452-0.513,5.302
	c0.966,5.411,10.981,36.176,16.391,35.211c5.412-0.964,4.168-33.296,3.204-38.708c-0.248-1.392-0.778-2.662-1.516-3.767
	c3.69-2.1,7.465-4.534,10.813-6.851L255,301.653c-0.086,1.885,0.583,4.357,0.583,4.357s4.13,3.178,8.196,3.176
	c0.11-2.191,0.673-12.111,1.597-24.453c1.634-21.819,4.398-51.208,7.792-58.845l-2.579-0.389
	C261.668,224.153,253.184,228.243,248.49,235.285z M374.42,233.814c-9.815,2.788-25.497,10.903-28.729,13.149
	c-1.32,0.92-2.351,2.11-3.07,3.43c-10.72-7.64-25.44-15.64-29.44-17.21c-0.47-0.18-0.939-0.34-1.41-0.46
	c-1.97-0.95-4.109-1.63-6.39-1.97l-7.63-1.15c-0.23,1.33-0.2,2.63,0.71,3.66c0.32,0.36,0.62,1.29,0.88,2.67
	c0.74,3.88,1.25,11.36,1.58,20.14c0.49,13.06,0.57,28.97,0.37,40.13c0.001,0,0.001,0.001,0.002,0.002
	c-0.121,6.821-0.347,11.876-0.647,13.419l-0.172,0.707c5.606,0.108,6.602-1.194,6.602-1.194v-0.001c0-0.004-0.001-0.007-0.001-0.01
	l15.236-46.732c11.341,2.38,24.4,4.3,29.7,2.66c1.75-0.11,3.49-0.67,5.03-1.74c3.48-2.418,18.37-15.978,23.606-24.148
	C377.665,238.552,375.282,236.487,374.42,233.814z M318.587,195.324c0,3.076,0.041,5.569-3.825,5.569h-12.271
	c-0.171,0-0.316-0.009-0.461-0.019c-1.069,1.052-2.258,1.968-3.546,2.717c-0.994,0.578-2.043,1.059-3.141,1.428
	c-1.687,0.567-3.479,0.883-5.343,0.883c-2.862,0-5.557-0.738-7.952-2.018c-5.805-3.103-9.798-9.477-9.798-16.857
	c0-9.901,7.174-18.007,16.293-18.797c1.494-0.226,3.162-0.321,5.03-0.255l0.056,0.007c0.183,0.015,0.372,0.063,0.563,0.062
	c20.08-0.089,23.618,20.951,18.239,20.369l-0.008-0.001l-0.115-0.014c-0.259-0.031-1.524-0.149-3.059-0.276
	c-0.495-0.041-1.018-0.083-1.544-0.124c-0.141,2.925-0.907,5.671-2.158,8.095c3.756-0.1,6.765-2.548,6.765-5.56
	c0-0.265-0.031-0.522-0.076-0.777h2.527C318.628,189.755,318.587,192.248,318.587,195.324z M318.087,198.531
	c0-0.276-0.224-0.5-0.5-0.5h-18.173c-0.253-1.534-1.575-2.707-3.181-2.707c-1.786,0-3.233,1.447-3.233,3.233
	c0,1.786,1.448,3.233,3.233,3.233c1.623,0,2.954-1.2,3.186-2.759h18.168C317.863,199.031,318.087,198.808,318.087,198.531z
	 M115.353,409.273c1.06-1.232,1.644-2.874,1.644-4.62c0-3.378-2.276-6.798-6.625-6.798c-2.034,0-3.756,0.753-4.981,2.178
	c-1.06,1.232-1.644,2.874-1.644,4.62c0,3.378,2.276,6.798,6.625,6.798C112.406,411.451,114.128,410.698,115.353,409.273z
	 M113.997,404.653c0,1.015-0.335,1.985-0.919,2.664c-0.646,0.752-1.557,1.134-2.706,1.134c-2.861,0-3.625-2.388-3.625-3.798
	c0-1.015,0.335-1.985,0.919-2.664c0.646-0.752,1.557-1.134,2.706-1.134C113.233,400.855,113.997,403.243,113.997,404.653z
	 M209.141,142.653h-14.773v3h14.773V142.653z M203.255,136.766h-3v14.773h3V136.766z M512.528,395.118l-11.079,19.07h22.158
	L512.528,395.118z M512.528,401.091l5.867,10.098h-11.734L512.528,401.091z M456.872,194.35l-11.079,19.07h22.158L456.872,194.35z
	 M456.872,200.323l5.867,10.098h-11.734L456.872,200.323z"></path>
</svg>