<?xml version="1.0" standalone="no"?>
<svg version="1.1" id="Layer_1" xmlns="http://www.w3.org/2000/svg" xmlns:xlink="http://www.w3.org/1999/xlink" x="0px" y="0px" width="595.279px" height="595.279px" viewBox="0 0.001 595.279 595.279" enable-background="new 0 0.001 595.279 595.279" xml:space="preserve">
<path id="color_x5F_5" fill="#FFD2BB" d="M153.286,220.885c0.404,1.264,0.381,2.563,0.142,3.719
	c-0.199,4.172-1.122,11.196-3.048,19.121c2.303,1.149,4.507,1.912,6.297,2.128c5.72,0.692,5.585-4.34,5.663-10.706
	c0.612-0.042,1.163-0.146,1.564-0.314c1.795-0.755,0.07-2.431-0.824-4.558c-0.131-0.31-0.292-0.596-0.471-0.861
	c0.018-0.187,0.038-0.375,0.061-0.563c0.316-2.619,0.075-5.148-0.595-7.449l-0.104-0.013
	C161.266,221.303,152.429,220.521,153.286,220.885z M159.625,229.18c-0.081,0.795-0.534,1.401-1.027,1.348
	c-0.485-0.053-0.823-0.743-0.746-1.542c0.077-0.796,0.533-1.4,1.025-1.347C159.365,227.693,159.704,228.383,159.625,229.18z
	 M468.174,253.82l-5.868-14.146c-0.193,0.153-0.381,0.324-0.576,0.467c-0.023,0.021-0.045,0.037-0.076,0.052
	c-2.223,1.618-4.609,2.639-6.881,2.982c-1.207,0.19-2.377,0.188-3.477-0.015c0.652-0.209,1.267-0.532,1.813-0.953
	c0.574-0.435,1.067-0.987,1.456-1.636c0.896-1.483,0.894-3.352-0.479-4.523c-1.842-1.567-4.697-1.067-6.332,0.51
	c-0.857,0.825-1.424,1.912-1.73,3.081c-1.713-2.707-1.918-6.524-0.67-10.43c0.855-0.365-7.98,0.417-8.684,0.502l-0.104,0.013
	c-0.671,2.3-0.912,4.83-0.596,7.449c0.022,0.188,0.043,0.376,0.061,0.563c-0.179,0.266-0.34,0.551-0.471,0.861
	c-0.895,2.127-2.62,3.803-0.824,4.558c0.4,0.168,0.951,0.272,1.563,0.314c0.077,6.366-0.058,11.398,5.663,10.706
	c1.793-0.217,4.004-0.982,6.313-2.135l1.679,9.251l1.099-0.264C455.483,256.192,461.514,253.882,468.174,253.82z M440.04,238.853
	c-0.493,0.053-0.947-0.553-1.027-1.348c-0.079-0.798,0.26-1.488,0.748-1.54c0.492-0.053,0.948,0.551,1.025,1.347
	C440.862,238.11,440.524,238.8,440.04,238.853z M226,300.255c0,1.896-0.589,3.652-1.591,5.104c-1.624,2.353-4.335,3.896-7.409,3.896
	c-2.832,0-5.354-1.311-7.004-3.354c-0.141-0.175-0.274-0.356-0.402-0.542c-0.997-1.442-1.585-3.187-1.592-5.071
	c0-0.011-0.001-0.021-0.001-0.032c0-1.896,0.589-3.653,1.591-5.104c1.624-2.352,4.335-3.896,7.409-3.896s5.785,1.544,7.409,3.896
	C225.41,296.601,226,298.358,226,300.255z M411.276,320.715c0,1.789-0.528,3.452-1.429,4.853c-0.736,1.146-1.731,2.103-2.893,2.815
	c-1.364,0.837-2.961,1.332-4.679,1.332c-4.97,0-9-4.029-9-9c0-4.697,3.601-8.55,8.191-8.959c0.267-0.024,0.535-0.041,0.809-0.041
	c4.094,0,7.544,2.737,8.636,6.479C411.145,318.995,411.276,319.839,411.276,320.715z"></path>
<path id="color_x5F_3" fill="#000000" d="M117,240.264c-3.381,1.671-7.413,3.129-11.375,4.392v-87.656h384.03v109.616
	c-3.104-6.184-7.93-10.018-13.654-11.735v-87.881H117V240.264z M158.764,376.001c1.703,4.787,3.336,9.451,4.774,13.642h276.928
	c1.177-4.304,2.609-8.935,4.175-13.642H158.764z M444.214,333.707c-3.289,1.081-23.204-3.696-34.366-8.14
	c-0.736,1.146-1.731,2.103-2.893,2.815l12.548,38.022l31.776-10.486c-0.715-3.901-2.371-13.187-3.974-23.951
	C446.449,332.712,445.41,333.313,444.214,333.707z M410.912,318.194c11.658-0.993,31.133-0.067,32.361,0.238
	c0.525-1.41,0.238-19.166,0.238-24.921v-8.598c0-9.221,2.048-16.237,5.464-21.255l-57.156,18.862l9.648,29.235
	c0.267-0.024,0.535-0.041,0.809-0.041C406.37,311.715,409.82,314.452,410.912,318.194z M426.721,221.79
	c-0.358-2.97,0.75-5.77,2.741-7.672v-30.117H164.688v19.497c4.604,0.85,7.805,5.194,7.228,9.968
	c-0.486,4.024-3.498,7.113-7.228,7.828v40.707h264.774v-34.711C427.998,225.885,426.986,223.977,426.721,221.79z M394.875,455.986
	c-3.844,6.65,0,27.156,0,27.156l2.724,0.495h0.496c-0.558-4.094-0.48-8.265-0.191-12.385c0.353-5.009,0.731-10.128,2.522-14.863
	c0.365-0.966,1.929-0.548,1.56,0.429c-0.734,1.941-1.228,3.952-1.585,5.994c-0.318,2.161-0.568,4.33-0.754,6.507
	c-0.046,0.646-0.088,1.291-0.127,1.934c-0.246,4.137-0.363,8.29,0.213,12.385h4.279c0.016-1.512,0.14-4.507,0.745-9.086
	c0.915-6.928,2.745-11.638,2.562-18.565C407.135,449.058,398.717,449.336,394.875,455.986z M376.219,466.941
	c3.303,3.404,6.948,6.625,10.693,9.536c1.858,1.443,3.805,2.809,5.438,4.469c-0.615-2.544-1.103-5.113-1.366-7.716
	c-3.568-4.282-7.774-8.507-11.15-9.507c-7.365-2.181-13.664,3.411-9.03,8.564c4.505,5.007,8.951,7.194,14.183,11.35h7.23
	c-1.427-1.463-2.866-2.913-4.316-4.351c-0.951-0.725-1.912-1.442-2.82-2.224c-3.399-2.928-6.875-5.754-10.004-8.979
	C374.349,467.337,375.492,466.192,376.219,466.941z M418.715,463.994c-3.377,1-8.206,5.225-11.773,9.507
	c-0.328,3.236-0.496,6.419-1.241,9.568c2.468-2.889,5.328-5.377,8.182-7.902c3.114-2.757,5.934-5.807,9.356-8.196
	c0.857-0.599,1.665,0.804,0.815,1.396c-3.56,2.484-6.585,5.707-9.81,8.601c-2.389,2.143-4.798,4.268-6.915,6.67h6.58
	c5.081-3.979,9.431-6.184,13.835-11.079C432.378,467.405,426.08,461.813,418.715,463.994z M205.597,455.986
	c-3.844,6.65,0,27.156,0,27.156l2.724,0.495h0.496c-0.558-4.094-0.48-8.265-0.191-12.385c0.353-5.009,0.731-10.128,2.522-14.863
	c0.365-0.966,1.929-0.548,1.56,0.429c-0.734,1.941-1.228,3.952-1.585,5.994c-0.318,2.161-0.568,4.33-0.754,6.507
	c-0.046,0.646-0.088,1.291-0.127,1.934c-0.246,4.137-0.363,8.29,0.213,12.385h4.279c0.016-1.512,0.14-4.507,0.745-9.086
	c0.915-6.928,2.745-11.638,2.562-18.565C217.858,449.058,209.439,449.336,205.597,455.986z M186.941,466.941
	c3.303,3.404,6.948,6.625,10.693,9.536c1.858,1.443,3.805,2.809,5.438,4.469c-0.615-2.544-1.103-5.113-1.366-7.716
	c-3.568-4.282-7.774-8.507-11.15-9.507c-7.365-2.181-13.664,3.411-9.03,8.564c4.505,5.007,8.951,7.194,14.183,11.35h7.23
	c-1.427-1.463-2.866-2.913-4.316-4.351c-0.951-0.725-1.912-1.442-2.82-2.224c-3.399-2.928-6.875-5.754-10.004-8.979
	C185.072,467.337,186.214,466.192,186.941,466.941z M229.437,463.994c-3.377,1-8.206,5.225-11.773,9.507
	c-0.328,3.236-0.496,6.419-1.241,9.568c2.468-2.889,5.328-5.377,8.182-7.902c3.114-2.757,5.934-5.807,9.356-8.196
	c0.857-0.599,1.665,0.804,0.815,1.396c-3.56,2.484-6.585,5.707-9.81,8.601c-2.389,2.143-4.798,4.268-6.915,6.67h6.58
	c5.081-3.979,9.431-6.184,13.835-11.079C243.1,467.405,236.802,461.813,229.437,463.994z M112.992,313.508
	c0.531-2.196,0.822-4.469,0.785-6.797c-0.04-2.505-0.813-5.919-1.712-9.402c-1.694,2.677-3.548,5.215-5.576,7.271
	C107.308,305.067,109.961,308.745,112.992,313.508z"></path>
<path id="color_x5F_2" fill="#f39501" d="M489.654,144.767c0-8.745-7.092-15.835-15.834-15.835H121.46
	c-8.746,0-15.835,7.09-15.835,15.835v12.233h384.03V144.767z M133.148,147.704c-2.127,0-3.852-1.725-3.852-3.852
	c0-2.127,1.725-3.852,3.852-3.852c2.127,0,3.852,1.725,3.852,3.852C137,145.98,135.275,147.704,133.148,147.704z M157.842,147.704
	c-2.127,0-3.852-1.725-3.852-3.852c0-2.127,1.725-3.852,3.852-3.852c2.127,0,3.852,1.725,3.852,3.852
	C161.693,145.98,159.969,147.704,157.842,147.704z M182.535,147.704c-2.127,0-3.852-1.725-3.852-3.852
	c0-2.127,1.725-3.852,3.852-3.852c2.127,0,3.852,1.725,3.852,3.852C186.386,145.98,184.662,147.704,182.535,147.704z M226,300.255
	c0-1.896-0.589-3.653-1.591-5.104h61.058c2.819,0,5.104,2.285,5.104,5.104c0,2.818-2.285,5.104-5.104,5.104h-61.058
	C225.41,303.907,226,302.151,226,300.255z M290.571,325.104c0,2.818-2.285,5.104-5.104,5.104H177.858
	c-2.819,0-5.104-2.285-5.104-5.104s2.285-5.104,5.104-5.104h107.609C288.285,320.001,290.571,322.286,290.571,325.104z
	 M290.571,349.954c0,2.818-2.285,5.104-5.104,5.104H177.858c-2.819,0-5.104-2.285-5.104-5.104s2.285-5.104,5.104-5.104h107.609
	C288.285,344.85,290.571,347.135,290.571,349.954z M498.67,357.9h-0.3h-8.716H476h-24.354c0,0-0.063-0.334-0.177-0.946
	c-0.052-0.28-0.118-0.64-0.19-1.035c-0.715-3.901-2.371-13.187-3.974-23.951c-0.856,0.744-1.896,1.346-3.092,1.739
	c-3.289,1.081-23.204-3.696-34.366-8.14c0.9-1.4,1.429-3.063,1.429-4.853c0-0.876-0.131-1.72-0.364-2.521
	c11.658-0.993,31.133-0.067,32.361,0.238c0.525-1.41,0.238-19.166,0.238-24.921v-8.598c0-9.221,2.048-16.237,5.464-21.255
	c0.646-0.947,1.338-1.823,2.076-2.629c4.432-4.837,10.463-7.147,17.122-7.209c0.092-0.001,0.182-0.006,0.273-0.006
	c2.633,0,5.17,0.352,7.553,1.067c5.725,1.718,10.551,5.551,13.654,11.735c2.361,4.704,3.728,10.765,3.728,18.296v8.598
	c0,7.45,2.023,32.239,3.513,48.92c0.003-0.026,0.008-0.053,0.011-0.079C497.877,351.475,498.67,357.9,498.67,357.9z
	 M209.594,305.358c-0.997-1.442-1.585-3.187-1.592-5.071c0-0.011-0.001-0.021-0.001-0.032c0-1.896,0.589-3.653,1.591-5.104h-31.733
	c-2.479,0-4.542,1.769-5.004,4.112c-1.548-0.045-2.896-0.105-3.958-0.191c-3.983-10.415-9.62-22.49-9.62-25.933
	c0-1.657-0.372-3.225-1.021-4.638c-1.58-7.383-5.356-12.479-10.417-15.531h-0.08c-3.711,11.343-9.482,22.99-18.048,30.011
	c-4.457,3.653-8.684,6.53-12.71,8.612c-3.98,2.059-7.764,3.338-11.375,3.81c-4.328,0.564-8.411-0.026-12.292-1.823
	c-2.988,7.284-4.561,13.181-2.953,14.532c0.031,0.026,0.072,0.034,0.104,0.058c0.007,0.061,0.007,0.12,0.015,0.181
	c0.302,2.37,7.457,10.17,15.126,17.255v2.691c-5.357,7.151-11.378,11.705-11.378,11.705l11.378-0.076L117,339.848l26.705-0.179
	c0,0-0.077-1.354-0.117-3.591c-0.117-6.466,0.068-20.368,3.286-30.721c1.098-3.532,2.905-6.183,4.793-8.481
	c8.122,10.444,20.247,18.521,20.354,18.426c0.123,0.046,0.24,0.099,0.367,0.14c3.64,1.195,27.643-4.781,37.608-9.542
	C209.855,305.725,209.722,305.544,209.594,305.358z M112.992,313.508c-3.031-4.763-5.684-8.44-6.502-8.928
	c2.027-2.057,3.882-4.595,5.576-7.271c0.899,3.483,1.672,6.897,1.712,9.402C113.814,309.039,113.523,311.311,112.992,313.508z
	 M96.425,484.001H76.532v-13.338 M158.107,484.001v-13.338L178,484.001H158.107z M433.565,484.001l19.893-13.338v13.338H433.565z
	 M535.458,470.663v13.338h-19.893L535.458,470.663z"></path>
<path id="color_x5F_1" fill="#0984e3" d="M535.458,470.663c0,0-38.396-43.441-41.756-49.932c-0.226-0.436-0.425-0.877-0.605-1.32
	c-4.575-4.782-10.225-17.02-15.371-30.274c-1.295-3.334-2.558-6.731-3.764-10.093c-2.727,3.575-5.548,7.159-8.359,10.599
	c-3.662,4.479-7.308,8.708-10.702,12.286c2.434,2.438,3.978,6.125,3.959,10.245c-0.035,7.311-5.401,58.489-5.401,58.489
	s-16.554-51.28-16.521-58.588c0.006-1.19,0.153-2.338,0.402-3.435c-0.365-4.132,0.939-11.002,3.126-18.998
	c1.177-4.304,2.609-8.935,4.175-13.642c2.134-6.42,4.514-12.98,6.829-19.047c0.113,0.612,0.177,0.946,0.177,0.946H476h13.654h8.716
	c1.68,13.823,3.371,31.709,3.253,45.001c4.415-0.022,9.027,2.885,11.547,7.752C516.528,417.146,535.458,470.663,535.458,470.663z
	 M325.132,423.325c-0.387-14.68-18.227-14.093-26.369,0c-8.145,14.093,0,57.545,0,57.545l5.771,1.049h1.053
	c-1.182-8.675-1.02-17.514-0.406-26.243c0.746-10.613,1.551-21.462,5.346-31.496c0.773-2.046,4.086-1.16,3.305,0.909
	c-1.557,4.113-2.602,8.375-3.359,12.7c-0.674,4.58-1.203,9.177-1.598,13.788c-0.098,1.369-0.186,2.736-0.268,4.099
	c-0.521,8.765-0.771,17.566,0.449,26.243h9.068c0.033-3.203,0.297-9.55,1.58-19.253C321.641,447.986,325.52,438.005,325.132,423.325
	z M259.231,446.539c6.999,7.213,14.723,14.038,22.659,20.208c3.937,3.058,8.062,5.951,11.524,9.47
	c-1.305-5.392-2.338-10.837-2.896-16.352c-7.561-9.073-16.473-18.025-23.628-20.144c-15.606-4.622-28.953,7.228-19.134,18.147
	c9.545,10.61,18.966,15.244,30.052,24.05h15.32c-3.021-3.101-6.072-6.172-9.146-9.22c-2.014-1.534-4.05-3.055-5.974-4.711
	c-7.206-6.205-14.568-12.192-21.2-19.026C255.27,447.377,257.691,444.951,259.231,446.539z M349.28,440.294
	c-7.154,2.119-17.389,11.071-24.947,20.145c-0.695,6.857-1.051,13.603-2.631,20.275c5.23-6.12,11.291-11.393,17.338-16.745
	c6.598-5.842,12.572-12.305,19.826-17.368c1.816-1.268,3.527,1.704,1.729,2.96c-7.543,5.264-13.955,12.094-20.787,18.225
	c-5.063,4.541-10.168,9.043-14.654,14.134h13.943c10.768-8.434,19.984-13.103,29.318-23.478
	C378.233,447.522,364.887,435.673,349.28,440.294z M158.878,227.64c-0.493-0.053-0.949,0.551-1.025,1.347
	c-0.077,0.799,0.261,1.488,0.746,1.542c0.493,0.053,0.946-0.553,1.027-1.348C159.704,228.383,159.365,227.693,158.878,227.64z
	 M469.327,224.902c-0.275-5.702-2.531-14.083-15.754-13.616l-0.051,0.006c-0.164,0.014-0.336,0.035-0.508,0.056
	c-3.419,0.412-2.166,0.696-5.152,1.188c-0.584,0.096-1.337,0.199-2.316,0.318c-4.291,0.5-7.431-1.563-11.05-1.125
	c-1.967,0.237-3.696,1.114-5.033,2.391c-1.991,1.902-3.1,4.703-2.741,7.672c0.265,2.187,1.276,4.095,2.741,5.499
	c1.839,1.762,4.395,2.729,7.097,2.437l0.006-0.001l0.104-0.013c0.703-0.085,9.539-0.867,8.684-0.502
	c-1.248,3.905-1.043,7.723,0.67,10.43c0.307-1.169,0.873-2.256,1.73-3.081c1.635-1.578,4.49-2.077,6.332-0.51
	c1.373,1.171,1.375,3.04,0.479,4.523c-0.389,0.649-0.882,1.201-1.456,1.636c-0.546,0.42-1.16,0.744-1.813,0.953
	c1.1,0.203,2.27,0.206,3.477,0.015c2.271-0.343,4.658-1.364,6.881-2.982c0.031-0.016,0.053-0.031,0.076-0.052
	c0.195-0.143,0.383-0.314,0.576-0.467c0.844-0.664,1.666-1.391,2.436-2.223c0.406-0.441,0.798-0.904,1.182-1.385
	C467.333,234.273,469.542,229.356,469.327,224.902z M439.76,235.965c-0.488,0.052-0.827,0.742-0.748,1.54
	c0.08,0.795,0.534,1.401,1.027,1.348c0.484-0.053,0.822-0.743,0.746-1.542C440.709,236.515,440.253,235.911,439.76,235.965z
	 M163.538,389.642c-1.438-4.19-3.071-8.854-4.774-13.642c-6.142-17.266-15.059-36.331-15.059-36.331L117,339.848l-11.375,0.076
	l-11.378,0.076c-0.166,5.844,3.091,13.406,8.295,21.507c-0.723,12.37-1.089,28.838-0.127,41.713
	c-3.557,0.864-6.956,3.504-8.99,7.433c-3.359,6.493-16.893,60.01-16.893,60.01s29.772-39.536,35.637-48.709
	c4.607-4.365,10.396-16.772,15.676-30.321c6.741,6.625,13.582,12.558,19.565,17.03c-0.346,1.3-0.537,2.684-0.53,4.124
	c0.035,7.311,11.227,57.876,11.227,57.876s10.729-56.854,10.695-64.162C168.797,405.419,166.619,398.626,163.538,389.642z
	 M147.758,252.969h0.08c-0.022-0.013-0.042-0.03-0.065-0.043C147.768,252.94,147.763,252.954,147.758,252.969z M150.314,243.995
	c0.022-0.09,0.044-0.18,0.066-0.27c-0.005-0.003-0.01-0.005-0.016-0.007L150.314,243.995z M164.688,203.498
	c-0.182-0.034-0.361-0.072-0.546-0.095c-3.619-0.438-6.759,1.625-11.05,1.125c-0.979-0.119-1.732-0.222-2.316-0.318
	c-2.987-0.491-1.733-0.775-5.153-1.188c-0.171-0.021-0.343-0.042-0.508-0.056l-0.05-0.006c-13.223-0.467-15.479,7.914-15.754,13.616
	c-0.039,0.8,0.003,1.616,0.103,2.425c-0.53,5.207-1.996,12.71-6.042,16.958c-1.495,1.57-3.736,3.001-6.372,4.303
	c-3.381,1.671-7.413,3.129-11.375,4.392c-6.642,2.118-13.081,3.691-15.888,4.803c-12.605,4.995-19.72,19.197-8.737,33.521
	c3.901,5.087,7.992,8.59,12.332,10.599c3.882,1.797,7.965,2.388,12.292,1.823c3.612-0.472,7.396-1.751,11.375-3.81
	c4.026-2.083,8.253-4.959,12.71-8.612c8.566-7.021,14.337-18.668,18.048-30.011c0.005-0.015,0.01-0.029,0.015-0.043
	c0.991-3.031,1.832-6.038,2.541-8.931l0.05-0.277c0.005,0.002,0.01,0.004,0.016,0.007c1.926-7.925,2.849-14.948,3.048-19.121
	c0.089-1.87,0.034-3.17-0.142-3.719c-0.856-0.365,7.98,0.417,8.683,0.502l0.104,0.013l0.006,0.001
	c0.893,0.097,1.769,0.054,2.609-0.107c3.73-0.715,6.742-3.804,7.228-7.828C172.493,208.692,169.292,204.347,164.688,203.498z
	 M76.532,470.663l19.893,13.338"></path>
</svg>