<svg width="280" height="159" viewBox="0 0 280 159" fill="none" xmlns="http://www.w3.org/2000/svg">
<g filter="url(#filter0_d)">
<path d="M4.00149 33.8704C4.01911 33.5585 4.12184 33.2575 4.29854 32.9999C4.47524 32.7424 4.71914 32.5382 5.00375 32.4095C5.65246 32.0171 6.39682 31.8112 7.15498 31.8144C8.1401 31.8144 8.73172 32.1627 8.92162 32.8674L16.7601 60.1355L21.0674 43.0093C21.2881 42.0242 22.1121 41.5231 23.5476 41.5231C24.9153 41.5231 25.7304 42.0242 25.9772 43.0354L30.3352 60.1602L38.1504 32.8421C38.3375 32.1627 38.9236 31.8138 39.9088 31.8138C40.6625 31.8107 41.4027 32.0134 42.0497 32.3999C42.3312 32.5258 42.5732 32.7259 42.7497 32.9788C42.9263 33.2316 43.0308 33.5278 43.052 33.8354C43.0598 33.993 43.0427 34.1508 43.0012 34.303L33.5408 65.3079C33.4366 65.593 33.276 65.8543 33.0687 66.076C32.8615 66.2978 32.6117 66.4756 32.3342 66.5988C31.712 66.9097 31.0253 67.0699 30.3297 67.0663C29.6359 67.0715 28.9501 66.9174 28.3252 66.6159C28.0546 66.5053 27.8133 66.3335 27.6202 66.1139C27.4272 65.8943 27.2876 65.633 27.2125 65.3504L23.5394 50.8848L19.906 65.334C19.8324 65.6169 19.6953 65.8794 19.5053 66.1016C19.3153 66.3238 19.0773 66.4999 18.8092 66.6166C18.1724 66.9285 17.4711 67.0856 16.7622 67.0753C16.0532 67.0856 15.3519 66.9285 14.7151 66.6166C14.4454 66.4987 14.2037 66.325 14.006 66.1068C13.8083 65.8887 13.6591 65.6311 13.5682 65.3511L4.05222 34.3544C4.01169 34.1964 3.99459 34.0333 4.00149 33.8704Z" fill="black"/>
<path d="M46.0492 35.7819C46.0475 35.4268 46.1234 35.0755 46.2715 34.7528C46.4196 34.43 46.6364 34.1434 46.9068 33.9131C47.468 33.4025 48.2049 33.1286 48.9634 33.1487C49.7212 33.1326 50.4567 33.406 51.02 33.9131C51.2915 34.1424 51.5089 34.4288 51.657 34.7518C51.805 35.0749 51.8798 35.4266 51.8763 35.7819C51.8743 36.1328 51.7966 36.4791 51.6486 36.7972C51.5006 37.1153 51.2857 37.3978 51.0187 37.6253C50.4546 38.1343 49.7218 38.4161 48.962 38.4161C48.2023 38.4161 47.4695 38.1343 46.9054 37.6253C46.6371 37.3989 46.4214 37.1167 46.2735 36.7983C46.1256 36.4798 46.0491 36.133 46.0492 35.7819ZM46.4742 65.1052V45.7353C46.4766 45.4958 46.5422 45.2612 46.6646 45.0553C46.7869 44.8494 46.9615 44.6796 47.1707 44.563C47.7098 44.2363 48.3336 44.0767 48.9634 44.1044C49.6009 44.0792 50.2321 44.2385 50.7815 44.563C50.9938 44.6774 51.1718 44.8463 51.2973 45.0524C51.4227 45.2584 51.491 45.4941 51.4951 45.7353V65.1135C51.476 65.3507 51.3985 65.5796 51.2695 65.7797C51.1406 65.9798 50.9642 66.1449 50.7561 66.2604C50.2286 66.6197 49.6014 66.8039 48.9634 66.7869C48.333 66.8078 47.7129 66.623 47.1968 66.2604C46.9924 66.1401 46.82 65.9723 46.6942 65.7712C46.5684 65.5701 46.493 65.3417 46.4742 65.1052Z" fill="black"/>
<path d="M56.7614 65.1051V45.7372C56.7638 45.4977 56.8295 45.2632 56.9518 45.0573C57.0741 44.8514 57.2488 44.6815 57.458 44.5649C57.997 44.2382 58.6209 44.0786 59.2506 44.1063C59.8207 44.0867 60.3825 44.2471 60.8562 44.5649C61.0548 44.6912 61.2181 44.8656 61.3311 45.072C61.444 45.2785 61.5028 45.5101 61.502 45.7454V47.4867C62.0624 46.4045 62.9159 45.5017 63.9651 44.8817C65.1535 44.1583 66.5236 43.7892 67.9145 43.8177C69.036 43.819 70.1434 44.0687 71.1568 44.549C72.1703 45.0293 73.0648 45.7283 73.7759 46.5955C75.407 48.4216 76.287 50.7972 76.239 53.2453V65.1051C76.2383 65.3568 76.1691 65.6036 76.039 65.819C75.9088 66.0344 75.7225 66.2104 75.5 66.3281C74.9626 66.6275 74.3579 66.7853 73.7427 66.7868C73.1275 66.7882 72.522 66.6332 71.9832 66.3364C71.7555 66.2252 71.5633 66.0526 71.4284 65.8381C71.2935 65.6236 71.2211 65.3757 71.2195 65.1223V53.2782C71.2169 52.6405 71.0888 52.0096 70.8424 51.4215C70.5959 50.8333 70.2361 50.2995 69.7833 49.8505C69.3572 49.3701 68.834 48.9854 68.2484 48.7219C67.6628 48.4584 67.0279 48.322 66.3858 48.3217C65.7879 48.3202 65.1959 48.4399 64.6455 48.6736C64.0951 48.9072 63.5978 49.25 63.1836 49.6811C62.7167 50.1535 62.3527 50.7173 62.1144 51.3372C61.8761 51.9571 61.7686 52.6195 61.7988 53.283V65.1134C61.7775 65.3532 61.6963 65.5839 61.5628 65.7842C61.4292 65.9846 61.2476 66.1483 61.0344 66.2603C60.5139 66.6136 59.8968 66.7975 59.2678 66.7868C58.6374 66.8076 58.0173 66.6228 57.5011 66.2603C57.2949 66.1404 57.1202 65.973 56.9916 65.7722C56.8629 65.5713 56.7841 65.3426 56.7614 65.1051Z" fill="black"/>
<path d="M80.4352 57.6464V53.2466C80.3898 50.7896 81.29 48.409 82.9498 46.5968C83.693 45.719 84.6198 45.0149 85.6648 44.5342C86.7097 44.0536 87.8474 43.808 88.9976 43.8149C90.3184 43.7923 91.6162 44.1618 92.727 44.8768C93.7579 45.5278 94.6128 46.4224 95.2162 47.4819V32.2821C95.2203 32.0409 95.2886 31.8052 95.414 31.5991C95.5395 31.3931 95.7175 31.2242 95.9298 31.1098C96.48 30.7881 97.1112 30.6317 97.7479 30.6594C98.3764 30.6333 98.999 30.7897 99.5406 31.1098C99.7485 31.2278 99.9221 31.398 100.044 31.6036C100.166 31.8091 100.233 32.043 100.237 32.2821V65.0962C100.22 65.3309 100.146 65.558 100.022 65.7578C99.8976 65.9576 99.7265 66.1241 99.5234 66.2431C99.0067 66.6045 98.3871 66.7892 97.7568 66.7696C97.1752 66.7774 96.608 66.5879 96.1478 66.2321C95.9482 66.1064 95.7811 65.9353 95.6601 65.7328C95.5391 65.5303 95.4675 65.3021 95.4513 65.0667V63.3803C94.8582 64.4996 93.9533 65.423 92.8463 66.0388C91.2682 67.0075 89.3888 67.3612 87.5665 67.0325C85.7443 66.7037 84.1069 65.7155 82.9669 64.2564C81.3228 62.4492 80.419 60.0895 80.4352 57.6464ZM85.4555 57.6293C85.4573 58.9368 85.9737 60.191 86.893 61.1207C87.3159 61.6063 87.838 61.9956 88.4241 62.2623C89.0102 62.529 89.6467 62.6669 90.2906 62.6666C91.5707 62.6513 92.7926 62.1289 93.6881 61.2139C94.7073 60.2455 95.2169 59.413 95.2169 58.7165V53.2548C95.2396 52.5888 95.1186 51.9256 94.8621 51.3105C94.6057 50.6954 94.2197 50.1427 93.7306 49.69C92.8216 48.8047 91.602 48.3107 90.3331 48.3141C89.6878 48.3142 89.0498 48.4496 88.4601 48.7115C87.8704 48.9734 87.3422 49.356 86.9095 49.8347C86.4507 50.2796 86.0852 50.8115 85.8343 51.3994C85.5835 51.9872 85.4524 52.6191 85.4486 53.2582V57.6327L85.4555 57.6293Z" fill="black"/>
<path d="M103.396 46.0175C103.42 45.6974 103.53 45.3897 103.716 45.1278C103.901 44.8658 104.155 44.6596 104.449 44.5313C105.096 44.1338 105.839 43.9205 106.598 43.9143C106.918 43.8727 107.243 43.9396 107.52 44.1045C107.797 44.2693 108.011 44.5224 108.127 44.8233L113.436 59.6995L117.504 46.4988C117.666 46.1675 117.917 45.8883 118.23 45.6929C118.542 45.4976 118.903 45.394 119.271 45.394C119.64 45.394 120.001 45.4976 120.313 45.6929C120.626 45.8883 120.877 46.1675 121.038 46.4988L125.056 59.7928L130.417 44.8171C130.521 44.5168 130.726 44.262 130.997 44.0962C131.268 43.9304 131.588 43.8639 131.903 43.9081C132.656 43.9202 133.392 44.1332 134.035 44.5251C134.337 44.6568 134.598 44.869 134.788 45.1386C134.978 45.4081 135.091 45.7247 135.114 46.0538C135.11 46.3204 135.043 46.5822 134.919 46.8182L127.504 66.2348C127.249 66.906 126.578 67.2371 125.49 67.2371C124.403 67.2371 123.724 66.9142 123.434 66.2773L119.271 53.9376L115.158 66.1354C114.869 66.8662 114.156 67.2398 113.009 67.2398C111.956 67.2398 111.285 66.8744 111.004 66.1354L103.595 46.8079C103.486 46.5571 103.419 46.2901 103.396 46.0175Z" fill="black"/>
<path d="M137.833 35.7819C137.831 35.4268 137.907 35.0755 138.055 34.7528C138.203 34.43 138.42 34.1434 138.69 33.9131C139.252 33.4025 139.989 33.1286 140.747 33.1487C141.505 33.1326 142.24 33.406 142.804 33.9131C143.075 34.1423 143.293 34.4286 143.441 34.7517C143.59 35.0747 143.665 35.4265 143.661 35.7819C143.659 36.1328 143.581 36.4792 143.433 36.7973C143.285 37.1154 143.07 37.3979 142.803 37.6253C142.239 38.1343 141.506 38.4161 140.746 38.4161C139.987 38.4161 139.254 38.1343 138.69 37.6253C138.423 37.3977 138.208 37.1152 138.06 36.7971C137.912 36.479 137.835 36.1327 137.833 35.7819ZM138.266 65.1052V45.7353C138.268 45.4958 138.334 45.2612 138.456 45.0553C138.579 44.8494 138.753 44.6796 138.963 44.563C139.502 44.2363 140.126 44.0767 140.755 44.1044C141.393 44.0792 142.024 44.2385 142.573 44.563C142.786 44.6775 142.964 44.8464 143.089 45.0524C143.214 45.2584 143.283 45.4941 143.287 45.7353V65.1135C143.268 65.3507 143.19 65.5796 143.061 65.7797C142.933 65.9798 142.756 66.1449 142.548 66.2604C142.021 66.6197 141.393 66.8039 140.755 66.7869C140.125 66.8078 139.505 66.623 138.989 66.2604C138.784 66.1401 138.612 65.9723 138.486 65.7712C138.36 65.5701 138.285 65.3417 138.266 65.1052Z" fill="black"/>
<path d="M148.553 65.1051V45.7372C148.556 45.4977 148.621 45.2631 148.744 45.0572C148.866 44.8514 149.041 44.6815 149.25 44.5649C149.789 44.2382 150.413 44.0786 151.043 44.1063C151.613 44.0866 152.174 44.2471 152.648 44.5649C152.847 44.6911 153.01 44.8656 153.123 45.072C153.236 45.2785 153.295 45.5101 153.294 45.7454V47.4867C153.854 46.4045 154.708 45.5017 155.757 44.8816C156.946 44.1589 158.316 43.7904 159.707 43.8197C160.829 43.821 161.936 44.0708 162.949 44.5511C163.963 45.0314 164.857 45.7303 165.568 46.5975C167.2 48.4237 168.08 50.7992 168.032 53.2473V65.1072C168.031 65.3589 167.962 65.6056 167.832 65.8211C167.701 66.0365 167.515 66.2125 167.293 66.3302C166.755 66.6296 166.15 66.7874 165.535 66.7888C164.92 66.7903 164.315 66.6353 163.776 66.3384C163.548 66.2272 163.355 66.0546 163.22 65.84C163.085 65.6253 163.013 65.3772 163.011 65.1236V53.2781C163.009 52.6398 162.882 52.0082 162.635 51.4193C162.389 50.8304 162.029 50.2959 161.576 49.8463C161.15 49.3659 160.627 48.9813 160.041 48.7178C159.455 48.4543 158.821 48.3179 158.178 48.3176C157.58 48.3161 156.988 48.4358 156.438 48.6694C155.888 48.9031 155.39 49.2458 154.976 49.677C154.509 50.1493 154.145 50.7132 153.907 51.333C153.669 51.9529 153.561 52.6154 153.591 53.2788V65.1133C153.57 65.3532 153.489 65.5838 153.355 65.7842C153.222 65.9846 153.04 66.1482 152.827 66.2602C152.306 66.6136 151.689 66.7975 151.06 66.7867C150.43 66.8076 149.81 66.6228 149.294 66.2602C149.087 66.1404 148.913 65.9731 148.784 65.7722C148.655 65.5714 148.576 65.3426 148.553 65.1051Z" fill="black"/>
<path d="M173.085 65.1051V45.7372C173.088 45.4977 173.153 45.2631 173.276 45.0572C173.398 44.8514 173.573 44.6815 173.782 44.5649C174.321 44.2382 174.945 44.0786 175.575 44.1063C176.145 44.0866 176.706 44.2471 177.18 44.5649C177.379 44.6911 177.542 44.8656 177.655 45.072C177.768 45.2785 177.827 45.5101 177.826 45.7454V47.4867C178.386 46.4045 179.24 45.5017 180.289 44.8816C181.478 44.1589 182.848 43.7904 184.239 43.8197C185.361 43.821 186.468 44.0708 187.482 44.5511C188.495 45.0314 189.389 45.7303 190.101 46.5975C191.732 48.4237 192.612 50.7992 192.564 53.2473V65.1072C192.563 65.3589 192.494 65.6056 192.364 65.8211C192.233 66.0365 192.047 66.2125 191.825 66.3302C191.287 66.6296 190.683 66.7874 190.067 66.7888C189.452 66.7903 188.847 66.6353 188.308 66.3384C188.081 66.2263 187.889 66.0534 187.754 65.839C187.619 65.6246 187.546 65.377 187.544 65.1236V53.2781C187.542 52.6398 187.414 52.0082 187.167 51.4193C186.921 50.8304 186.561 50.2959 186.108 49.8463C185.683 49.3644 185.16 48.9787 184.574 48.7151C183.988 48.4515 183.353 48.3159 182.71 48.3176C182.113 48.3161 181.521 48.4358 180.97 48.6694C180.42 48.9031 179.923 49.2458 179.508 49.677C179.042 50.1493 178.678 50.7131 178.44 51.3328C178.201 51.9526 178.094 52.6149 178.124 53.2781V65.1133C178.103 65.3532 178.022 65.5838 177.888 65.7842C177.755 65.9846 177.573 66.1482 177.36 66.2602C176.839 66.6136 176.222 66.7975 175.593 66.7867C174.963 66.8076 174.343 66.6228 173.827 66.2602C173.617 66.144 173.44 65.9777 173.31 65.7761C173.181 65.5745 173.104 65.3439 173.085 65.1051Z" fill="black"/>
<path d="M197.193 35.7819C197.192 35.4268 197.267 35.0755 197.416 34.7528C197.564 34.43 197.78 34.1434 198.051 33.9131C198.612 33.4025 199.349 33.1286 200.107 33.1487C200.865 33.1326 201.601 33.406 202.164 33.9131C202.436 34.1423 202.654 34.4286 202.802 34.7517C202.95 35.0747 203.025 35.4265 203.022 35.7819C203.02 36.1328 202.942 36.4791 202.794 36.7972C202.646 37.1153 202.431 37.3978 202.164 37.6253C201.6 38.1343 200.867 38.4161 200.107 38.4161C199.348 38.4161 198.615 38.1343 198.051 37.6253C197.784 37.3978 197.569 37.1153 197.421 36.7972C197.273 36.4791 197.195 36.1328 197.193 35.7819ZM197.626 65.1052V45.7353C197.629 45.4958 197.695 45.2612 197.817 45.0553C197.939 44.8494 198.114 44.6796 198.323 44.563C198.862 44.2363 199.486 44.0767 200.116 44.1044C200.753 44.0792 201.384 44.2385 201.934 44.563C202.146 44.6775 202.324 44.8464 202.449 45.0524C202.575 45.2584 202.643 45.4941 202.647 45.7353V65.1135C202.628 65.3507 202.551 65.5796 202.422 65.7797C202.293 65.9798 202.117 66.1449 201.908 66.2604C201.381 66.6197 200.754 66.8039 200.116 66.7869C199.485 66.8078 198.865 66.623 198.349 66.2604C198.145 66.1401 197.972 65.9723 197.846 65.7712C197.721 65.5701 197.645 65.3417 197.626 65.1052Z" fill="black"/>
<path d="M207.905 65.1051V45.7372C207.907 45.4977 207.973 45.2631 208.095 45.0572C208.217 44.8514 208.392 44.6815 208.601 44.5649C209.14 44.2382 209.764 44.0786 210.394 44.1063C210.964 44.0866 211.526 44.2471 211.999 44.5649C212.198 44.6911 212.361 44.8656 212.474 45.072C212.587 45.2785 212.646 45.5101 212.645 45.7454V47.4867C213.206 46.4045 214.059 45.5017 215.108 44.8816C216.297 44.1589 217.668 43.7904 219.059 43.8197C220.18 43.821 221.287 44.0708 222.301 44.5511C223.314 45.0314 224.209 45.7303 224.92 46.5975C226.551 48.4237 227.431 50.7992 227.383 53.2473V65.1072C227.382 65.3589 227.313 65.6056 227.183 65.8211C227.053 66.0365 226.867 66.2125 226.644 66.3302C226.107 66.6296 225.502 66.7874 224.887 66.7888C224.271 66.7903 223.666 66.6353 223.127 66.3384C222.9 66.2263 222.708 66.0534 222.573 65.839C222.438 65.6246 222.366 65.377 222.363 65.1236V53.2781C222.361 52.6398 222.233 52.0082 221.987 51.4193C221.74 50.8304 221.38 50.2959 220.927 49.8463C220.502 49.3644 219.979 48.9787 219.394 48.7151C218.808 48.4515 218.172 48.3159 217.53 48.3176C216.932 48.3161 216.34 48.4358 215.789 48.6694C215.239 48.9031 214.742 49.2458 214.328 49.677C213.861 50.1493 213.497 50.7132 213.258 51.333C213.02 51.9529 212.913 52.6154 212.943 53.2788V65.1133C212.921 65.3532 212.84 65.5838 212.707 65.7842C212.573 65.9846 212.392 66.1482 212.178 66.2602C211.658 66.6136 211.041 66.7975 210.412 66.7867C209.781 66.8076 209.161 66.6228 208.645 66.2602C208.437 66.1425 208.261 65.9757 208.132 65.7744C208.003 65.5731 207.925 65.3434 207.905 65.1051Z" fill="black"/>
<path d="M230.721 71.0507C230.721 68.7911 231.97 67.0668 234.467 65.8776C233.826 65.6336 233.278 65.1952 232.898 64.624C232.519 64.0527 232.328 63.3772 232.352 62.6919C232.352 61.282 233.102 60.0615 234.603 59.0304C233.672 58.3348 232.924 57.423 232.424 56.3738C231.924 55.3246 231.686 54.1694 231.732 53.0079V51.6663C231.702 50.6027 231.907 49.5456 232.333 48.5705C232.759 47.5954 233.395 46.7264 234.195 46.0257C235.983 44.5054 238.281 43.7193 240.626 43.8258C242.602 43.7509 244.548 44.3204 246.172 45.4485C247.098 43.3164 248.135 42.249 249.281 42.2463C249.83 42.2278 250.364 42.426 250.768 42.7982C250.94 42.9427 251.081 43.1216 251.18 43.3234C251.28 43.5252 251.336 43.7456 251.345 43.9704C251.341 44.2278 251.261 44.4782 251.116 44.6909C250.971 44.9036 250.767 45.0694 250.53 45.1681C249.569 45.5706 248.74 46.2321 248.134 47.0787C249.164 48.3843 249.705 50.0092 249.662 51.6718V53.0141C249.686 54.0906 249.472 55.159 249.034 56.1427C248.596 57.1265 247.946 58.0012 247.131 58.7041C245.324 60.249 242.999 61.0533 240.624 60.9554C239.498 60.9792 238.378 60.7829 237.328 60.3775C237.076 60.5099 236.862 60.7026 236.703 60.9383C236.544 61.1739 236.447 61.4453 236.418 61.728C236.418 62.3738 236.92 62.8411 237.922 63.1299C239.112 63.4557 240.328 63.6829 241.555 63.8093C242.985 63.9697 244.406 64.2049 245.811 64.5141C247.188 64.7976 248.452 65.4799 249.444 66.4761C249.953 66.9996 250.348 67.6217 250.607 68.304C250.866 68.9863 250.982 69.7144 250.948 70.4433C250.999 71.5054 250.762 72.5615 250.261 73.4993C249.759 74.4371 249.014 75.2216 248.102 75.7693C245.921 77.036 243.425 77.6577 240.904 77.562C238.364 77.6537 235.847 77.0423 233.632 75.7953C231.698 74.6011 230.721 73.0298 230.721 71.0507ZM235.461 70.5153C235.45 71.0686 235.584 71.6153 235.847 72.102C236.11 72.5888 236.495 72.9991 236.964 73.2931C238.126 74.0316 239.488 74.3935 240.863 74.3296C242.198 74.3931 243.52 74.0366 244.643 73.3102C245.097 73.01 245.467 72.5989 245.718 72.1159C245.97 71.6329 246.093 71.0938 246.078 70.5496C246.1 69.8665 245.86 69.2008 245.407 68.689C244.867 68.1321 244.176 67.7454 243.419 67.5764C242.681 67.363 241.929 67.2013 241.168 67.0924C240.551 67.0156 239.707 66.9395 238.653 66.8716C236.523 67.695 235.461 68.9015 235.461 70.5153ZM236.608 52.9572C236.555 54.1975 236.944 55.4162 237.705 56.3972C238.08 56.8173 238.54 57.1538 239.054 57.3849C239.568 57.6161 240.125 57.7367 240.689 57.7391C241.253 57.7415 241.81 57.6256 242.326 57.3988C242.842 57.172 243.305 56.8395 243.685 56.4226C244.449 55.4499 244.838 54.2348 244.781 52.999V51.6574C244.827 50.4544 244.438 49.2751 243.685 48.336C243.316 47.9002 242.853 47.5549 242.33 47.3266C241.807 47.0983 241.238 46.9931 240.668 47.019C240.106 46.9969 239.547 47.1041 239.033 47.3324C238.519 47.5608 238.064 47.9041 237.704 48.336C236.952 49.2757 236.562 50.4545 236.607 51.6574L236.608 52.9572Z" fill="black"/>
<path d="M9.89645 147.987C9.90778 147.654 10.0282 147.335 10.2392 147.077C10.3213 146.944 10.4346 146.833 10.5693 146.753C10.704 146.673 10.8561 146.627 11.0125 146.619C11.2265 146.637 11.4289 146.723 11.5904 146.865C11.8121 147.032 12.0221 147.213 12.2191 147.409C12.4777 147.638 12.7735 147.822 13.0938 147.952C13.492 148.118 13.9197 148.202 14.3511 148.198C14.9068 148.218 15.4553 148.067 15.9224 147.765C16.1274 147.624 16.2928 147.433 16.4029 147.21C16.5129 146.987 16.5639 146.739 16.551 146.491C16.5549 146.112 16.4345 145.742 16.2082 145.438C15.9695 145.118 15.6618 144.857 15.3081 144.673C14.9343 144.469 14.5266 144.274 14.0851 144.087C13.6436 143.9 13.1939 143.688 12.7428 143.45C12.3076 143.223 11.8927 142.959 11.5027 142.661C11.114 142.343 10.8056 141.939 10.6026 141.48C10.3648 140.919 10.2494 140.313 10.264 139.704C10.2787 139.095 10.4231 138.495 10.6876 137.946C10.9464 137.435 11.3363 137.001 11.8173 136.689C12.2835 136.392 12.794 136.171 13.3296 136.035C13.8878 135.893 14.4615 135.822 15.0373 135.822C15.398 135.825 15.7582 135.848 16.1164 135.891C16.5222 135.947 16.925 136.023 17.3229 136.12C17.7025 136.205 18.0573 136.377 18.3595 136.622C18.4823 136.717 18.582 136.84 18.651 136.98C18.7201 137.119 18.7568 137.273 18.7584 137.428C18.7483 137.748 18.6537 138.058 18.4842 138.329C18.415 138.468 18.3085 138.585 18.1766 138.668C18.0447 138.75 17.8926 138.795 17.737 138.796C17.4013 138.717 17.0783 138.591 16.7772 138.423C16.232 138.17 15.637 138.042 15.036 138.049C14.4621 138.017 13.8917 138.156 13.3968 138.448C13.2148 138.568 13.0663 138.732 12.9652 138.925C12.8641 139.119 12.8138 139.334 12.8189 139.552C12.8215 139.742 12.8645 139.928 12.9451 140.1C13.0258 140.271 13.1422 140.424 13.2865 140.546C13.6274 140.847 14.0231 141.08 14.4519 141.232C14.9194 141.41 15.4205 141.631 15.9642 141.903C16.4866 142.162 16.9917 142.454 17.4765 142.778C17.9747 143.127 18.3757 143.598 18.6419 144.145C18.9671 144.793 19.1277 145.511 19.1094 146.235C19.1452 146.815 19.0483 147.396 18.826 147.933C18.6038 148.471 18.2621 148.95 17.8268 149.336C16.8703 150.1 15.6685 150.49 14.4457 150.433C13.3322 150.464 12.2302 150.201 11.2518 149.668C10.3379 149.151 9.89645 148.59 9.89645 147.987Z" fill="black"/>
<path d="M20.5655 147.731C20.5298 147.293 20.6225 146.855 20.8321 146.468C21.0418 146.082 21.3593 145.766 21.746 145.557C22.8101 145.082 23.9717 144.867 25.1353 144.928H25.9422V144.665C25.952 144.195 25.8022 143.736 25.5172 143.362C25.3605 143.171 25.1595 143.021 24.9315 142.925C24.7036 142.828 24.4556 142.789 24.2092 142.811C23.6856 142.796 23.1663 142.909 22.6969 143.142C22.4698 143.28 22.2276 143.391 21.975 143.473C21.8444 143.472 21.7165 143.435 21.6056 143.366C21.4947 143.297 21.405 143.199 21.3463 143.082C21.1871 142.821 21.1046 142.521 21.1085 142.216C21.1085 141.833 21.4512 141.511 22.1196 141.222C22.7927 140.94 23.5152 140.795 24.2448 140.796C24.8205 140.751 25.3996 140.824 25.946 141.011C26.4924 141.198 26.9947 141.495 27.4216 141.884C27.7673 142.248 28.037 142.678 28.215 143.147C28.3929 143.617 28.4756 144.117 28.4581 144.619V149.427C28.4525 149.544 28.4168 149.658 28.3543 149.758C28.2919 149.858 28.2049 149.939 28.1017 149.996C27.8368 150.16 27.5295 150.243 27.218 150.234C26.9251 150.243 26.6375 150.153 26.4022 149.979C26.3029 149.911 26.2215 149.819 26.1653 149.713C26.1091 149.606 26.0795 149.488 26.0793 149.367V148.756C25.7412 149.24 25.2966 149.639 24.7798 149.925C24.2629 150.21 23.6876 150.373 23.0979 150.401C22.7619 150.414 22.4268 150.36 22.1118 150.242C21.7969 150.125 21.5085 149.946 21.2634 149.715C21.018 149.45 20.8296 149.137 20.7096 148.795C20.5896 148.454 20.5405 148.092 20.5655 147.731ZM23.0972 147.417C23.0876 147.556 23.1076 147.695 23.156 147.825C23.2043 147.955 23.2799 148.073 23.3776 148.172C23.5887 148.346 23.8582 148.434 24.1317 148.418C24.5946 148.398 25.0311 148.196 25.3465 147.857C25.5253 147.704 25.67 147.515 25.771 147.302C25.872 147.09 25.927 146.858 25.9326 146.623V146.232H25.6385C25.0074 146.21 24.3768 146.288 23.7697 146.462C23.5655 146.521 23.3875 146.647 23.2652 146.821C23.1429 146.995 23.0836 147.205 23.0972 147.417Z" fill="black"/>
<path d="M30.8185 149.439V141.709C30.8184 141.592 30.8503 141.477 30.9107 141.377C30.9711 141.276 31.0577 141.194 31.1613 141.14C31.4384 140.985 31.7534 140.912 32.0703 140.927C32.3525 140.92 32.6305 140.997 32.8689 141.148C32.9691 141.207 33.0518 141.292 33.1085 141.393C33.1653 141.495 33.194 141.61 33.1918 141.726V142.32C33.4347 141.848 33.8079 141.456 34.267 141.189C34.7262 140.923 35.2521 140.794 35.7825 140.817C36.3249 140.812 36.8505 141.005 37.2605 141.361C37.7093 141.741 38.0445 142.238 38.2292 142.796C38.5125 142.197 38.9566 141.688 39.5118 141.326C40.0084 140.999 40.5904 140.824 41.1852 140.825C41.6472 140.823 42.1045 140.918 42.5274 141.104C42.9504 141.289 43.3295 141.562 43.6402 141.904C43.9965 142.296 44.2716 142.754 44.4495 143.253C44.6275 143.752 44.7047 144.281 44.6767 144.809V149.456C44.6641 149.573 44.6225 149.684 44.5557 149.781C44.4889 149.877 44.399 149.955 44.2942 150.008C44.0295 150.181 43.7189 150.27 43.403 150.263C43.0924 150.267 42.7878 150.178 42.5282 150.008C42.4238 149.957 42.334 149.88 42.2671 149.785C42.2002 149.69 42.1585 149.58 42.1457 149.464V144.827C42.1594 144.589 42.125 144.352 42.0447 144.128C41.9644 143.904 41.8397 143.699 41.6781 143.524C41.5347 143.371 41.3609 143.249 41.1677 143.168C40.9746 143.086 40.7664 143.045 40.5566 143.048C40.3523 143.048 40.1502 143.09 39.963 143.172C39.7759 143.254 39.6077 143.374 39.4693 143.524C39.1527 143.874 38.9877 144.335 39.0107 144.807V149.479C39.0133 149.602 38.9792 149.724 38.9127 149.828C38.8462 149.933 38.7503 150.015 38.6371 150.065C38.3569 150.201 38.0483 150.268 37.737 150.26C37.4329 150.265 37.1324 150.194 36.8622 150.055C36.7493 150.006 36.653 149.925 36.5851 149.822C36.5172 149.72 36.4806 149.6 36.4797 149.477V144.822C36.4884 144.588 36.4501 144.354 36.3669 144.136C36.2838 143.917 36.1575 143.717 35.9957 143.547C35.8522 143.391 35.6776 143.266 35.483 143.181C35.2884 143.096 35.0782 143.053 34.8659 143.054C34.6633 143.052 34.4624 143.092 34.2764 143.172C34.0904 143.253 33.9236 143.372 33.7869 143.521C33.4737 143.876 33.3121 144.34 33.3365 144.812V149.451C33.3239 149.567 33.2823 149.679 33.2155 149.775C33.1486 149.872 33.0587 149.95 32.9539 150.002C32.6862 150.167 32.3783 150.255 32.0639 150.257C31.7495 150.258 31.4408 150.173 31.1715 150.011C31.0731 149.948 30.9902 149.865 30.929 149.766C30.8678 149.667 30.83 149.555 30.8185 149.439Z" fill="black"/>
<path d="M46.686 146.397V144.729C46.6831 144.204 46.794 143.685 47.0111 143.207C47.2281 142.729 47.5462 142.304 47.9433 141.961C48.7673 141.193 49.8588 140.779 50.9844 140.805C52.0349 140.781 53.0554 141.157 53.8383 141.858C54.2196 142.185 54.524 142.592 54.7296 143.05C54.9352 143.509 55.037 144.007 55.0277 144.509C55.036 144.835 54.987 145.159 54.883 145.468C54.809 145.699 54.6472 145.891 54.4326 146.004C54.2569 146.098 54.0678 146.163 53.8719 146.199C53.6495 146.23 53.4252 146.244 53.2007 146.242H49.2177V146.539C49.21 146.799 49.2627 147.057 49.3718 147.293C49.4809 147.529 49.6434 147.736 49.8464 147.899C50.322 148.264 50.9125 148.448 51.5116 148.417C52.0242 148.411 52.5281 148.283 52.9814 148.043C53.2723 147.867 53.591 147.74 53.924 147.67C54.0609 147.672 54.1952 147.708 54.3148 147.775C54.4344 147.842 54.5357 147.937 54.6095 148.052C54.7751 148.264 54.8708 148.523 54.8837 148.791C54.8837 149.157 54.5526 149.522 53.8897 149.879C53.1259 150.259 52.2793 150.443 51.4265 150.414C50.1897 150.47 48.9742 150.077 48.003 149.31C47.5757 148.957 47.2348 148.511 47.0065 148.006C46.7782 147.501 46.6686 146.951 46.686 146.397ZM49.2177 144.752H52.0806C52.2349 144.767 52.3898 144.731 52.522 144.65C52.5709 144.598 52.6077 144.536 52.6298 144.469C52.6518 144.401 52.6586 144.33 52.6496 144.259C52.6529 144.058 52.6093 143.859 52.5224 143.678C52.4354 143.496 52.3073 143.338 52.1484 143.214C51.8012 142.94 51.3676 142.799 50.9254 142.815C50.4933 142.805 50.0708 142.943 49.7278 143.206C49.5659 143.325 49.4351 143.482 49.3465 143.662C49.2578 143.843 49.2139 144.042 49.2184 144.243V144.752H49.2177Z" fill="black"/>
<path d="M57.0075 149.439V141.709C57.0075 141.592 57.0394 141.477 57.0998 141.377C57.1602 141.276 57.2468 141.194 57.3503 141.14C57.6274 140.985 57.9424 140.912 58.2593 140.927C58.5416 140.92 58.8196 140.997 59.058 141.148C59.1582 141.207 59.2408 141.292 59.2976 141.393C59.3543 141.495 59.3831 141.61 59.3809 141.726V142.32C59.6097 141.875 59.9604 141.504 60.3921 141.25C61.0328 140.867 61.7916 140.731 62.5255 140.869C63.2594 141.006 63.9175 141.408 64.3757 141.997C65.0471 142.775 65.4072 143.773 65.3869 144.801V149.447C65.3851 149.571 65.3481 149.692 65.2804 149.796C65.2127 149.899 65.117 149.982 65.0044 150.033C64.731 150.181 64.4237 150.254 64.1132 150.246C63.808 150.253 63.5062 150.18 63.2384 150.033C63.1258 149.982 63.0301 149.899 62.9624 149.796C62.8947 149.692 62.8577 149.571 62.8559 149.447V144.809C62.8558 144.582 62.8108 144.357 62.7234 144.147C62.636 143.937 62.5079 143.747 62.3465 143.586C62.196 143.418 62.0114 143.283 61.805 143.191C61.5986 143.098 61.375 143.051 61.1489 143.051C60.9366 143.05 60.7264 143.093 60.5318 143.178C60.3372 143.263 60.1626 143.387 60.0191 143.544C59.8566 143.713 59.73 143.913 59.6468 144.132C59.5636 144.351 59.5256 144.584 59.5351 144.818V149.457C59.5225 149.573 59.4809 149.685 59.4141 149.781C59.3473 149.878 59.2574 149.956 59.1526 150.009C58.8848 150.173 58.5769 150.261 58.2625 150.263C57.9482 150.264 57.6395 150.179 57.3702 150.017C57.2674 149.957 57.1806 149.873 57.1174 149.773C57.0542 149.672 57.0165 149.557 57.0075 149.439Z" fill="black"/>
<path d="M71.2777 141.87C71.2923 141.708 71.3516 141.553 71.449 141.422C71.5465 141.292 71.6782 141.191 71.8296 141.131C72.1626 140.936 72.5406 140.83 72.9265 140.825C73.075 140.804 73.2265 140.832 73.3571 140.906C73.4878 140.98 73.5902 141.095 73.6483 141.233L75.6104 146.805L77.0802 141.963C77.1821 141.624 77.4709 141.454 77.9467 141.454C78.4138 141.454 78.7026 141.624 78.8132 141.963L80.2659 146.831L82.245 141.241C82.3043 141.104 82.407 140.989 82.5373 140.916C82.6677 140.842 82.8185 140.813 82.9669 140.833C83.3482 140.839 83.721 140.948 84.0459 141.147C84.1971 141.21 84.3284 141.313 84.4256 141.444C84.5229 141.576 84.5824 141.732 84.5978 141.895C84.6023 142.018 84.5759 142.141 84.521 142.251L81.4971 150.015C81.3785 150.312 81.0467 150.465 80.4948 150.465C79.9169 150.465 79.5776 150.312 79.4583 150.015L77.946 145.742L76.4598 149.998C76.3412 150.312 75.984 150.465 75.3807 150.465C74.8453 150.465 74.5142 150.312 74.4038 149.998L71.3799 142.251C71.3167 142.134 71.2817 142.003 71.2777 141.87Z" fill="black"/>
<path d="M86.0498 137.733C86.0513 137.578 86.0899 137.425 86.1623 137.288C86.2347 137.151 86.3387 137.033 86.4659 136.944C86.7601 136.718 87.1235 136.601 87.4942 136.612C87.8359 136.603 88.1688 136.721 88.4286 136.944C88.5485 137.038 88.6458 137.157 88.7135 137.294C88.7811 137.431 88.8173 137.581 88.8194 137.733C88.8182 137.885 88.7823 138.034 88.7146 138.169C88.6469 138.305 88.549 138.423 88.4286 138.515C88.1694 138.739 87.8371 138.861 87.4942 138.858C87.1215 138.87 86.7568 138.748 86.4659 138.515C86.3403 138.426 86.2373 138.309 86.165 138.173C86.0928 138.038 86.0533 137.887 86.0498 137.733ZM86.2877 149.439V141.709C86.2876 141.592 86.3195 141.477 86.3799 141.377C86.4403 141.276 86.5269 141.194 86.6304 141.14C86.8932 140.988 87.1938 140.914 87.497 140.927C87.8027 140.914 88.1059 140.988 88.3717 141.14C88.4756 141.194 88.5628 141.276 88.6241 141.376C88.6854 141.476 88.7185 141.591 88.72 141.709V149.438C88.7096 149.553 88.6708 149.664 88.607 149.76C88.5432 149.857 88.4565 149.936 88.3546 149.99C88.1019 150.161 87.8023 150.251 87.497 150.245C87.1924 150.254 86.8926 150.168 86.6393 149.999C86.5373 149.944 86.4514 149.863 86.3897 149.765C86.3281 149.667 86.2929 149.554 86.2877 149.438V149.439Z" fill="black"/>
<path d="M91.1468 149.439V141.709C91.1467 141.592 91.1786 141.477 91.239 141.377C91.2994 141.276 91.386 141.194 91.4896 141.14C91.7667 140.985 92.0817 140.912 92.3986 140.927C92.6808 140.92 92.9588 140.997 93.1972 141.148C93.2974 141.207 93.3801 141.292 93.4368 141.393C93.4936 141.495 93.5223 141.61 93.5201 141.726V142.32C93.749 141.875 94.0996 141.504 94.5313 141.25C95.172 140.867 95.9309 140.731 96.6648 140.869C97.3986 141.006 98.0567 141.408 98.515 141.997C99.1863 142.775 99.5464 143.773 99.5262 144.801V149.447C99.5243 149.571 99.4874 149.692 99.4197 149.796C99.352 149.899 99.2563 149.982 99.1436 150.033C98.8702 150.181 98.563 150.254 98.2524 150.246C97.9472 150.253 97.6455 150.18 97.3777 150.033C97.265 149.982 97.1693 149.899 97.1016 149.796C97.0339 149.692 96.997 149.571 96.9951 149.447V144.809C96.9951 144.582 96.95 144.357 96.8626 144.147C96.7752 143.937 96.6471 143.747 96.4858 143.586C96.3352 143.418 96.1507 143.283 95.9443 143.191C95.7379 143.098 95.5142 143.051 95.2881 143.051C95.0759 143.05 94.8657 143.093 94.6711 143.178C94.4765 143.263 94.3018 143.387 94.1584 143.544C93.9959 143.713 93.8692 143.913 93.786 144.132C93.7029 144.351 93.6649 144.584 93.6744 144.818V149.457C93.6618 149.573 93.6202 149.685 93.5534 149.781C93.4866 149.878 93.3966 149.956 93.2919 150.009C93.0241 150.173 92.7162 150.261 92.4018 150.263C92.0874 150.264 91.7787 150.179 91.5094 150.017C91.4066 149.957 91.3199 149.873 91.2567 149.773C91.1935 149.672 91.1558 149.557 91.1468 149.439Z" fill="black"/>
<path d="M101.875 149.439V141.709C101.875 141.592 101.907 141.477 101.968 141.377C102.028 141.276 102.115 141.194 102.218 141.14C102.495 140.985 102.81 140.912 103.127 140.927C103.41 140.92 103.688 140.997 103.926 141.148C104.026 141.207 104.109 141.292 104.166 141.393C104.222 141.495 104.251 141.61 104.249 141.726V142.32C104.478 141.875 104.828 141.504 105.26 141.25C105.901 140.867 106.66 140.731 107.393 140.869C108.127 141.006 108.785 141.408 109.244 141.997C109.915 142.775 110.275 143.773 110.255 144.801V149.447C110.253 149.571 110.216 149.692 110.148 149.796C110.081 149.899 109.985 149.982 109.872 150.033C109.599 150.181 109.292 150.254 108.981 150.246C108.676 150.253 108.374 150.18 108.106 150.033C107.994 149.982 107.898 149.899 107.83 149.796C107.763 149.692 107.726 149.571 107.724 149.447V144.809C107.724 144.582 107.679 144.357 107.591 144.147C107.504 143.937 107.376 143.747 107.214 143.586C107.064 143.418 106.879 143.283 106.673 143.191C106.467 143.098 106.243 143.051 106.017 143.051C105.805 143.05 105.594 143.093 105.4 143.178C105.205 143.263 105.031 143.387 104.887 143.544C104.725 143.713 104.598 143.913 104.515 144.132C104.432 144.351 104.394 144.584 104.403 144.818V149.457C104.39 149.573 104.349 149.685 104.282 149.781C104.215 149.878 104.125 149.956 104.021 150.009C103.753 150.173 103.445 150.261 103.13 150.263C102.816 150.264 102.507 150.179 102.238 150.017C102.135 149.957 102.049 149.873 101.985 149.773C101.922 149.672 101.884 149.557 101.875 149.439Z" fill="black"/>
<path d="M112.256 146.397V144.729C112.253 144.204 112.364 143.685 112.581 143.207C112.798 142.729 113.116 142.304 113.513 141.961C114.337 141.193 115.429 140.779 116.554 140.805C117.605 140.781 118.625 141.157 119.408 141.858C119.79 142.185 120.094 142.592 120.299 143.05C120.505 143.509 120.607 144.007 120.598 144.509C120.606 144.835 120.557 145.159 120.453 145.468C120.379 145.699 120.217 145.891 120.003 146.004C119.827 146.098 119.638 146.163 119.442 146.199C119.219 146.23 118.995 146.244 118.771 146.242H114.787V146.539C114.779 146.799 114.832 147.057 114.941 147.293C115.05 147.529 115.213 147.736 115.416 147.899C115.891 148.264 116.482 148.448 117.081 148.417C117.594 148.411 118.097 148.283 118.551 148.043C118.842 147.867 119.16 147.74 119.493 147.67C119.63 147.672 119.764 147.708 119.884 147.775C120.004 147.842 120.105 147.937 120.179 148.052C120.344 148.264 120.44 148.523 120.453 148.791C120.453 149.157 120.122 149.522 119.459 149.879C118.515 150.311 117.473 150.486 116.439 150.386C115.405 150.287 114.416 149.915 113.572 149.31C113.144 148.958 112.802 148.513 112.574 148.007C112.345 147.502 112.237 146.951 112.256 146.397ZM114.779 144.752H117.644C117.799 144.767 117.954 144.731 118.086 144.65C118.135 144.598 118.172 144.536 118.194 144.469C118.216 144.401 118.222 144.33 118.213 144.259C118.217 144.058 118.173 143.859 118.086 143.678C117.999 143.496 117.871 143.338 117.712 143.214C117.365 142.94 116.931 142.799 116.489 142.815C116.057 142.805 115.635 142.943 115.292 143.206C115.13 143.325 114.999 143.482 114.91 143.662C114.822 143.843 114.778 144.042 114.782 144.243V144.752H114.779Z" fill="black"/>
<path d="M122.568 149.439V141.709C122.568 141.592 122.6 141.477 122.66 141.377C122.721 141.276 122.807 141.194 122.911 141.14C123.188 140.985 123.503 140.912 123.82 140.927C124.102 140.92 124.38 140.997 124.618 141.148C124.719 141.207 124.801 141.292 124.858 141.393C124.915 141.495 124.943 141.61 124.941 141.726V142.32C125.17 141.875 125.521 141.504 125.952 141.25C126.593 140.867 127.352 140.731 128.086 140.869C128.82 141.006 129.478 141.408 129.936 141.997C130.607 142.775 130.966 143.773 130.945 144.8V149.446C130.943 149.57 130.906 149.691 130.839 149.795C130.771 149.899 130.675 149.981 130.563 150.033C130.289 150.18 129.982 150.253 129.671 150.245C129.366 150.253 129.065 150.179 128.797 150.033C128.684 149.981 128.588 149.899 128.521 149.795C128.453 149.691 128.416 149.57 128.414 149.446V144.809C128.414 144.581 128.369 144.356 128.282 144.146C128.194 143.937 128.066 143.746 127.905 143.586C127.754 143.417 127.57 143.282 127.363 143.19C127.157 143.098 126.933 143.05 126.707 143.05C126.495 143.049 126.285 143.092 126.09 143.177C125.896 143.262 125.721 143.387 125.577 143.543C125.415 143.712 125.288 143.912 125.205 144.131C125.122 144.35 125.084 144.584 125.093 144.818V149.456C125.081 149.573 125.039 149.684 124.972 149.781C124.906 149.877 124.816 149.955 124.711 150.008C124.443 150.173 124.135 150.261 123.821 150.262C123.506 150.263 123.198 150.178 122.928 150.016C122.826 149.956 122.74 149.873 122.677 149.772C122.614 149.671 122.577 149.557 122.568 149.439Z" fill="black"/>
<path d="M133.229 149.974C132.994 149.716 132.864 149.379 132.864 149.031C132.864 148.682 132.994 148.346 133.229 148.088C133.345 147.961 133.487 147.86 133.645 147.793C133.803 147.725 133.974 147.693 134.146 147.697C134.313 147.695 134.478 147.729 134.63 147.796C134.783 147.864 134.919 147.963 135.03 148.088C135.152 148.212 135.248 148.359 135.312 148.521C135.376 148.683 135.407 148.856 135.403 149.03C135.404 149.378 135.27 149.713 135.03 149.965C134.92 150.092 134.785 150.193 134.632 150.262C134.479 150.331 134.314 150.366 134.146 150.364C133.974 150.366 133.804 150.333 133.646 150.265C133.488 150.198 133.346 150.099 133.229 149.974Z" fill="black"/>
<path d="M141.392 147.987C141.403 147.654 141.524 147.335 141.735 147.077C141.817 146.944 141.93 146.833 142.065 146.753C142.2 146.673 142.352 146.627 142.508 146.619C142.722 146.637 142.925 146.723 143.086 146.865C143.308 147.032 143.518 147.213 143.715 147.409C143.973 147.638 144.269 147.822 144.59 147.952C144.988 148.118 145.415 148.202 145.847 148.198C146.403 148.218 146.951 148.067 147.418 147.765C147.623 147.624 147.789 147.433 147.899 147.21C148.009 146.987 148.06 146.739 148.047 146.491C148.051 146.112 147.93 145.742 147.704 145.438C147.465 145.118 147.158 144.857 146.804 144.673C146.43 144.469 146.022 144.274 145.581 144.087C145.139 143.9 144.69 143.688 144.239 143.45C143.803 143.223 143.388 142.959 142.998 142.661C142.61 142.343 142.301 141.939 142.098 141.48C141.86 140.919 141.745 140.313 141.76 139.704C141.774 139.095 141.919 138.495 142.183 137.946C142.442 137.435 142.832 137.001 143.313 136.689C143.779 136.392 144.29 136.171 144.825 136.035C145.383 135.893 145.957 135.822 146.533 135.822C146.894 135.825 147.254 135.848 147.612 135.891C148.018 135.947 148.421 136.023 148.819 136.12C149.198 136.205 149.553 136.377 149.855 136.622C149.978 136.717 150.078 136.84 150.147 136.98C150.216 137.119 150.253 137.273 150.254 137.428C150.244 137.748 150.149 138.058 149.98 138.329C149.911 138.468 149.804 138.585 149.672 138.668C149.54 138.75 149.388 138.795 149.233 138.796C148.897 138.717 148.574 138.591 148.273 138.423C147.728 138.17 147.133 138.042 146.532 138.049C145.958 138.017 145.387 138.156 144.893 138.448C144.71 138.568 144.561 138.732 144.46 138.925C144.358 139.118 144.308 139.334 144.313 139.552C144.315 139.741 144.358 139.928 144.439 140.099C144.519 140.271 144.636 140.423 144.78 140.546C145.121 140.847 145.517 141.079 145.946 141.231C146.413 141.409 146.914 141.63 147.458 141.902C147.98 142.161 148.485 142.453 148.97 142.777C149.468 143.127 149.869 143.597 150.136 144.145C150.461 144.792 150.621 145.51 150.603 146.234C150.639 146.815 150.542 147.395 150.32 147.933C150.097 148.47 149.756 148.95 149.32 149.335C148.364 150.099 147.162 150.489 145.939 150.432C144.826 150.464 143.724 150.2 142.745 149.667C141.843 149.15 141.392 148.59 141.392 147.987Z" fill="black"/>
<path d="M152.061 147.731C152.026 147.293 152.118 146.855 152.328 146.468C152.537 146.082 152.855 145.766 153.242 145.557C154.306 145.082 155.467 144.867 156.631 144.928H157.438V144.665C157.448 144.195 157.298 143.736 157.013 143.362C156.856 143.171 156.655 143.021 156.427 142.925C156.199 142.828 155.951 142.789 155.705 142.811C155.181 142.796 154.662 142.909 154.193 143.142C153.966 143.28 153.723 143.391 153.471 143.473C153.34 143.472 153.212 143.435 153.101 143.366C152.99 143.297 152.901 143.199 152.842 143.082C152.683 142.821 152.6 142.521 152.604 142.216C152.604 141.833 152.947 141.511 153.615 141.222C154.288 140.94 155.011 140.795 155.741 140.796C156.316 140.751 156.895 140.824 157.442 141.011C157.988 141.198 158.49 141.495 158.917 141.884C159.263 142.248 159.533 142.678 159.711 143.147C159.889 143.617 159.971 144.117 159.954 144.619V149.427C159.948 149.544 159.912 149.658 159.85 149.758C159.788 149.858 159.701 149.939 159.597 149.996C159.333 150.16 159.025 150.243 158.714 150.234C158.421 150.243 158.133 150.153 157.898 149.979C157.799 149.911 157.717 149.819 157.661 149.713C157.605 149.606 157.575 149.488 157.575 149.367V148.756C157.237 149.24 156.792 149.639 156.275 149.925C155.759 150.21 155.183 150.373 154.594 150.401C154.258 150.414 153.922 150.36 153.608 150.242C153.293 150.125 153.004 149.946 152.759 149.715C152.514 149.45 152.325 149.137 152.205 148.795C152.085 148.454 152.036 148.092 152.061 147.731ZM154.593 147.417C154.583 147.556 154.603 147.695 154.652 147.825C154.7 147.955 154.776 148.073 154.873 148.172C155.084 148.346 155.354 148.434 155.627 148.418C156.09 148.398 156.527 148.196 156.842 147.857C157.021 147.704 157.166 147.515 157.267 147.302C157.368 147.09 157.423 146.858 157.428 146.623V146.232H157.134C156.503 146.21 155.872 146.288 155.265 146.462C155.062 146.522 154.885 146.649 154.763 146.823C154.641 146.996 154.581 147.206 154.593 147.417Z" fill="black"/>
<path d="M162.322 149.439V141.709C162.322 141.592 162.354 141.477 162.415 141.377C162.475 141.276 162.562 141.194 162.665 141.14C162.942 140.985 163.257 140.912 163.574 140.927C163.856 140.92 164.135 140.997 164.373 141.148C164.473 141.207 164.556 141.292 164.612 141.393C164.669 141.495 164.698 141.61 164.696 141.726V142.32C164.939 141.848 165.312 141.456 165.771 141.189C166.23 140.923 166.756 140.794 167.286 140.817C167.829 140.812 168.354 141.005 168.764 141.361C169.213 141.741 169.548 142.238 169.733 142.796C170.017 142.197 170.461 141.688 171.016 141.326C171.512 140.999 172.094 140.824 172.689 140.825C173.151 140.823 173.608 140.918 174.031 141.104C174.454 141.289 174.833 141.562 175.144 141.904C175.5 142.296 175.776 142.754 175.953 143.253C176.131 143.752 176.209 144.281 176.181 144.809V149.456C176.168 149.573 176.127 149.684 176.06 149.781C175.993 149.877 175.903 149.955 175.798 150.008C175.534 150.181 175.223 150.27 174.907 150.263C174.596 150.267 174.292 150.178 174.032 150.008C173.928 149.957 173.838 149.88 173.771 149.785C173.704 149.69 173.662 149.58 173.65 149.464V144.827C173.663 144.589 173.629 144.352 173.549 144.128C173.468 143.904 173.344 143.699 173.182 143.524C173.039 143.371 172.865 143.249 172.672 143.168C172.479 143.086 172.27 143.045 172.061 143.048C171.856 143.048 171.654 143.09 171.467 143.172C171.28 143.254 171.112 143.374 170.973 143.524C170.657 143.874 170.492 144.335 170.515 144.807V149.479C170.517 149.602 170.483 149.724 170.417 149.828C170.35 149.933 170.254 150.015 170.141 150.065C169.861 150.201 169.552 150.268 169.241 150.26C168.937 150.265 168.636 150.194 168.366 150.055C168.253 150.006 168.157 149.925 168.089 149.822C168.021 149.72 167.985 149.6 167.984 149.477V144.822C167.992 144.588 167.954 144.354 167.871 144.136C167.788 143.917 167.662 143.717 167.5 143.547C167.356 143.391 167.182 143.266 166.987 143.181C166.792 143.096 166.582 143.053 166.37 143.054C166.167 143.052 165.966 143.092 165.78 143.172C165.594 143.253 165.428 143.372 165.291 143.521C164.978 143.876 164.816 144.34 164.84 144.812V149.451C164.828 149.567 164.786 149.679 164.719 149.775C164.653 149.872 164.563 149.95 164.458 150.002C164.19 150.167 163.882 150.255 163.568 150.257C163.253 150.258 162.945 150.173 162.676 150.011C162.576 149.95 162.492 149.866 162.431 149.767C162.369 149.668 162.332 149.555 162.322 149.439Z" fill="black"/>
<path d="M178.191 146.397V144.729C178.188 144.204 178.299 143.685 178.516 143.207C178.733 142.729 179.051 142.304 179.448 141.961C180.272 141.193 181.363 140.779 182.489 140.805C183.54 140.781 184.56 141.157 185.343 141.858C185.724 142.185 186.029 142.592 186.234 143.05C186.44 143.509 186.542 144.007 186.532 144.509C186.541 144.835 186.492 145.159 186.388 145.468C186.314 145.699 186.152 145.891 185.937 146.004C185.762 146.098 185.572 146.164 185.377 146.199C185.154 146.23 184.93 146.244 184.705 146.242H180.722V146.539C180.714 146.799 180.767 147.057 180.876 147.293C180.985 147.529 181.147 147.736 181.35 147.899C181.826 148.264 182.416 148.448 183.016 148.417C183.528 148.411 184.032 148.283 184.485 148.043C184.776 147.867 185.095 147.74 185.428 147.67C185.565 147.672 185.699 147.708 185.819 147.775C185.938 147.842 186.04 147.937 186.113 148.052C186.279 148.264 186.375 148.523 186.388 148.791C186.388 149.157 186.057 149.522 185.394 149.879C184.449 150.311 183.408 150.486 182.374 150.386C181.34 150.287 180.351 149.915 179.507 149.31C179.078 148.958 178.736 148.513 178.508 148.007C178.28 147.502 178.171 146.951 178.191 146.397ZM180.713 144.752H183.576C183.731 144.767 183.885 144.731 184.018 144.65C184.067 144.598 184.103 144.536 184.125 144.469C184.148 144.401 184.154 144.33 184.145 144.259C184.149 144.058 184.105 143.859 184.018 143.678C183.931 143.496 183.803 143.338 183.644 143.214C183.297 142.94 182.863 142.799 182.421 142.815C181.989 142.805 181.566 142.943 181.223 143.206C181.062 143.325 180.931 143.482 180.842 143.662C180.754 143.843 180.71 144.042 180.714 144.243L180.713 144.752Z" fill="black"/>
<path d="M188.503 149.439V141.709C188.503 141.592 188.534 141.477 188.595 141.377C188.655 141.276 188.742 141.194 188.845 141.14C189.123 140.985 189.437 140.912 189.754 140.927C190.037 140.92 190.315 140.997 190.553 141.148C190.653 141.207 190.736 141.292 190.793 141.393C190.849 141.495 190.878 141.61 190.876 141.726V142.32C191.105 141.875 191.455 141.504 191.887 141.25C192.528 140.867 193.287 140.731 194.021 140.869C194.754 141.006 195.413 141.408 195.871 141.997C196.542 142.775 196.902 143.773 196.882 144.801V149.447C196.88 149.571 196.843 149.692 196.776 149.796C196.708 149.899 196.612 149.982 196.499 150.033C196.226 150.181 195.919 150.254 195.608 150.246C195.303 150.253 195.001 150.18 194.733 150.033C194.621 149.982 194.525 149.899 194.457 149.796C194.39 149.692 194.353 149.571 194.351 149.447V144.809C194.351 144.582 194.306 144.357 194.218 144.147C194.131 143.937 194.003 143.747 193.842 143.586C193.691 143.418 193.507 143.283 193.3 143.191C193.094 143.098 192.87 143.051 192.644 143.051C192.432 143.05 192.221 143.093 192.027 143.178C191.832 143.263 191.658 143.387 191.514 143.544C191.352 143.713 191.225 143.913 191.142 144.132C191.059 144.351 191.021 144.584 191.03 144.818V149.457C191.018 149.573 190.976 149.685 190.909 149.781C190.842 149.878 190.752 149.956 190.648 150.009C190.38 150.173 190.072 150.261 189.758 150.263C189.443 150.264 189.135 150.179 188.865 150.017C188.762 149.957 188.676 149.873 188.612 149.773C188.549 149.672 188.512 149.557 188.503 149.439Z" fill="black"/>
<path d="M203.292 146.398V144.792C203.27 143.762 203.637 142.761 204.32 141.989C204.617 141.622 204.992 141.325 205.418 141.121C205.844 140.916 206.311 140.81 206.783 140.809C207.322 140.798 207.851 140.949 208.304 141.242C208.724 141.51 209.071 141.878 209.315 142.312V136.298C209.316 136.178 209.351 136.061 209.416 135.961C209.481 135.86 209.572 135.78 209.68 135.729C209.958 135.576 210.273 135.503 210.589 135.516C210.903 135.502 211.215 135.575 211.489 135.729C211.595 135.782 211.685 135.863 211.748 135.963C211.811 136.064 211.845 136.179 211.846 136.298V149.439C211.838 149.556 211.8 149.669 211.736 149.767C211.672 149.865 211.584 149.945 211.481 150C211.215 150.169 210.904 150.255 210.589 150.246C210.305 150.251 210.027 150.161 209.8 149.991C209.702 149.933 209.62 149.853 209.561 149.757C209.501 149.661 209.465 149.552 209.457 149.439V148.861C209.212 149.321 208.84 149.701 208.387 149.958C207.891 150.269 207.316 150.432 206.73 150.425C206.266 150.415 205.809 150.3 205.395 150.09C204.98 149.88 204.618 149.579 204.335 149.211C203.651 148.434 203.28 147.432 203.292 146.398ZM205.823 146.398C205.826 146.862 206.009 147.306 206.333 147.638C206.48 147.812 206.664 147.951 206.871 148.047C207.077 148.142 207.303 148.191 207.53 148.19C207.762 148.188 207.99 148.14 208.202 148.048C208.414 147.956 208.605 147.822 208.764 147.654C209.055 147.431 209.252 147.107 209.316 146.745V144.8C209.324 144.563 209.281 144.327 209.188 144.108C209.096 143.889 208.957 143.694 208.781 143.534C208.45 143.222 208.013 143.049 207.558 143.05C207.329 143.049 207.103 143.096 206.893 143.188C206.684 143.281 206.496 143.416 206.343 143.586C206.183 143.745 206.055 143.934 205.968 144.142C205.88 144.351 205.835 144.574 205.834 144.801V146.398H205.823Z" fill="black"/>
<path d="M213.944 146.397V144.729C213.941 144.204 214.052 143.685 214.269 143.207C214.486 142.729 214.804 142.304 215.201 141.961C216.025 141.193 217.116 140.779 218.242 140.805C219.293 140.781 220.313 141.157 221.096 141.858C221.477 142.185 221.782 142.592 221.987 143.05C222.193 143.509 222.295 144.007 222.285 144.509C222.294 144.835 222.245 145.159 222.141 145.468C222.067 145.699 221.905 145.891 221.69 146.004C221.515 146.098 221.325 146.164 221.13 146.199C220.907 146.23 220.683 146.244 220.458 146.242H216.475V146.539C216.467 146.799 216.52 147.057 216.629 147.293C216.738 147.529 216.9 147.736 217.103 147.899C217.579 148.264 218.169 148.448 218.769 148.417C219.281 148.411 219.785 148.283 220.238 148.043C220.529 147.867 220.848 147.74 221.181 147.67C221.318 147.672 221.452 147.708 221.572 147.775C221.691 147.842 221.793 147.937 221.866 148.052C222.032 148.264 222.128 148.523 222.141 148.791C222.141 149.157 221.81 149.522 221.147 149.879C220.202 150.311 219.161 150.486 218.127 150.386C217.093 150.287 216.104 149.915 215.26 149.31C214.831 148.958 214.49 148.513 214.261 148.007C214.033 147.502 213.924 146.951 213.944 146.397ZM216.466 144.752H219.329C219.484 144.767 219.639 144.731 219.771 144.65C219.82 144.598 219.856 144.536 219.878 144.469C219.901 144.401 219.907 144.33 219.898 144.259C219.902 144.058 219.858 143.859 219.771 143.678C219.684 143.496 219.556 143.338 219.397 143.214C219.05 142.94 218.616 142.799 218.174 142.815C217.742 142.805 217.32 142.943 216.977 143.206C216.815 143.325 216.684 143.482 216.595 143.662C216.507 143.843 216.463 144.042 216.467 144.243V144.752H216.466Z" fill="black"/>
<path d="M224.435 149.439V136.281C224.435 136.164 224.466 136.049 224.527 135.948C224.587 135.848 224.674 135.766 224.777 135.712C225.054 135.557 225.369 135.483 225.686 135.499C226 135.488 226.311 135.561 226.586 135.712C226.695 135.762 226.788 135.843 226.854 135.943C226.92 136.044 226.957 136.16 226.96 136.281V149.439C226.948 149.556 226.906 149.667 226.839 149.764C226.772 149.86 226.682 149.938 226.578 149.991C226.313 150.164 226.002 150.252 225.686 150.246C225.371 150.256 225.06 150.17 224.795 150C224.692 149.945 224.605 149.864 224.542 149.766C224.479 149.668 224.442 149.555 224.435 149.439Z" fill="black"/>
<path d="M229.217 146.397V144.729C229.214 144.204 229.325 143.685 229.542 143.207C229.759 142.729 230.077 142.304 230.474 141.961C231.298 141.193 232.39 140.779 233.515 140.805C234.566 140.781 235.586 141.157 236.369 141.858C236.75 142.185 237.055 142.592 237.26 143.05C237.466 143.509 237.568 144.007 237.559 144.509C237.567 144.835 237.518 145.159 237.414 145.468C237.34 145.699 237.178 145.891 236.964 146.004C236.788 146.098 236.599 146.164 236.403 146.199C236.18 146.23 235.956 146.244 235.732 146.242H231.748V146.539C231.74 146.799 231.793 147.057 231.902 147.293C232.011 147.529 232.174 147.736 232.377 147.899C232.852 148.264 233.443 148.448 234.042 148.417C234.554 148.411 235.058 148.283 235.512 148.043C235.803 147.867 236.121 147.74 236.454 147.67C236.591 147.672 236.725 147.708 236.845 147.775C236.965 147.842 237.066 147.937 237.14 148.052C237.305 148.264 237.401 148.523 237.414 148.791C237.414 149.157 237.083 149.522 236.42 149.879C235.476 150.311 234.434 150.486 233.4 150.386C232.366 150.287 231.377 149.915 230.533 149.31C230.106 148.957 229.765 148.511 229.537 148.006C229.309 147.501 229.199 146.951 229.217 146.397ZM231.749 144.752H234.612C234.766 144.767 234.921 144.731 235.054 144.65C235.102 144.598 235.139 144.536 235.161 144.469C235.183 144.401 235.19 144.33 235.181 144.259C235.184 144.058 235.141 143.859 235.054 143.678C234.967 143.496 234.839 143.338 234.68 143.214C234.333 142.94 233.899 142.799 233.457 142.815C233.025 142.805 232.602 142.943 232.259 143.206C232.097 143.325 231.967 143.482 231.878 143.662C231.789 143.843 231.745 144.042 231.75 144.243V144.752H231.749Z" fill="black"/>
<path d="M239.53 149.439V141.709C239.529 141.592 239.561 141.477 239.622 141.377C239.682 141.276 239.769 141.194 239.872 141.14C240.149 140.985 240.464 140.912 240.781 140.927C241.064 140.92 241.342 140.997 241.58 141.148C241.68 141.207 241.763 141.292 241.82 141.393C241.876 141.495 241.905 141.61 241.903 141.726V142.32C242.132 141.875 242.482 141.504 242.914 141.25C243.555 140.867 244.314 140.731 245.048 140.869C245.781 141.006 246.439 141.408 246.898 141.997C247.569 142.775 247.929 143.773 247.909 144.801V149.447C247.907 149.571 247.87 149.692 247.802 149.796C247.735 149.899 247.639 149.982 247.526 150.033C247.253 150.181 246.946 150.254 246.635 150.246C246.33 150.253 246.028 150.18 245.76 150.033C245.648 149.982 245.552 149.899 245.484 149.796C245.417 149.692 245.38 149.571 245.378 149.447V144.809C245.378 144.582 245.333 144.357 245.245 144.147C245.158 143.937 245.03 143.747 244.869 143.586C244.718 143.418 244.533 143.283 244.327 143.191C244.121 143.098 243.897 143.051 243.671 143.051C243.459 143.05 243.248 143.093 243.054 143.178C242.859 143.263 242.685 143.387 242.541 143.544C242.379 143.713 242.252 143.913 242.169 144.132C242.086 144.351 242.048 144.584 242.057 144.818V149.457C242.045 149.573 242.003 149.685 241.936 149.781C241.869 149.878 241.779 149.956 241.675 150.009C241.407 150.173 241.099 150.261 240.785 150.263C240.47 150.264 240.161 150.179 239.892 150.017C239.791 149.956 239.705 149.872 239.642 149.771C239.579 149.671 239.54 149.557 239.53 149.439Z" fill="black"/>
<path d="M250.199 149.974C249.964 149.716 249.833 149.379 249.833 149.031C249.833 148.682 249.964 148.346 250.199 148.088C250.315 147.961 250.456 147.86 250.615 147.793C250.773 147.725 250.944 147.693 251.116 147.697C251.282 147.695 251.448 147.729 251.6 147.796C251.752 147.864 251.889 147.963 251.999 148.088C252.122 148.212 252.218 148.359 252.282 148.521C252.346 148.683 252.377 148.856 252.373 149.03C252.374 149.378 252.24 149.713 251.999 149.965C251.89 150.092 251.754 150.193 251.602 150.262C251.449 150.331 251.283 150.366 251.116 150.364C250.944 150.366 250.774 150.333 250.616 150.265C250.458 150.198 250.316 150.099 250.199 149.974Z" fill="black"/>
<path d="M12.6743 101.453V86.2905C12.6743 82.85 13.5746 80.3158 15.3753 78.6879C17.3333 77.0068 19.8583 76.1351 22.4364 76.2501C25.3668 76.2501 27.6858 77.006 29.3933 78.5178C30.1985 79.1848 30.8457 80.0222 31.2879 80.9697C31.7301 81.9172 31.9563 82.9511 31.9503 83.9967C31.9968 84.4308 31.8951 84.8679 31.6617 85.2368C31.5436 85.3551 31.401 85.446 31.2439 85.5032C31.0869 85.5604 30.9192 85.5825 30.7527 85.568C29.954 85.568 29.555 85.2368 29.555 84.5657C29.5266 83.9233 29.4066 83.2882 29.1986 82.6798C28.9452 82.0035 28.6085 81.3615 28.1963 80.7685C27.6523 80.02 26.8941 79.4542 26.0218 79.1458C24.8758 78.7205 23.659 78.5187 22.4371 78.5514C17.5272 78.5514 15.0723 81.1336 15.0723 86.298V101.461C15.0723 106.625 17.5754 109.207 22.5817 109.207C23.5955 109.227 24.6056 109.081 25.572 108.774C26.2747 108.557 26.9373 108.227 27.5341 107.797C28.0298 107.384 28.4224 106.86 28.681 106.269C28.927 105.77 29.126 105.249 29.2753 104.714C29.3686 104.331 29.4707 103.805 29.564 103.137C29.5637 102.993 29.5944 102.85 29.654 102.718C29.7135 102.587 29.8006 102.47 29.9093 102.375C30.018 102.28 30.1458 102.209 30.284 102.168C30.4223 102.126 30.5679 102.115 30.7109 102.135C30.8853 102.117 31.0613 102.138 31.227 102.195C31.3926 102.252 31.544 102.345 31.6706 102.466C31.9074 102.852 32.0089 103.306 31.9592 103.757C31.958 104.802 31.7235 105.834 31.2728 106.778C30.8222 107.721 30.1667 108.552 29.3542 109.21C27.6129 110.739 25.2684 111.504 22.2931 111.504C19.7466 111.619 17.2541 110.746 15.3362 109.066C13.557 107.434 12.6697 104.897 12.6743 101.453Z" fill="black"/>
<path d="M36.6881 102.745V89.6379C36.6929 89.5028 36.7274 89.3704 36.789 89.25C36.8506 89.1297 36.9378 89.0243 37.0446 88.9414C37.2769 88.7369 37.5763 88.6251 37.8858 88.6274C38.1794 88.6279 38.4618 88.7401 38.6755 88.9414C38.783 89.0237 38.8707 89.1289 38.9324 89.2494C38.9941 89.3699 39.0281 89.5026 39.032 89.6379V102.745C39.0301 103.593 39.1957 104.434 39.5193 105.218C39.8429 106.002 40.3182 106.715 40.9179 107.315C41.4923 107.941 42.1906 108.441 42.9685 108.783C43.7465 109.126 44.5871 109.302 45.437 109.302C46.2869 109.302 47.1275 109.126 47.9055 108.783C48.6834 108.441 49.3818 107.941 49.9561 107.315C50.5558 106.715 51.0311 106.002 51.3547 105.218C51.6783 104.434 51.8439 103.593 51.842 102.745V89.5865C51.8454 89.4547 51.8794 89.3254 51.9412 89.2089C52.0031 89.0925 52.0912 88.992 52.1985 88.9154C52.4354 88.7218 52.7338 88.6194 53.0397 88.6267C53.338 88.618 53.629 88.7209 53.8555 88.9154C53.9576 88.9951 54.0405 89.0968 54.0978 89.213C54.1551 89.3292 54.1855 89.4569 54.1866 89.5865V102.745C54.1594 105.058 53.2291 107.268 51.5943 108.905C49.9595 110.541 47.7498 111.473 45.437 111.503C44.2822 111.516 43.1372 111.288 42.075 110.835C41.0128 110.382 40.0566 109.712 39.2671 108.869C38.4461 108.075 37.7943 107.124 37.351 106.071C36.9078 105.018 36.6823 103.887 36.6881 102.745Z" fill="black"/>
<path d="M60.6512 110.16V75.5788C60.6481 75.4424 60.6763 75.3072 60.7337 75.1834C60.7912 75.0597 60.8762 74.9508 60.9823 74.8651C61.2101 74.6729 61.5001 74.5703 61.7981 74.5765C62.11 74.5622 62.416 74.6651 62.6557 74.8651C62.7604 74.9521 62.8443 75.0613 62.9016 75.1847C62.9589 75.3081 62.988 75.4427 62.9868 75.5788V110.16C62.9814 110.298 62.9469 110.432 62.8854 110.555C62.8239 110.678 62.737 110.787 62.6304 110.874C62.4041 111.09 62.1021 111.209 61.7892 111.205C61.6392 111.21 61.4897 111.184 61.3496 111.13C61.2096 111.076 61.0816 110.995 60.9734 110.891C60.8704 110.799 60.7883 110.687 60.7327 110.561C60.6771 110.435 60.6493 110.298 60.6512 110.16Z" fill="black"/>
<path d="M68.8318 102.651V96.9607C68.8178 95.8246 69.0401 94.698 69.4846 93.6524C69.9292 92.6067 70.5863 91.665 71.4142 90.8868C73.0531 89.272 75.2592 88.3632 77.56 88.3553C79.8607 88.3473 82.0731 89.2408 83.7231 90.8443C84.5589 91.6357 85.2192 92.5939 85.6611 93.6568C86.103 94.7196 86.3167 95.8635 86.2884 97.0142C86.3123 97.7207 86.2087 98.4257 85.9826 99.0955C85.8126 99.5806 85.4629 99.982 85.0057 100.217C84.6253 100.417 84.2151 100.555 83.791 100.625C83.2776 100.68 82.7613 100.703 82.2451 100.693H71.1763V102.707C71.1418 103.623 71.3175 104.535 71.6901 105.373C72.0626 106.211 72.622 106.952 73.3255 107.54C74.8931 108.798 76.8641 109.444 78.8722 109.358C79.8646 109.383 80.8528 109.221 81.7858 108.882C82.4314 108.644 83.0427 108.321 83.6038 107.923C83.8689 107.676 84.1992 107.511 84.5553 107.447C84.7006 107.45 84.8431 107.487 84.9725 107.553C85.1018 107.619 85.2146 107.714 85.3026 107.829C85.5028 108.035 85.6206 108.307 85.6337 108.594C85.6337 109.197 84.9797 109.834 83.6545 110.505C82.1308 111.218 80.4603 111.56 78.779 111.505C76.1664 111.614 73.607 110.745 71.6014 109.067C70.6927 108.27 69.9728 107.281 69.4938 106.171C69.0147 105.061 68.7886 103.859 68.8318 102.651ZM71.1763 98.726H81.3635C82.0961 98.7906 82.8334 98.677 83.5126 98.3949C83.71 98.2271 83.8617 98.0122 83.9537 97.7701C84.0458 97.528 84.0752 97.2666 84.0391 97.0101C84.0394 95.3179 83.3884 93.6906 82.2211 92.4656C81.6491 91.8148 80.9415 91.2972 80.1479 90.9493C79.3543 90.6014 78.4942 90.4317 77.6279 90.4522C76.7793 90.4371 75.9364 90.595 75.1507 90.9163C74.365 91.2376 73.653 91.7155 73.0581 92.321C72.4541 92.893 71.9747 93.5836 71.6502 94.3496C71.3257 95.1156 71.1629 95.9403 71.1722 96.7722V98.726H71.1763Z" fill="black"/>
<path d="M91.2661 110.16V89.5939C91.2661 88.957 91.6486 88.6342 92.413 88.6342C92.7072 88.6247 92.9956 88.7177 93.2288 88.8974C93.335 88.9791 93.4204 89.0849 93.478 89.2059C93.5355 89.327 93.5636 89.4599 93.5599 89.5939V91.9892C94.1724 90.8361 95.1012 89.8817 96.2372 89.2381C97.3732 88.5945 98.6692 88.2884 99.9732 88.3558C101.47 88.3371 102.935 88.7886 104.161 89.6467C105.402 90.5249 106.371 91.7349 106.956 93.1382C107.661 91.6816 108.754 90.448 110.116 89.5733C111.616 88.6076 113.405 88.1938 115.176 88.4031C116.948 88.6124 118.592 89.4316 119.825 90.7203C121.388 92.297 122.17 94.4222 122.17 97.1081V110.16C122.164 110.298 122.13 110.432 122.068 110.555C122.007 110.678 121.92 110.787 121.813 110.874C121.587 111.09 121.285 111.209 120.972 111.205C120.821 111.208 120.67 111.181 120.53 111.124C120.389 111.067 120.262 110.982 120.156 110.874C120.056 110.783 119.974 110.674 119.917 110.551C119.86 110.428 119.829 110.295 119.825 110.16V97.1074C119.874 96.2257 119.741 95.3434 119.432 94.5159C119.124 93.6885 118.647 92.9339 118.032 92.2997C117.503 91.7496 116.869 91.3113 116.167 91.0106C115.465 90.71 114.71 90.5532 113.947 90.5496C113.16 90.5493 112.38 90.7053 111.654 91.0086C110.928 91.3118 110.269 91.7563 109.716 92.3162C109.107 92.9015 108.627 93.6088 108.31 94.3919C107.992 95.1749 107.843 96.0161 107.873 96.8607V110.201C107.873 110.872 107.474 111.204 106.675 111.204C105.911 111.204 105.528 110.872 105.528 110.201V96.9086C105.571 95.2387 104.962 93.6178 103.829 92.3895C103.313 91.8029 102.676 91.3346 101.962 91.0165C101.248 90.6983 100.474 90.5379 99.6928 90.5461C98.9033 90.5449 98.1217 90.7031 97.3947 91.0111C96.6678 91.3191 96.0105 91.7707 95.4623 92.3388C94.842 92.9606 94.3579 93.7046 94.0405 94.5235C93.7232 95.3424 93.5796 96.2184 93.6189 97.0958V110.152C93.6135 110.289 93.5789 110.424 93.5174 110.547C93.456 110.67 93.369 110.779 93.2624 110.866C93.0362 111.082 92.7342 111.201 92.4212 111.197C92.1184 111.204 91.825 111.091 91.6054 110.883C91.4966 110.797 91.4092 110.687 91.3503 110.562C91.2914 110.436 91.2626 110.299 91.2661 110.16Z" fill="black"/>
<path d="M128.285 110.16V75.5788C128.282 75.4424 128.31 75.3072 128.368 75.1834C128.425 75.0597 128.51 74.9508 128.616 74.8651C128.844 74.6729 129.134 74.5703 129.432 74.5765C129.744 74.5622 130.05 74.6651 130.29 74.8651C130.394 74.9521 130.478 75.0613 130.536 75.1847C130.593 75.3081 130.622 75.4427 130.621 75.5788V91.9824C131.217 90.9094 132.084 90.0112 133.136 89.3774C134.294 88.6743 135.63 88.3175 136.985 88.349C138.119 88.3342 139.244 88.5536 140.289 88.9936C141.334 89.4336 142.277 90.0847 143.059 90.9061C143.879 91.7125 144.526 92.6774 144.961 93.742C145.397 94.8066 145.611 95.9486 145.59 97.0986V102.645C145.594 103.792 145.37 104.928 144.931 105.987C144.492 107.046 143.847 108.007 143.033 108.815C142.284 109.654 141.367 110.326 140.341 110.786C139.315 111.247 138.203 111.486 137.079 111.489C135.708 111.498 134.36 111.134 133.18 110.436C132.088 109.835 131.185 108.94 130.575 107.853V110.147C130.571 110.282 130.54 110.415 130.483 110.538C130.426 110.661 130.345 110.771 130.244 110.861C130.138 110.969 130.011 111.054 129.87 111.111C129.73 111.168 129.58 111.195 129.428 111.192C129.125 111.2 128.832 111.087 128.612 110.878C128.507 110.791 128.423 110.681 128.366 110.557C128.309 110.432 128.282 110.297 128.285 110.16ZM130.63 104.273C130.63 105.199 131.267 106.267 132.541 107.476C133.11 108.051 133.788 108.507 134.534 108.819C135.28 109.131 136.081 109.292 136.89 109.294C137.734 109.29 138.567 109.107 139.334 108.757C140.101 108.407 140.786 107.898 141.341 107.264C142.562 106.039 143.249 104.381 143.253 102.651V97.1048C143.249 96.2588 143.078 95.4219 142.75 94.642C142.422 93.8622 141.943 93.1548 141.341 92.5603C140.777 91.9265 140.085 91.4194 139.31 91.0724C138.536 90.7254 137.696 90.5463 136.848 90.5469C136.041 90.5475 135.243 90.7085 134.499 91.0207C133.755 91.3328 133.081 91.7898 132.516 92.3649C131.888 92.9797 131.396 93.719 131.071 94.5353C130.747 95.3516 130.596 96.2269 130.63 97.1048V104.273Z" fill="black"/>
<path d="M150.099 102.651V97.1077C150.098 94.7804 151.022 92.548 152.666 90.9016C154.311 89.2552 156.543 88.3297 158.87 88.3286C161.197 88.3275 163.43 89.251 165.076 90.8958C166.722 92.5407 167.648 94.7722 167.649 97.0994V102.646C167.58 104.964 166.63 107.168 164.994 108.81C163.358 110.453 161.158 111.411 158.841 111.49C157.693 111.491 156.557 111.257 155.503 110.801C154.449 110.345 153.501 109.677 152.716 108.839C151.883 108.039 151.221 107.078 150.772 106.014C150.322 104.95 150.093 103.806 150.099 102.651ZM152.444 102.651C152.444 104.376 153.121 106.032 154.33 107.263C154.893 107.907 155.588 108.421 156.368 108.771C157.148 109.122 157.994 109.3 158.849 109.293C159.707 109.296 160.556 109.117 161.339 108.767C162.123 108.417 162.823 107.904 163.393 107.263C164.613 106.037 165.299 104.38 165.305 102.651V97.1077C165.301 96.2617 165.13 95.4248 164.802 94.6449C164.474 93.8651 163.995 93.1577 163.393 92.5632C162.821 91.9257 162.12 91.4166 161.337 91.0696C160.553 90.7225 159.706 90.5454 158.849 90.5498C157.996 90.5439 157.151 90.7205 156.372 91.0677C155.592 91.415 154.896 91.9249 154.33 92.5632C153.127 93.7707 152.45 95.4036 152.444 97.1077V102.651Z" fill="black"/>
<path d="M173.06 110.16V89.594C173.06 88.9572 173.443 88.6343 174.207 88.6343C174.501 88.6248 174.79 88.7178 175.023 88.8975C175.129 88.9792 175.214 89.085 175.272 89.206C175.33 89.3271 175.358 89.46 175.354 89.594V92.0345C175.962 90.9491 176.844 90.0415 177.911 89.4014C179.101 88.6815 180.471 88.3162 181.861 88.3484H183.585C183.724 88.3458 183.861 88.3724 183.988 88.4265C184.116 88.4806 184.23 88.561 184.324 88.6624C184.427 88.7658 184.509 88.8891 184.563 89.0249C184.617 89.1607 184.642 89.306 184.638 89.4521C184.644 89.5984 184.619 89.7443 184.565 89.8804C184.511 90.0165 184.429 90.1396 184.324 90.2419C184.229 90.342 184.114 90.4215 183.987 90.4755C183.86 90.5295 183.723 90.5568 183.585 90.5558H181.861C181.015 90.5528 180.178 90.7231 179.401 91.0562C178.624 91.3893 177.923 91.8781 177.342 92.4925C176.693 93.1574 176.186 93.9478 175.853 94.8154C175.52 95.683 175.368 96.6095 175.405 97.5381V110.169C175.4 110.307 175.365 110.441 175.304 110.564C175.242 110.687 175.156 110.796 175.049 110.883C174.823 111.099 174.521 111.218 174.208 111.214C173.905 111.222 173.611 111.109 173.392 110.9C173.286 110.808 173.202 110.694 173.145 110.566C173.088 110.439 173.059 110.3 173.06 110.16Z" fill="black"/>
<path d="M185.827 116.192C185.827 113.703 187.214 111.95 189.99 110.934C188.139 110.33 187.212 109.209 187.212 107.587C187.212 106.117 187.993 104.985 189.556 104.189C188.714 103.433 188.051 102.5 187.613 101.457C187.175 100.414 186.974 99.2866 187.025 98.1564V96.1978C186.986 95.1572 187.162 94.1197 187.54 93.1495C187.918 92.1793 188.492 91.2971 189.224 90.5572C189.981 89.8186 190.881 89.2425 191.868 88.8642C192.856 88.4859 193.91 88.3134 194.967 88.3573C196.004 88.3118 197.039 88.4791 198.009 88.8487C198.979 89.2183 199.863 89.7824 200.607 90.5065C200.994 89.6835 201.55 88.9512 202.238 88.3573C202.729 87.8793 203.373 87.5903 204.056 87.5415C204.226 87.5288 204.397 87.5517 204.558 87.6087C204.719 87.6657 204.866 87.7556 204.991 87.8726C205.19 88.0771 205.303 88.3511 205.305 88.637C205.318 88.7576 205.305 88.8796 205.268 88.9952C205.231 89.1107 205.17 89.2171 205.089 89.3076C205.008 89.3981 204.909 89.4706 204.799 89.5204C204.688 89.5702 204.568 89.5962 204.447 89.5967C203.334 89.6653 202.408 90.3783 201.686 91.7459C202.568 93.0575 203 94.6191 202.92 96.1971V98.1592C202.958 99.2159 202.776 100.269 202.388 101.252C201.999 102.236 201.411 103.128 200.662 103.874C199.912 104.619 199.016 105.202 198.031 105.586C197.046 105.969 195.992 106.145 194.935 106.102C193.618 106.129 192.316 105.816 191.155 105.193C190.008 105.771 189.431 106.467 189.431 107.299C189.431 108.132 189.949 108.727 190.986 109.092C192.201 109.493 193.463 109.733 194.74 109.806C196.21 109.916 197.671 110.103 199.124 110.358C200.502 110.576 201.793 111.173 202.853 112.082C203.373 112.548 203.782 113.126 204.049 113.771C204.317 114.416 204.436 115.114 204.399 115.811C204.437 116.77 204.231 117.723 203.8 118.58C203.369 119.437 202.728 120.171 201.936 120.713C200.294 121.874 198.067 122.454 195.253 122.454C192.45 122.454 190.173 121.885 188.44 120.73C187.643 120.271 186.981 119.61 186.522 118.813C186.063 118.016 185.823 117.111 185.827 116.192ZM188.078 115.946C188.077 116.618 188.254 117.279 188.589 117.862C188.925 118.445 189.408 118.93 189.99 119.267C191.582 120.191 193.409 120.63 195.248 120.532C197.005 120.634 198.752 120.202 200.26 119.292C200.822 118.925 201.281 118.42 201.593 117.826C201.905 117.231 202.06 116.566 202.042 115.895C202.06 115.26 201.886 114.635 201.541 114.102C201.227 113.627 200.812 113.227 200.326 112.93C199.756 112.604 199.14 112.363 198.5 112.216C197.862 112.044 197.212 111.925 196.554 111.86C196.002 111.809 195.306 111.758 194.482 111.69L192.758 111.494C189.641 112.42 188.081 113.904 188.078 115.946ZM189.318 98.1071C189.26 99.6927 189.806 101.241 190.847 102.439C191.95 103.523 193.433 104.133 194.979 104.138C196.525 104.143 198.012 103.542 199.121 102.464C200.167 101.28 200.715 99.7367 200.65 98.1578V96.1978C200.712 94.6422 200.163 93.1239 199.121 91.9674C198.585 91.4118 197.936 90.9775 197.218 90.6937C196.5 90.4099 195.729 90.2832 194.958 90.3221C194.191 90.2816 193.424 90.4076 192.71 90.6917C191.996 90.9757 191.352 91.4109 190.822 91.9674C189.796 93.1319 189.257 94.6469 189.318 96.1978V98.1071Z" fill="black"/>
<path d="M255.287 20.6958C255.405 19.9744 255.561 19.2597 255.754 18.5548C255.627 18.3937 255.508 18.2237 255.398 18.0537C254.851 17.2076 254.477 16.2612 254.3 15.2696C254.122 14.2779 254.143 13.2608 254.361 12.2773C256.468 2.59336 268.402 1.78854 271.971 1.76112C271.41 4.80218 269.762 13.645 269.346 15.5405C268.911 17.5262 267.706 19.2583 265.996 20.3571C264.286 21.4558 262.209 21.8316 260.223 21.4019L259.993 21.3511C259.89 21.9388 259.819 22.5315 259.78 23.1267C259.798 23.1349 259.823 23.1349 259.84 23.1438L260.086 23.1946C262.502 23.6518 265.001 23.1489 267.052 21.7927C269.103 20.4366 270.545 18.334 271.07 15.9319C271.571 13.6217 273.805 1.58493 273.898 1.06666L274.077 0.0815421L273.075 0.0198434C270.019 -0.0903445 266.963 0.25883 264.011 1.0557C257.716 2.80588 253.775 6.55991 252.611 11.9119C252.343 13.1228 252.318 14.3748 252.538 15.5953C252.758 16.8158 253.219 17.9805 253.892 19.0217C254.299 19.626 254.766 20.187 255.287 20.6958Z" fill="url(#paint0_linear)"/>
<path d="M272.65 32.5962C271.831 31.6657 270.836 30.9067 269.722 30.3628C268.608 29.819 267.397 29.5011 266.16 29.4277C265.433 29.3859 264.704 29.4257 263.986 29.5463C264.497 30.0653 264.979 30.6126 265.429 31.1854C265.635 31.1854 265.837 31.1854 266.046 31.1936C267.053 31.2523 268.038 31.5103 268.944 31.9528C269.85 32.3953 270.66 33.0134 271.325 33.7713C277.891 41.1957 271.495 51.2957 269.397 54.1922C267.282 51.9408 261.123 45.3836 259.832 43.931C258.487 42.4068 257.802 40.4117 257.926 38.3831C258.051 36.3545 258.974 34.4579 260.494 33.109L260.672 32.9561C260.273 32.5398 259.839 32.1321 259.37 31.7331C259.353 31.7503 259.335 31.7585 259.319 31.7756C259.259 31.8353 259.192 31.886 259.132 31.9457C257.336 33.6259 256.265 35.9403 256.148 38.3972C256.03 40.8542 256.875 43.2601 258.503 45.1039C260.075 46.8795 268.468 55.7902 268.824 56.172L269.51 56.9028L270.146 56.1384C272.041 53.741 273.565 51.0723 274.666 48.2218C276.974 42.1019 276.279 36.6992 272.65 32.5962Z" fill="url(#paint1_linear)"/>
<path d="M260.596 30.8293C261.06 31.233 261.503 31.6612 261.921 32.112C265.211 35.6991 266.983 40.4211 266.865 45.2867L267.749 45.3464L268.633 45.406C268.75 40.2908 266.978 35.3117 263.655 31.421C263.224 30.9223 262.767 30.4459 262.287 29.9937C261.122 28.9011 259.837 27.9437 258.457 27.1397C258.242 25.6576 258.194 24.1561 258.312 22.6632C258.362 22.0514 258.444 21.4427 258.558 20.8396C259.509 16.0648 262.269 11.8428 266.262 9.05722L265.804 8.30998L265.328 7.56274C261.135 10.49 258.168 14.8601 256.994 19.8374C256.847 20.4796 256.733 21.129 256.652 21.7829C256.453 23.4475 256.45 25.1297 256.643 26.7949C255.401 27.5297 254.082 28.1273 252.71 28.5773C252.128 28.7683 251.535 28.9271 250.935 29.0531C246.165 30.0261 241.203 29.1172 237.087 26.5166L236.578 27.2474L236.072 27.9782C240.398 30.7097 245.578 31.7529 250.624 30.9089C251.274 30.7953 251.917 30.648 252.552 30.4674C254.193 29.9941 255.772 29.3299 257.258 28.4882C258.447 29.1548 259.565 29.9391 260.596 30.8293Z" fill="url(#paint2_linear)"/>
<path d="M249.587 33.0637C249.019 33.8949 248.292 34.6052 247.448 35.1535C246.604 35.7017 245.659 36.077 244.669 36.2576C234.925 38.0668 229.56 27.3806 228.156 24.1023C231.18 23.4483 239.963 21.537 241.874 21.1798C243.873 20.8119 245.937 21.2518 247.612 22.4031C249.288 23.5545 250.438 25.3233 250.811 27.3216C250.827 27.3975 250.838 27.4741 250.846 27.5513C251.426 27.4201 251.998 27.2555 252.56 27.0584C252.56 27.0412 252.551 27.0159 252.551 26.9987C252.534 26.9137 252.517 26.8287 252.501 26.7526C251.984 24.3478 250.551 22.2389 248.505 20.8734C246.459 19.5079 243.962 18.9932 241.543 19.4386C239.212 19.8718 227.255 22.4796 226.746 22.5921L225.769 22.8046L226.1 23.7472C227.182 26.6072 228.688 29.2881 230.568 31.6995C234.62 36.8218 239.606 38.9964 244.992 38.0023C246.211 37.7794 247.374 37.3171 248.414 36.642C249.453 35.967 250.349 35.0926 251.049 34.0694C251.458 33.4687 251.799 32.825 252.068 32.1499C251.359 32.3208 250.642 32.454 249.919 32.5489C249.808 32.7237 249.697 32.8937 249.587 33.0637Z" fill="url(#paint3_linear)"/>
</g>
<defs>
<filter id="filter0_d" x="0" y="0" width="280" height="158.465" filterUnits="userSpaceOnUse" color-interpolation-filters="sRGB">
<feFlood flood-opacity="0" result="BackgroundImageFix"/>
<feColorMatrix in="SourceAlpha" type="matrix" values="0 0 0 0 0 0 0 0 0 0 0 0 0 0 0 0 0 0 127 0"/>
<feOffset dy="4"/>
<feGaussianBlur stdDeviation="2"/>
<feColorMatrix type="matrix" values="0 0 0 0 0 0 0 0 0 0 0 0 0 0 0 0 0 0 0.25 0"/>
<feBlend mode="normal" in2="BackgroundImageFix" result="effect1_dropShadow"/>
<feBlend mode="normal" in="SourceGraphic" in2="effect1_dropShadow" result="shape"/>
</filter>
<linearGradient id="paint0_linear" x1="252.412" y1="11.6797" x2="274.077" y2="11.6797" gradientUnits="userSpaceOnUse">
<stop stop-color="#F18C00"/>
<stop offset="0.165" stop-color="#F18C00"/>
<stop offset="0.967" stop-color="#FE3B1F"/>
<stop offset="1" stop-color="#FE3B1F"/>
</linearGradient>
<linearGradient id="paint1_linear" x1="256.137" y1="43.1572" x2="276" y2="43.1572" gradientUnits="userSpaceOnUse">
<stop stop-color="#F18C00"/>
<stop offset="0.165" stop-color="#F18C00"/>
<stop offset="0.967" stop-color="#FE3B1F"/>
<stop offset="1" stop-color="#FE3B1F"/>
</linearGradient>
<linearGradient id="paint2_linear" x1="236.072" y1="26.4844" x2="268.638" y2="26.4844" gradientUnits="userSpaceOnUse">
<stop stop-color="#F18C00"/>
<stop offset="0.165" stop-color="#F18C00"/>
<stop offset="0.967" stop-color="#FE3B1F"/>
<stop offset="1" stop-color="#FE3B1F"/>
</linearGradient>
<linearGradient id="paint3_linear" x1="225.769" y1="28.7597" x2="252.56" y2="28.7597" gradientUnits="userSpaceOnUse">
<stop stop-color="#F18C00"/>
<stop offset="0.165" stop-color="#F18C00"/>
<stop offset="0.967" stop-color="#FE3B1F"/>
<stop offset="1" stop-color="#FE3B1F"/>
</linearGradient>
</defs>
</svg>
