<svg width="177" height="72" viewBox="0 0 177 72" fill="none" xmlns="http://www.w3.org/2000/svg">
<g clip-path="url(#clip0)">
<path d="M55.5393 18.9673C83.8092 0.124858 174.999 -2.49594 176.25 3.49386C177.625 9.73326 165.117 17.2201 157.111 23.9587" stroke="#D6552F"/>
<path d="M15.6364 48.7903C9.63172 54.5305 -2.62659 65.6365 0.500213 70.7521C4.12781 76.7419 102.572 60.2707 120.585 48.7903" fill="url(#paint0_linear)"/>
<path d="M60.418 28.4509C62.1693 28.4509 63.9205 28.5757 65.7969 28.9501L65.046 33.5671C63.9205 33.1927 63.1697 33.0679 62.7945 33.0679C62.1693 32.9431 61.4184 32.8183 60.6681 32.8183C59.292 32.8183 58.1665 33.0679 57.2906 33.4423C56.5098 33.7748 55.8536 34.3419 55.4143 35.0641C55.0391 35.6881 54.789 36.1873 54.789 36.6865C54.789 37.3105 55.0391 37.9345 55.665 38.5585C56.1646 39.1825 57.2906 39.4315 59.0419 39.4315C59.9178 39.4315 60.7931 39.3067 61.5434 39.1819C62.4194 38.9329 63.5448 38.5579 64.9209 38.0593L63.9205 43.0507C63.1697 43.2997 62.5444 43.4245 62.0442 43.4245C61.5434 43.5499 61.0432 43.5499 60.543 43.6741C60.0423 43.6741 59.417 43.7989 58.7912 43.7989C54.789 43.7989 52.1618 43.0507 50.6606 41.4283C49.1601 39.9307 48.5342 38.3083 48.5342 36.5617C48.5342 35.4385 48.9094 34.3159 49.5352 33.0679C50.2855 31.8199 51.4115 30.6967 53.1628 29.6989C55.1642 28.9501 57.5407 28.4509 60.418 28.4509V28.4509ZM87.6869 32.9431C87.6869 33.4423 87.5618 34.1911 87.4368 35.1889L85.8106 43.6741H79.8064L81.5577 34.4401V34.0663C81.5577 33.6919 81.4327 33.1927 81.1826 32.9431C80.9325 32.5687 80.5567 32.4439 80.0565 32.4439C79.4313 32.4439 78.8061 32.5687 78.1802 32.9431C77.555 33.3175 76.679 33.8167 75.8037 34.5649L74.0524 43.6741H68.0483L71.801 23.3347H77.8051L76.554 30.4471C77.68 29.8231 78.6804 29.3245 79.5564 28.9501C80.4317 28.5757 81.4327 28.4509 82.5587 28.4509C83.9342 28.4509 84.9352 28.7005 85.6855 29.1997C86.4364 29.6989 86.9366 30.3223 87.3117 30.9463C87.4368 31.6951 87.6869 32.3191 87.6869 32.9431V32.9431ZM109.327 35.3137C109.327 36.0625 109.202 36.6865 109.077 37.5601H97.4442C97.4442 39.6811 98.6947 40.6801 101.197 40.6801C102.447 40.6801 103.573 40.5547 104.574 40.3051C105.575 40.0555 106.701 39.6811 108.076 39.3067L107.201 42.9259C105.95 43.2997 104.824 43.6741 104.074 43.7989C103.123 43.9607 102.161 44.0442 101.197 44.0485C98.6947 44.0485 96.6933 43.6741 95.3172 42.9259C93.9417 42.1771 92.9407 41.3035 92.4405 40.1803C91.9403 39.1819 91.6902 38.0593 91.6902 37.0603C91.6902 35.5633 92.0654 34.0663 92.9407 32.8183C93.8166 31.5703 94.9421 30.4471 96.5683 29.6983C98.0695 28.9501 99.8207 28.5757 101.697 28.5757C103.073 28.5757 104.449 28.8253 105.575 29.3245C106.701 29.8231 107.701 30.5725 108.452 31.5703C109.077 32.5687 109.327 33.8167 109.327 35.3143V35.3137ZM103.573 34.8145V34.3159C103.573 32.6935 102.822 31.8199 101.447 31.8199C100.571 31.8199 99.9458 32.0695 99.4456 32.6935C98.9448 33.1927 98.4446 33.9415 98.0695 34.8145H103.573ZM122.837 23.3347L119.084 43.6747H112.955L116.708 23.3347H122.837V23.3347ZM144.977 35.6881C144.977 36.8113 144.727 37.9345 144.227 39.0571C143.726 40.0555 142.976 40.9291 142.101 41.6779C141.225 42.4267 140.099 42.9259 138.848 43.4251C137.597 43.7989 136.221 44.0491 134.846 44.0491C133.219 44.0491 131.593 43.7989 130.217 43.1749C128.841 42.5509 127.59 41.6779 126.84 40.6795C125.964 39.5563 125.589 38.3089 125.589 36.9355C125.589 35.8135 125.839 34.8145 126.339 33.8167C126.84 32.8183 127.59 31.9447 128.591 31.1959C129.592 30.4471 130.718 29.8231 131.968 29.4493C133.219 29.0749 134.721 28.8253 136.096 28.8253C137.597 28.8253 139.098 29.0749 140.475 29.5741C141.85 30.0727 142.976 30.9463 143.726 31.9447C144.477 32.6935 144.977 34.0663 144.977 35.6887V35.6881ZM138.848 35.5633C138.848 34.6897 138.598 33.9415 137.972 33.4423C137.347 32.9431 136.597 32.6935 135.721 32.6935C134.721 32.6935 133.97 32.9431 133.344 33.4423C132.719 33.9415 132.343 34.4401 131.968 35.0641C131.724 35.6586 131.597 36.294 131.593 36.9361C131.593 37.8097 131.843 38.4337 132.468 38.9329C133.094 39.4315 133.845 39.8059 134.846 39.8059C135.596 39.8059 136.347 39.5563 136.972 39.1819C137.597 38.8081 138.097 38.1841 138.473 37.5601C138.598 36.8113 138.848 36.1873 138.848 35.5633V35.5633ZM167.994 32.9431C167.994 33.1927 167.994 33.8167 167.868 34.5649L166.242 43.5493H160.113L161.739 34.1911V33.6919C161.739 32.6935 161.239 32.3191 160.238 32.3191C159.613 32.3191 158.988 32.4439 158.362 32.8183C157.737 33.1927 156.986 33.6919 155.86 34.5649L154.234 43.5493H148.23L150.982 28.5757H156.986L156.736 30.3223C157.862 29.6983 158.862 29.1997 159.613 28.8253C160.488 28.4509 161.489 28.3261 162.74 28.3261C164.617 28.3261 165.992 28.8253 166.743 29.6989C167.618 30.8215 167.994 31.8199 167.994 32.9431V32.9431ZM49.0344 1.87207L47.7839 9.35887H33.0235L31.5217 18.4681H44.4058L43.1554 26.0797H30.1456L28.5193 36.4369H46.5335L45.283 44.0485H17.7622L24.5172 1.87207H49.0344Z" fill="black"/>
</g>
<defs>
<linearGradient id="paint0_linear" x1="0.499609" y1="60.4015" x2="120.533" y2="60.4015" gradientUnits="userSpaceOnUse">
<stop stop-color="#C22F16"/>
<stop offset="1" stop-color="white"/>
</linearGradient>
<clipPath id="clip0">
<rect width="177" height="72" fill="white"/>
</clipPath>
</defs>
</svg>
