<svg viewBox="0 0 128 78" xmlns="http://www.w3.org/2000/svg" fill-rule="evenodd" clip-rule="evenodd" stroke-linejoin="round" stroke-miterlimit="1.414"><path d="M107.4 23.9c-.2-4.4.4-8.3-1.6-11.6C101 4.1 89-.7 65-.7V0h-.5.5v-.7c-24 0-36.6 4.8-41.4 13.1-1.9 3.4-1.7 7.2-2 11.6-.2 3.5-1.8 7.2-1.1 11.2.8 5.2 1.1 10.4 1.9 15.2.6 3.9 6 7.2 6.5 10.9 1.4 10.2 12 14.9 36 14.9v.8h-.6.7v-.8c24 0 34.2-4.7 35.5-14.9.5-3.8 5.5-7 6.1-10.9.8-4.8 1.1-10 1.9-15.2.7-4-.9-7.8-1.1-11.3z" fill="#efcca3" fill-rule="nonzero"/><path d="M64.6 27.5c4.3.1 7.3 2.8 10.1 5.3 3.3 2.9 8.9 4.9 11.2 7.4 2.3 2.5 5.3 5 6.4 8.9 1.1 3.9 1.4 8.9 1.4 10.2 0 1.3.7 1 2.7 0 4.7-2.3 9.9-8.5 9.9-8.5-.6 3.9-5.7 7.4-6.2 11.1C98.9 72.1 89 77 64.5 77h-.1.6" fill="#ccac8d" fill-rule="nonzero"/><path d="M80.4 19.7c.9 3.1 4.1 13.6-2.1 10.1 0 0 2.6 1.5 4.2 7.2 1.7 5.7 5.8 6.4 5.8 6.4s6.7 1.3 11.7-3c4.2-3.6 4.9-10 3.1-14.9-1.8-4.8-5-6.3-9.7-7.3-4.7-1.1-14.1-2-13 1.5z" fill="#ccac8d" fill-rule="nonzero"/><circle cx="92.3" cy="31.1" r="8.8"/><circle cx="90" cy="27.2" r="2.3" fill="#fff"/><path d="M78.9 30.7s7.9 5.4 12.2 10.7c4.3 5.3 4.2 6.3 4.2 6.3l-3.1 1.4s-4.4-8.3-9.8-11.4c-5.5-3.1-6.1-5.7-6.1-5.7l2.6-1.3z" fill="#efcca3" fill-rule="nonzero"/><path d="M64.9 27.5c-4.3.1-7.5 2.8-10.4 5.3-3.3 2.9-9.1 4.9-11.4 7.4-2.3 2.5-5.4 5-6.5 8.9-1.1 3.9-1.5 8.9-1.5 10.2 0 1.3.2 1.4-2.7 0-4.7-2.2-9.9-8.5-9.9-8.5.6 3.9 5.7 7.4 6.2 11.1C30.1 72.1 40 77 64.5 77h.5" fill="#ccac8d" fill-rule="nonzero"/><path d="M88.1 44.4C83.3 38.5 75.6 33 64.9 33h-.1c-10.7 0-18.4 5.5-23.2 11.4-5 6.1-4.6 8.5-4.6 14.3 0 21 7.4 15 12.3 17.6 5 2.5 10.2 1.7 15.5 1.7h.1c5.4 0 10.5.7 15.5-1.8 4.9-2.5 12.3 3.7 12.3-17.3.1-5.8.4-8.4-4.6-14.5z" fill="#56332b" fill-rule="nonzero"/><path d="M64.4 38.2s-.7 9.7-2.1 11.6l2.6-.6-.5-11z" fill="#442823" fill-rule="nonzero"/><path d="M65.1 38.2s.7 9.7 2.1 11.6l-2.6-.6.5-11z" fill="#442823" fill-rule="nonzero"/><path d="M56.7 35.9c-1-2.3 2.6-6 8.3-6.1 5.7 0 9.3 3.7 8.3 6.1-1 2.4-4.6 3.1-8.3 3.2-3.6-.1-7.3-.8-8.3-3.2z" fill="#56332b" fill-rule="nonzero"/><path d="M65 38.2c0-.4 3.4-.5 5.2-1.7 0 0-3.7 1.2-4.5.7-.8-.4-1-1.6-1-1.6s-.3 1.2-.9 1.6c-.7.4-4.9-.7-4.9-.7s5.6 1.4 5.6 1.7c0 .3-.1 1.3-.1 2 0 2.5 0 8.7.4 9.2.6.9.4-6.7.4-9.2-.1-.8-.1-1.6-.2-2z" fill-rule="nonzero"/><path d="M65.2 51.6c1.7 0 4.7 1.2 7.4 3.1-2.6-2.9-5.7-4.9-7.4-4.9-1.8 0-5.6 2.2-8.3 5.4 2.8-2.2 6.4-3.6 8.3-3.6z" fill="#7f4a41" fill-rule="nonzero"/><path d="M64.5 69.3c-3.8 0-7.5-1.2-10.9-2.1-.7-.2-1.4.3-2.1.1-6.3-2-11.4-5.4-14.5-9.7v1c0 21 7.4 15.1 12.3 17.6 5 2.5 10.2 1.7 15.5 1.7h.1c5.4 0 10.5.7 15.5-1.8 4.9-2.5 12.3 3.6 12.3-17.4 0-.8 0-1.6.1-2.3-2.9 4.7-8.2 8.4-14.8 10.6-.6.2-2-.3-2.6-.2-3.6 1.2-6.8 2.5-10.9 2.5z" fill="#442823" fill-rule="nonzero"/><path d="M55 58s-2.5 7.5-.8 10.8l-2.3-1s1.7-7.6 3.1-9.8zm19.8 0s2.5 7.5.8 10.8l2.3-1s-1.8-7.6-3.1-9.8z" fill="#442823" fill-rule="nonzero"/><path d="M48.6 19.7c-.9 3.1-4.1 13.6 2.1 10.1 0 0-2.6 1.5-4.2 7.2s-5.8 6.4-5.8 6.4-6.7 1.3-11.7-3c-4.2-3.6-4.9-10-3.1-14.9 1.8-4.9 5-6.3 9.7-7.3 4.7-1.1 14-2 13 1.5z" fill="#ccac8d" fill-rule="nonzero"/><path d="M64.9 49.8c2.7 0 11.1 5.8 11.2 12.9v-.4c0-7.4-6.8-13.3-11.2-13.3-4.4 0-11.2 6-11.2 13.3v.4c.1-7.1 8.5-12.9 11.2-12.9z" fill-rule="nonzero"/><path d="M66.334 33.05c.427-.111.942.451 1.149 1.252.207.802.027 1.542-.4 1.652-.428.111-.943-.451-1.149-1.252-.207-.802-.028-1.542.4-1.652zm-3.502.024c.421.131.565.879.319 1.67-.245.791-.786 1.326-1.208 1.196-.422-.131-.565-.879-.32-1.67.246-.791.787-1.327 1.209-1.196z" fill="#331712"/><circle cx="37.2" cy="31.1" r="8.8"/><circle cx="39.5" cy="27.2" r="2.3" fill="#fff"/><path d="M67.5 31.2c0-.1-2.3 1-2.9 1.1-.6-.1-2.9-1.2-2.9-1.1h5.8z" fill="#7f4a41" fill-rule="nonzero"/><path d="M50 30.7s-7.9 5.4-12.2 10.7c-4.3 5.3-4.2 6.3-4.2 6.3l3.1 1.4s4.4-8.3 9.8-11.4c5.4-3.1 6.1-5.7 6.1-5.7L50 30.7z" fill="#efcca3" fill-rule="nonzero"/><path d="M32.7 14.7S30 22.1 24 25.2c0 0 9.4-1.1 8.7-10.5zm63.1 0s2.7 7.4 8.7 10.5c0 0-9.4-1.1-8.7-10.5zM78.7 28.5s-5.9-6.2-13.8-6.4h.2c-8 .2-13.8 6.4-13.8 6.4 6.9-4.8 12.8-4.7 13.8-4.7-.1 0 6.7-.1 13.6 4.7zm-6.9-13s-3-4.2-7-4.3h.2c-3 .1-6.9 4.3-6.9 4.3 3.4-3.3 6.9-3.2 6.9-3.2s3.3-.1 6.8 3.2zM37.2 46.2s-4.7 2.3-8.1.9H29c-3-1.7-4.5-6.8-4.5-6.8s3 9 12.7 5.9zm54.8 0s4.7 2.3 8.1.9c4-1.7 4.6-6.8 4.6-6.8s-3 9-12.7 5.9z" fill="#ccac8d" fill-rule="nonzero"/><path d="M42.6 14.2c2.6-.5 6.9-.6 10.3.5 4.3 1.5.8 7 1.7 7.3.9.3 2.1-3.8 10.1-3.4 8.1.4 9 4 10.1 3.4 1.1-.6-1.1-10 11-7.8 0 0-12.7-3.4-12.1 5.8 0 0-7.3-5.6-17.5-.6.1 0 2.7-8.6-13.6-5.2zm44.3 0c.2 0 .3.1.4.1.1 0-.1-.1-.4-.1zm0 0zM39.1 1.9S28.3 15.5 26.7 20.7c-1.6 5.3-2.8 27-4.2 30.1l-5-21.4 9.2-22.3 12.4-5.2zm50.8 0s10.8 13.6 12.4 18.8c1.6 5.3 2.8 27 4.2 30.1l5-21.4-9.2-22.3-12.4-5.2z" fill="#ccac8d" fill-rule="nonzero"/><path d="M89.4 1.9s11.6 9.7 15 20.9c3.4 11.2 2 24.8 4.6 26.5 3.7 2.4 7.9-11.9 9.3-13.4 2.2-2.4 9.5-8.5 10-9.6.5-1.1-14.8-17.8-21.5-21.1-8.1-3.8-18.1-4.1-17.4-3.3z" fill="#56332b" fill-rule="nonzero"/><path d="M99.3 7.9s13.7 17.5 13.5 39.3l5.5-11.2c-.1 0-4.9-14.3-19-28.1z" fill="#442823" fill-rule="nonzero"/><path d="M39.1 1.9s-11.6 9.7-15 20.9c-3.4 11.2-2 24.8-4.6 26.5-3.7 2.4-7.9-11.9-9.3-13.4C8 33.5.7 27.4.2 26.3-.3 25.2 15 8.5 21.7 5.2c8.1-3.8 18.1-4.1 17.4-3.3z" fill="#56332b" fill-rule="nonzero"/><path d="M29.2 7.9S15.5 25.4 15.7 47.2L10.3 36s4.8-14.3 18.9-28.1z" fill="#442823" fill-rule="nonzero"/><path d="M21.8 47.6s1 5.4 2.6 7.1c1.6 1.7.5-1.3.5-1.3s-1.7-.9-1.4-7.8c.3-6.9-1.7 2-1.7 2zm85.3 0s-1 5.4-2.6 7.1c-1.6 1.7-.5-1.3-.5-1.3s1.7-.9 1.4-7.8c-.3-6.9 1.7 2 1.7 2z" fill="#ccac8d" fill-rule="nonzero"/><g fill="#442823"><circle cx="54.5" cy="43.5" r=".8"/><circle cx="49.9" cy="48.3" r=".8"/><circle cx="48.4" cy="43.5" r=".8"/></g><g fill="#442823"><circle cx="74" cy="43.5" r=".8"/><circle cx="78.6" cy="48.3" r=".8"/><circle cx="80.1" cy="43.5" r=".8"/></g></svg>