<?xml version="1.0" standalone="no"?>
<!DOCTYPE svg PUBLIC "-//W3C//DTD SVG 20010904//EN"
 "http://www.w3.org/TR/2001/REC-SVG-20010904/DTD/svg10.dtd">
<svg version="1.0" xmlns="http://www.w3.org/2000/svg"
 width="600.000000pt" height="600.000000pt" viewBox="0 0 600.000000 600.000000"
 preserveAspectRatio="xMidYMid meet">
<metadata>
Created by potrace 1.11, written by Peter Selinger 2001-2013
</metadata>
<g transform="translate(0.000000,600.000000) scale(0.100000,-0.100000)"
fill="#000000" stroke="none">
<path d="M2809 5956 c-2 -2 -40 -6 -84 -10 -44 -3 -91 -8 -104 -11 -13 -2 -47
-7 -75 -10 -41 -4 -156 -26 -258 -50 -59 -13 -216 -58 -229 -66 -9 -4 -27 -10
-41 -13 -14 -2 -46 -14 -71 -25 -25 -12 -50 -21 -56 -21 -5 0 -22 -6 -38 -14
-15 -8 -46 -22 -68 -32 -93 -39 -298 -145 -303 -156 -2 -5 -8 -8 -14 -8 -10 0
-257 -161 -281 -183 -7 -7 -33 -28 -59 -48 -171 -130 -383 -348 -536 -549 -35
-46 -172 -250 -172 -256 0 -3 -9 -18 -19 -33 -28 -38 -155 -295 -177 -356 -9
-27 -21 -54 -25 -60 -15 -21 -98 -296 -124 -411 -28 -125 -29 -131 -40 -205
-3 -26 -8 -56 -10 -68 -26 -138 -27 -550 0 -736 2 -16 6 -48 9 -70 8 -61 44
-231 67 -315 11 -41 25 -93 30 -115 6 -21 15 -45 21 -52 6 -7 7 -13 3 -13 -4
0 -3 -6 2 -12 6 -7 13 -26 17 -43 4 -16 17 -50 28 -74 11 -25 21 -50 22 -56 5
-28 146 -314 170 -345 7 -8 21 -32 31 -52 11 -21 23 -38 26 -38 4 0 10 -11 13
-25 4 -14 11 -25 16 -25 6 0 10 -6 10 -13 0 -7 8 -22 17 -33 10 -10 35 -44 56
-74 56 -82 196 -247 284 -336 279 -281 575 -487 935 -648 71 -32 237 -96 259
-101 9 -2 39 -11 65 -20 27 -9 56 -18 64 -20 8 -2 51 -12 95 -23 67 -17 182
-41 270 -57 26 -4 113 -15 195 -23 118 -11 579 -7 604 6 5 3 30 7 55 9 61 5
212 31 281 48 11 3 28 7 38 9 97 22 300 84 347 106 11 5 55 23 98 39 127 50
301 139 436 223 110 69 266 179 281 198 3 3 14 13 26 21 59 40 247 217 345
325 73 81 176 212 234 299 33 50 62 92 65 95 28 26 202 363 235 455 10 28 22
55 26 60 12 17 97 289 115 367 4 19 8 35 18 78 7 30 14 71 22 123 7 48 12 72
14 72 2 0 4 22 16 140 15 162 8 573 -11 645 -2 8 -6 35 -9 60 -3 25 -12 79
-21 120 -17 80 -24 116 -29 140 -7 35 -28 108 -40 140 -8 19 -14 38 -14 43 -1
14 -54 172 -62 182 -4 6 -11 21 -15 35 -17 58 -150 331 -185 380 -11 16 -20
31 -20 35 0 3 -11 21 -25 39 -14 18 -25 36 -25 40 0 6 -38 64 -50 76 -3 3 -21
28 -40 55 -46 67 -134 177 -195 244 -267 293 -554 511 -900 685 -93 46 -265
121 -300 130 -5 2 -17 6 -25 9 -40 17 -202 66 -255 77 -33 8 -66 18 -73 23 -7
5 -15 7 -18 4 -3 -3 -20 -1 -37 4 -42 12 -141 29 -252 43 -27 4 -66 9 -85 12
-39 6 -485 15 -491 10z"/>
</g>
</svg>
